<svg width="288" height="119" viewBox="0 0 288 119" fill="none" xmlns="http://www.w3.org/2000/svg">
<g filter="url(#filter0_dii_981_1403)">
<g clip-path="url(#clip0_981_1403)">
<rect x="33.1582" y="28.2158" width="221.682" height="52.6769" rx="10.9744" fill="url(#paint0_radial_981_1403)"/>
<rect x="33.1582" y="28.2158" width="221.682" height="52.6769" rx="10.9744" fill="url(#paint1_linear_981_1403)" fill-opacity="0.9" style="mix-blend-mode:overlay"/>
<g filter="url(#filter1_d_981_1403)">
<path d="M109.08 54.7705C109.08 56.2325 108.806 57.4846 108.258 58.527C107.715 59.5649 106.973 60.36 106.032 60.912C105.096 61.4641 104.034 61.7402 102.845 61.7402C101.657 61.7402 100.593 61.4641 99.6522 60.912C98.7158 60.3555 97.9738 59.5583 97.4261 58.5204C96.8828 57.478 96.6112 56.2281 96.6112 54.7705C96.6112 53.3086 96.8828 52.0586 97.4261 51.0207C97.9738 49.9784 98.7158 49.1811 99.6522 48.629C100.593 48.0769 101.657 47.8009 102.845 47.8009C104.034 47.8009 105.096 48.0769 106.032 48.629C106.973 49.1811 107.715 49.9784 108.258 51.0207C108.806 52.0586 109.08 53.3086 109.08 54.7705ZM106.609 54.7705C106.609 53.7414 106.447 52.8735 106.125 52.1669C105.807 51.4558 105.365 50.9191 104.8 50.5569C104.235 50.1904 103.583 50.0071 102.845 50.0071C102.108 50.0071 101.456 50.1904 100.891 50.5569C100.326 50.9191 99.8818 51.4558 99.5594 52.1669C99.2414 52.8735 99.0824 53.7414 99.0824 54.7705C99.0824 55.7996 99.2414 56.6697 99.5594 57.3808C99.8818 58.0875 100.326 58.6242 100.891 58.9908C101.456 59.3529 102.108 59.534 102.845 59.534C103.583 59.534 104.235 59.3529 104.8 58.9908C105.365 58.6242 105.807 58.0875 106.125 57.3808C106.447 56.6697 106.609 55.7996 106.609 54.7705ZM111.298 61.5547V51.3785H113.623V53.0745H113.729C113.914 52.4871 114.232 52.0344 114.683 51.7163C115.138 51.3939 115.657 51.2327 116.24 51.2327C116.372 51.2327 116.52 51.2393 116.684 51.2526C116.852 51.2614 116.991 51.2769 117.101 51.299V53.5051C117 53.4698 116.838 53.4389 116.617 53.4124C116.401 53.3815 116.191 53.366 115.988 53.366C115.551 53.366 115.158 53.461 114.809 53.6509C114.464 53.8364 114.193 54.0948 113.994 54.426C113.795 54.7573 113.696 55.1393 113.696 55.5722V61.5547H111.298ZM122.052 61.7336C121.252 61.7336 120.537 61.5282 119.905 61.1174C119.274 60.7067 118.775 60.1104 118.408 59.3286C118.041 58.5469 117.858 57.5973 117.858 56.4798C117.858 55.3491 118.044 54.3951 118.415 53.6178C118.79 52.836 119.296 52.2464 119.932 51.8488C120.568 51.4469 121.277 51.246 122.058 51.246C122.655 51.246 123.145 51.3475 123.529 51.5507C123.913 51.7495 124.218 51.9902 124.443 52.2729C124.669 52.5511 124.843 52.8139 124.967 53.0613H125.066V47.9864H127.471V61.5547H125.113V59.9514H124.967C124.843 60.1987 124.664 60.4615 124.43 60.7398C124.196 61.0136 123.887 61.2477 123.503 61.4421C123.118 61.6364 122.635 61.7336 122.052 61.7336ZM122.721 59.7659C123.229 59.7659 123.662 59.629 124.019 59.3551C124.377 59.0769 124.649 58.6904 124.834 58.1957C125.02 57.7011 125.113 57.1247 125.113 56.4666C125.113 55.8085 125.02 55.2365 124.834 54.7507C124.653 54.2648 124.384 53.8872 124.026 53.6178C123.673 53.3483 123.238 53.2136 122.721 53.2136C122.186 53.2136 121.74 53.3528 121.383 53.631C121.025 53.9093 120.755 54.2935 120.574 54.7838C120.393 55.274 120.303 55.835 120.303 56.4666C120.303 57.1026 120.393 57.6701 120.574 58.1692C120.76 58.6639 121.031 59.0548 121.389 59.3419C121.751 59.6246 122.195 59.7659 122.721 59.7659ZM134.532 61.7534C133.512 61.7534 132.63 61.5414 131.888 61.1174C131.151 60.689 130.583 60.0839 130.186 59.3021C129.788 58.516 129.59 57.5906 129.59 56.5262C129.59 55.4794 129.788 54.5607 130.186 53.7701C130.588 52.9751 131.149 52.3568 131.869 51.9151C132.589 51.469 133.434 51.246 134.406 51.246C135.033 51.246 135.625 51.3475 136.182 51.5507C136.742 51.7495 137.237 52.0586 137.666 52.4782C138.098 52.8978 138.439 53.4323 138.686 54.0815C138.933 54.7264 139.057 55.4949 139.057 56.3871V57.1225H130.716V55.5059H136.758C136.754 55.0466 136.654 54.638 136.46 54.2803C136.265 53.9181 135.994 53.6332 135.645 53.4256C135.3 53.218 134.898 53.1143 134.439 53.1143C133.949 53.1143 133.518 53.2335 133.147 53.472C132.776 53.7061 132.487 54.0153 132.279 54.3995C132.076 54.7794 131.972 55.1968 131.968 55.6517V57.0628C131.968 57.6547 132.076 58.1626 132.293 58.5866C132.509 59.0062 132.812 59.3286 133.2 59.5539C133.589 59.7747 134.044 59.8852 134.565 59.8852C134.914 59.8852 135.23 59.8366 135.512 59.7394C135.795 59.6378 136.04 59.4899 136.248 59.2955C136.455 59.1012 136.612 58.8605 136.718 58.5734L138.957 58.8251C138.816 59.417 138.547 59.9337 138.149 60.3754C137.756 60.8127 137.253 61.1528 136.639 61.3957C136.025 61.6342 135.322 61.7534 134.532 61.7534ZM141.086 61.5547V51.3785H143.411V53.0745H143.517C143.703 52.4871 144.021 52.0344 144.471 51.7163C144.926 51.3939 145.445 51.2327 146.028 51.2327C146.161 51.2327 146.309 51.2393 146.472 51.2526C146.64 51.2614 146.779 51.2769 146.889 51.299V53.5051C146.788 53.4698 146.627 53.4389 146.406 53.4124C146.189 53.3815 145.98 53.366 145.776 53.366C145.339 53.366 144.946 53.461 144.597 53.6509C144.253 53.8364 143.981 54.0948 143.782 54.426C143.583 54.7573 143.484 55.1393 143.484 55.5722V61.5547H141.086ZM164.367 47.9864V61.5547H162.18L155.787 52.3126H155.674V61.5547H153.216V47.9864H155.416L161.803 57.2351H161.922V47.9864H164.367ZM171.378 61.7534C170.384 61.7534 169.523 61.5348 168.794 61.0976C168.065 60.6603 167.5 60.0486 167.098 59.2624C166.7 58.4762 166.502 57.5575 166.502 56.5063C166.502 55.4551 166.7 54.5342 167.098 53.7436C167.5 52.953 168.065 52.3391 168.794 51.9019C169.523 51.4646 170.384 51.246 171.378 51.246C172.371 51.246 173.233 51.4646 173.961 51.9019C174.69 52.3391 175.253 52.953 175.651 53.7436C176.053 54.5342 176.254 55.4551 176.254 56.5063C176.254 57.5575 176.053 58.4762 175.651 59.2624C175.253 60.0486 174.69 60.6603 173.961 61.0976C173.233 61.5348 172.371 61.7534 171.378 61.7534ZM171.391 59.8321C171.93 59.8321 172.38 59.6842 172.742 59.3883C173.105 59.0879 173.374 58.686 173.551 58.1825C173.732 57.679 173.822 57.118 173.822 56.4997C173.822 55.8769 173.732 55.3138 173.551 54.8103C173.374 54.3024 173.105 53.8982 172.742 53.5979C172.38 53.2975 171.93 53.1474 171.391 53.1474C170.839 53.1474 170.379 53.2975 170.013 53.5979C169.651 53.8982 169.379 54.3024 169.198 54.8103C169.021 55.3138 168.933 55.8769 168.933 56.4997C168.933 57.118 169.021 57.679 169.198 58.1825C169.379 58.686 169.651 59.0879 170.013 59.3883C170.379 59.6842 170.839 59.8321 171.391 59.8321ZM180.098 61.5547L177.223 51.3785H179.667L181.456 58.5336H181.549L183.377 51.3785H185.796L187.624 58.4939H187.724L189.486 51.3785H191.937L189.055 61.5547H186.557L184.649 54.6778H184.51L182.602 61.5547H180.098Z" fill="white"/>
</g>
</g>
<rect x="33.7069" y="28.7645" width="220.585" height="51.5795" rx="10.4256" stroke="url(#paint2_linear_981_1403)" stroke-width="1.09744" style="mix-blend-mode:overlay"/>
</g>
<defs>
<filter id="filter0_dii_981_1403" x="0.235126" y="0.292744" width="287.528" height="118.523" filterUnits="userSpaceOnUse" color-interpolation-filters="sRGB">
<feFlood flood-opacity="0" result="BackgroundImageFix"/>
<feColorMatrix in="SourceAlpha" type="matrix" values="0 0 0 0 0 0 0 0 0 0 0 0 0 0 0 0 0 0 127 0" result="hardAlpha"/>
<feOffset dy="5"/>
<feGaussianBlur stdDeviation="16.4615"/>
<feComposite in2="hardAlpha" operator="out"/>
<feColorMatrix type="matrix" values="0 0 0 0 0.917647 0 0 0 0 0.443137 0 0 0 0 0.772549 0 0 0 0.5 0"/>
<feBlend mode="normal" in2="BackgroundImageFix" result="effect1_dropShadow_981_1403"/>
<feBlend mode="normal" in="SourceGraphic" in2="effect1_dropShadow_981_1403" result="shape"/>
<feColorMatrix in="SourceAlpha" type="matrix" values="0 0 0 0 0 0 0 0 0 0 0 0 0 0 0 0 0 0 127 0" result="hardAlpha"/>
<feOffset/>
<feGaussianBlur stdDeviation="2.74359"/>
<feComposite in2="hardAlpha" operator="arithmetic" k2="-1" k3="1"/>
<feColorMatrix type="matrix" values="0 0 0 0 1 0 0 0 0 0.675 0 0 0 0 0.892944 0 0 0 1 0"/>
<feBlend mode="overlay" in2="shape" result="effect2_innerShadow_981_1403"/>
<feColorMatrix in="SourceAlpha" type="matrix" values="0 0 0 0 0 0 0 0 0 0 0 0 0 0 0 0 0 0 127 0" result="hardAlpha"/>
<feOffset dy="-1.09744"/>
<feGaussianBlur stdDeviation="4.38974"/>
<feComposite in2="hardAlpha" operator="arithmetic" k2="-1" k3="1"/>
<feColorMatrix type="matrix" values="0 0 0 0 0.576623 0 0 0 0 0.460156 0 0 0 0 0.7125 0 0 0 1 0"/>
<feBlend mode="overlay" in2="effect2_innerShadow_981_1403" result="effect3_innerShadow_981_1403"/>
</filter>
<filter id="filter1_d_981_1403" x="74.6626" y="36.8264" width="139.224" height="57.8506" filterUnits="userSpaceOnUse" color-interpolation-filters="sRGB">
<feFlood flood-opacity="0" result="BackgroundImageFix"/>
<feColorMatrix in="SourceAlpha" type="matrix" values="0 0 0 0 0 0 0 0 0 0 0 0 0 0 0 0 0 0 127 0" result="hardAlpha"/>
<feOffset dy="10.9744"/>
<feGaussianBlur stdDeviation="10.9744"/>
<feComposite in2="hardAlpha" operator="out"/>
<feColorMatrix type="matrix" values="0 0 0 0 0 0 0 0 0 0 0 0 0 0 0 0 0 0 0.25 0"/>
<feBlend mode="normal" in2="BackgroundImageFix" result="effect1_dropShadow_981_1403"/>
<feBlend mode="normal" in="SourceGraphic" in2="effect1_dropShadow_981_1403" result="shape"/>
</filter>
<radialGradient id="paint0_radial_981_1403" cx="0" cy="0" r="1" gradientUnits="userSpaceOnUse" gradientTransform="translate(247.949 65.5286) rotate(-165.587) scale(189.583 153.649)">
<stop stop-color="#F69EA3"/>
<stop offset="1" stop-color="#E970C4"/>
</radialGradient>
<linearGradient id="paint1_linear_981_1403" x1="143.999" y1="16.144" x2="143.999" y2="80.8927" gradientUnits="userSpaceOnUse">
<stop stop-color="#FEC8F1"/>
<stop offset="0.403918" stop-color="#ED92D7" stop-opacity="0"/>
</linearGradient>
<linearGradient id="paint2_linear_981_1403" x1="116.982" y1="64.7534" x2="120.175" y2="14.2114" gradientUnits="userSpaceOnUse">
<stop stop-opacity="0.5"/>
<stop offset="1" stop-color="white" stop-opacity="0.5"/>
</linearGradient>
<clipPath id="clip0_981_1403">
<rect x="33.1582" y="28.2158" width="221.682" height="52.6769" rx="10.9744" fill="white"/>
</clipPath>
</defs>
</svg>
