<svg width="252" height="83" viewBox="0 0 252 83" fill="none" xmlns="http://www.w3.org/2000/svg">
<g filter="url(#filter0_dii_981_1412)">
<g clip-path="url(#clip0_981_1412)">
<rect x="15" y="10" width="221.682" height="52.6769" rx="10.9744" fill="url(#paint0_radial_981_1412)"/>
<rect x="15" y="10" width="221.682" height="52.6769" rx="10.9744" fill="url(#paint1_linear_981_1412)" fill-opacity="0.9" style="mix-blend-mode:overlay"/>
<g filter="url(#filter1_d_981_1412)">
<path d="M90.9215 36.5547C90.9215 38.0167 90.6477 39.2688 90.1 40.3112C89.5568 41.3491 88.8147 42.1441 87.874 42.6962C86.9376 43.2483 85.8754 43.5244 84.6873 43.5244C83.4992 43.5244 82.4347 43.2483 81.4939 42.6962C80.5576 42.1397 79.8156 41.3425 79.2679 40.3046C78.7246 39.2622 78.453 38.0123 78.453 36.5547C78.453 35.0928 78.7246 33.8428 79.2679 32.8049C79.8156 31.7625 80.5576 30.9653 81.4939 30.4132C82.4347 29.8611 83.4992 29.5851 84.6873 29.5851C85.8754 29.5851 86.9376 29.8611 87.874 30.4132C88.8147 30.9653 89.5568 31.7625 90.1 32.8049C90.6477 33.8428 90.9215 35.0928 90.9215 36.5547ZM88.4504 36.5547C88.4504 35.5256 88.2891 34.6577 87.9667 33.951C87.6487 33.2399 87.207 32.7033 86.6417 32.3411C86.0763 31.9745 85.4249 31.7912 84.6873 31.7912C83.9497 31.7912 83.2982 31.9745 82.7329 32.3411C82.1675 32.7033 81.7236 33.2399 81.4012 33.951C81.0832 34.6577 80.9242 35.5256 80.9242 36.5547C80.9242 37.5838 81.0832 38.4539 81.4012 39.165C81.7236 39.8717 82.1675 40.4083 82.7329 40.7749C83.2982 41.1371 83.9497 41.3182 84.6873 41.3182C85.4249 41.3182 86.0763 41.1371 86.6417 40.7749C87.207 40.4083 87.6487 39.8717 87.9667 39.165C88.2891 38.4539 88.4504 37.5838 88.4504 36.5547ZM93.1393 43.3389V33.1626H95.4647V34.8587H95.5707C95.7562 34.2713 96.0742 33.8185 96.5247 33.5005C96.9797 33.1781 97.4986 33.0169 98.0817 33.0169C98.2142 33.0169 98.3621 33.0235 98.5255 33.0368C98.6934 33.0456 98.8325 33.0611 98.9429 33.0831V35.2893C98.8413 35.254 98.6801 35.2231 98.4593 35.1966C98.2429 35.1656 98.0331 35.1502 97.8299 35.1502C97.3926 35.1502 96.9995 35.2451 96.6506 35.4351C96.3061 35.6206 96.0345 35.879 95.8357 36.2102C95.637 36.5415 95.5376 36.9235 95.5376 37.3564V43.3389H93.1393ZM103.894 43.5177C103.094 43.5177 102.379 43.3124 101.747 42.9016C101.115 42.4908 100.616 41.8946 100.25 41.1128C99.8831 40.3311 99.6998 39.3814 99.6998 38.264C99.6998 37.1333 99.8854 36.1793 100.256 35.4019C100.632 34.6202 101.138 34.0305 101.774 33.633C102.41 33.2311 103.118 33.0301 103.9 33.0301C104.496 33.0301 104.987 33.1317 105.371 33.3349C105.755 33.5337 106.06 33.7744 106.285 34.057C106.51 34.3353 106.685 34.5981 106.809 34.8454H106.908V29.7706H109.313V43.3389H106.954V41.7356H106.809C106.685 41.9829 106.506 42.2457 106.272 42.524C106.038 42.7978 105.729 43.0319 105.344 43.2262C104.96 43.4206 104.477 43.5177 103.894 43.5177ZM104.563 41.5501C105.071 41.5501 105.503 41.4132 105.861 41.1393C106.219 40.8611 106.491 40.4746 106.676 39.9799C106.862 39.4852 106.954 38.9089 106.954 38.2508C106.954 37.5927 106.862 37.0207 106.676 36.5348C106.495 36.049 106.226 35.6714 105.868 35.4019C105.515 35.1325 105.079 34.9978 104.563 34.9978C104.028 34.9978 103.582 35.1369 103.224 35.4152C102.867 35.6934 102.597 36.0777 102.416 36.568C102.235 37.0582 102.145 37.6192 102.145 38.2508C102.145 38.8868 102.235 39.4543 102.416 39.9534C102.602 40.4481 102.873 40.839 103.231 41.1261C103.593 41.4087 104.037 41.5501 104.563 41.5501ZM116.374 43.5376C115.353 43.5376 114.472 43.3256 113.73 42.9016C112.993 42.4732 112.425 41.8681 112.028 41.0863C111.63 40.3001 111.431 39.3748 111.431 38.3104C111.431 37.2636 111.63 36.3449 112.028 35.5543C112.43 34.7593 112.99 34.141 113.71 33.6993C114.43 33.2532 115.276 33.0301 116.248 33.0301C116.875 33.0301 117.467 33.1317 118.023 33.3349C118.584 33.5337 119.079 33.8428 119.507 34.2624C119.94 34.682 120.28 35.2164 120.528 35.8657C120.775 36.5106 120.899 37.2791 120.899 38.1713V38.9066H112.558V37.2901H118.6C118.595 36.8308 118.496 36.4222 118.302 36.0645C118.107 35.7023 117.836 35.4174 117.487 35.2098C117.142 35.0022 116.74 34.8984 116.281 34.8984C115.791 34.8984 115.36 35.0177 114.989 35.2562C114.618 35.4903 114.329 35.7995 114.121 36.1837C113.918 36.5636 113.814 36.9809 113.81 37.4359V38.847C113.81 39.4389 113.918 39.9468 114.134 40.3708C114.351 40.7904 114.653 41.1128 115.042 41.3381C115.431 41.5589 115.886 41.6693 116.407 41.6693C116.756 41.6693 117.072 41.6207 117.354 41.5236C117.637 41.422 117.882 41.274 118.09 41.0797C118.297 40.8854 118.454 40.6446 118.56 40.3576L120.799 40.6093C120.658 41.2012 120.389 41.7179 119.991 42.1596C119.598 42.5969 119.094 42.9369 118.48 43.1799C117.867 43.4184 117.164 43.5376 116.374 43.5376ZM122.928 43.3389V33.1626H125.253V34.8587H125.359C125.545 34.2713 125.863 33.8185 126.313 33.5005C126.768 33.1781 127.287 33.0169 127.87 33.0169C128.002 33.0169 128.15 33.0235 128.314 33.0368C128.482 33.0456 128.621 33.0611 128.731 33.0831V35.2893C128.63 35.254 128.468 35.2231 128.248 35.1966C128.031 35.1656 127.821 35.1502 127.618 35.1502C127.181 35.1502 126.788 35.2451 126.439 35.4351C126.094 35.6206 125.823 35.879 125.624 36.2102C125.425 36.5415 125.326 36.9235 125.326 37.3564V43.3389H122.928ZM146.208 29.7706V43.3389H144.022L137.629 34.0968H137.516V43.3389H135.058V29.7706H137.258L143.644 39.0193H143.764V29.7706H146.208ZM153.219 43.5376C152.226 43.5376 151.364 43.319 150.636 42.8817C149.907 42.4445 149.342 41.8328 148.94 41.0466C148.542 40.2604 148.343 39.3417 148.343 38.2905C148.343 37.2393 148.542 36.3184 148.94 35.5278C149.342 34.7372 149.907 34.1233 150.636 33.686C151.364 33.2488 152.226 33.0301 153.219 33.0301C154.213 33.0301 155.074 33.2488 155.803 33.686C156.532 34.1233 157.095 34.7372 157.493 35.5278C157.895 36.3184 158.096 37.2393 158.096 38.2905C158.096 39.3417 157.895 40.2604 157.493 41.0466C157.095 41.8328 156.532 42.4445 155.803 42.8817C155.074 43.319 154.213 43.5376 153.219 43.5376ZM153.233 41.6163C153.772 41.6163 154.222 41.4684 154.584 41.1724C154.946 40.8721 155.216 40.4702 155.392 39.9667C155.574 39.4632 155.664 38.9022 155.664 38.2839C155.664 37.6611 155.574 37.098 155.392 36.5945C155.216 36.0865 154.946 35.6824 154.584 35.3821C154.222 35.0817 153.772 34.9316 153.233 34.9316C152.681 34.9316 152.221 35.0817 151.855 35.3821C151.492 35.6824 151.221 36.0865 151.04 36.5945C150.863 37.098 150.775 37.6611 150.775 38.2839C150.775 38.9022 150.863 39.4632 151.04 39.9667C151.221 40.4702 151.492 40.8721 151.855 41.1724C152.221 41.4684 152.681 41.6163 153.233 41.6163ZM161.94 43.3389L159.064 33.1626H161.509L163.298 40.3178H163.391L165.219 33.1626H167.637L169.466 40.2781H169.565L171.328 33.1626H173.779L170.897 43.3389H168.399L166.491 36.462H166.352L164.444 43.3389H161.94Z" fill="white"/>
</g>
</g>
<rect x="15.5487" y="10.5487" width="220.585" height="51.5795" rx="10.4256" stroke="url(#paint2_linear_981_1412)" stroke-width="1.09744" style="mix-blend-mode:overlay"/>
</g>
<defs>
<filter id="filter0_dii_981_1412" x="0" y="0" width="251.682" height="82.6768" filterUnits="userSpaceOnUse" color-interpolation-filters="sRGB">
<feFlood flood-opacity="0" result="BackgroundImageFix"/>
<feColorMatrix in="SourceAlpha" type="matrix" values="0 0 0 0 0 0 0 0 0 0 0 0 0 0 0 0 0 0 127 0" result="hardAlpha"/>
<feOffset dy="5"/>
<feGaussianBlur stdDeviation="7.5"/>
<feComposite in2="hardAlpha" operator="out"/>
<feColorMatrix type="matrix" values="0 0 0 0 0.917647 0 0 0 0 0.443137 0 0 0 0 0.772549 0 0 0 0.6 0"/>
<feBlend mode="normal" in2="BackgroundImageFix" result="effect1_dropShadow_981_1412"/>
<feBlend mode="normal" in="SourceGraphic" in2="effect1_dropShadow_981_1412" result="shape"/>
<feColorMatrix in="SourceAlpha" type="matrix" values="0 0 0 0 0 0 0 0 0 0 0 0 0 0 0 0 0 0 127 0" result="hardAlpha"/>
<feOffset/>
<feGaussianBlur stdDeviation="2.74359"/>
<feComposite in2="hardAlpha" operator="arithmetic" k2="-1" k3="1"/>
<feColorMatrix type="matrix" values="0 0 0 0 1 0 0 0 0 0.675 0 0 0 0 0.892944 0 0 0 1 0"/>
<feBlend mode="overlay" in2="shape" result="effect2_innerShadow_981_1412"/>
<feColorMatrix in="SourceAlpha" type="matrix" values="0 0 0 0 0 0 0 0 0 0 0 0 0 0 0 0 0 0 127 0" result="hardAlpha"/>
<feOffset dy="-1.09744"/>
<feGaussianBlur stdDeviation="4.38974"/>
<feComposite in2="hardAlpha" operator="arithmetic" k2="-1" k3="1"/>
<feColorMatrix type="matrix" values="0 0 0 0 0.576623 0 0 0 0 0.460156 0 0 0 0 0.7125 0 0 0 1 0"/>
<feBlend mode="overlay" in2="effect2_innerShadow_981_1412" result="effect3_innerShadow_981_1412"/>
</filter>
<filter id="filter1_d_981_1412" x="56.5044" y="18.6106" width="139.224" height="57.8506" filterUnits="userSpaceOnUse" color-interpolation-filters="sRGB">
<feFlood flood-opacity="0" result="BackgroundImageFix"/>
<feColorMatrix in="SourceAlpha" type="matrix" values="0 0 0 0 0 0 0 0 0 0 0 0 0 0 0 0 0 0 127 0" result="hardAlpha"/>
<feOffset dy="10.9744"/>
<feGaussianBlur stdDeviation="10.9744"/>
<feComposite in2="hardAlpha" operator="out"/>
<feColorMatrix type="matrix" values="0 0 0 0 0 0 0 0 0 0 0 0 0 0 0 0 0 0 0.25 0"/>
<feBlend mode="normal" in2="BackgroundImageFix" result="effect1_dropShadow_981_1412"/>
<feBlend mode="normal" in="SourceGraphic" in2="effect1_dropShadow_981_1412" result="shape"/>
</filter>
<radialGradient id="paint0_radial_981_1412" cx="0" cy="0" r="1" gradientUnits="userSpaceOnUse" gradientTransform="translate(229.79 47.3128) rotate(-165.587) scale(189.583 153.649)">
<stop stop-color="#F69EA3"/>
<stop offset="1" stop-color="#E970C4"/>
</radialGradient>
<linearGradient id="paint1_linear_981_1412" x1="125.841" y1="-2.07179" x2="125.841" y2="62.6769" gradientUnits="userSpaceOnUse">
<stop stop-color="#FEC8F1"/>
<stop offset="0.403918" stop-color="#ED92D7" stop-opacity="0"/>
</linearGradient>
<linearGradient id="paint2_linear_981_1412" x1="98.8235" y1="46.5376" x2="102.016" y2="-4.00446" gradientUnits="userSpaceOnUse">
<stop stop-opacity="0.5"/>
<stop offset="1" stop-color="white" stop-opacity="0.5"/>
</linearGradient>
<clipPath id="clip0_981_1412">
<rect x="15" y="10" width="221.682" height="52.6769" rx="10.9744" fill="white"/>
</clipPath>
</defs>
</svg>
