<svg width="288" height="119" viewBox="0 0 288 119" fill="none" xmlns="http://www.w3.org/2000/svg">
<g filter="url(#filter0_dii_981_1384)">
<g clip-path="url(#clip0_981_1384)">
<rect x="33.1582" y="22.2158" width="221.682" height="52.6769" rx="10.9744" fill="url(#paint0_radial_981_1384)"/>
<rect x="33.1582" y="22.2158" width="221.682" height="52.6769" rx="10.9744" fill="url(#paint1_linear_981_1384)" fill-opacity="0.9" style="mix-blend-mode:overlay"/>
<g filter="url(#filter1_d_981_1384)">
<path d="M109.08 48.7705C109.08 50.2325 108.806 51.4846 108.258 52.527C107.715 53.5649 106.973 54.36 106.032 54.912C105.096 55.4641 104.034 55.7402 102.845 55.7402C101.657 55.7402 100.593 55.4641 99.6522 54.912C98.7158 54.3555 97.9738 53.5583 97.4261 52.5204C96.8828 51.478 96.6112 50.2281 96.6112 48.7705C96.6112 47.3086 96.8828 46.0586 97.4261 45.0207C97.9738 43.9784 98.7158 43.1811 99.6522 42.629C100.593 42.0769 101.657 41.8009 102.845 41.8009C104.034 41.8009 105.096 42.0769 106.032 42.629C106.973 43.1811 107.715 43.9784 108.258 45.0207C108.806 46.0586 109.08 47.3086 109.08 48.7705ZM106.609 48.7705C106.609 47.7414 106.447 46.8735 106.125 46.1669C105.807 45.4558 105.365 44.9191 104.8 44.5569C104.235 44.1904 103.583 44.0071 102.845 44.0071C102.108 44.0071 101.456 44.1904 100.891 44.5569C100.326 44.9191 99.8818 45.4558 99.5594 46.1669C99.2414 46.8735 99.0824 47.7414 99.0824 48.7705C99.0824 49.7996 99.2414 50.6697 99.5594 51.3808C99.8818 52.0875 100.326 52.6242 100.891 52.9908C101.456 53.3529 102.108 53.534 102.845 53.534C103.583 53.534 104.235 53.3529 104.8 52.9908C105.365 52.6242 105.807 52.0875 106.125 51.3808C106.447 50.6697 106.609 49.7996 106.609 48.7705ZM111.298 55.5547V45.3785H113.623V47.0745H113.729C113.914 46.4871 114.232 46.0344 114.683 45.7163C115.138 45.3939 115.657 45.2327 116.24 45.2327C116.372 45.2327 116.52 45.2393 116.684 45.2526C116.852 45.2614 116.991 45.2769 117.101 45.299V47.5051C117 47.4698 116.838 47.4389 116.617 47.4124C116.401 47.3815 116.191 47.366 115.988 47.366C115.551 47.366 115.158 47.461 114.809 47.6509C114.464 47.8364 114.193 48.0948 113.994 48.426C113.795 48.7573 113.696 49.1393 113.696 49.5722V55.5547H111.298ZM122.052 55.7336C121.252 55.7336 120.537 55.5282 119.905 55.1174C119.274 54.7067 118.775 54.1104 118.408 53.3286C118.041 52.5469 117.858 51.5973 117.858 50.4798C117.858 49.3491 118.044 48.3951 118.415 47.6178C118.79 46.836 119.296 46.2464 119.932 45.8488C120.568 45.4469 121.277 45.246 122.058 45.246C122.655 45.246 123.145 45.3475 123.529 45.5507C123.913 45.7495 124.218 45.9902 124.443 46.2729C124.669 46.5511 124.843 46.8139 124.967 47.0613H125.066V41.9864H127.471V55.5547H125.113V53.9514H124.967C124.843 54.1987 124.664 54.4615 124.43 54.7398C124.196 55.0136 123.887 55.2477 123.503 55.4421C123.118 55.6364 122.635 55.7336 122.052 55.7336ZM122.721 53.7659C123.229 53.7659 123.662 53.629 124.019 53.3551C124.377 53.0769 124.649 52.6904 124.834 52.1957C125.02 51.7011 125.113 51.1247 125.113 50.4666C125.113 49.8085 125.02 49.2365 124.834 48.7507C124.653 48.2648 124.384 47.8872 124.026 47.6178C123.673 47.3483 123.238 47.2136 122.721 47.2136C122.186 47.2136 121.74 47.3528 121.383 47.631C121.025 47.9093 120.755 48.2935 120.574 48.7838C120.393 49.274 120.303 49.835 120.303 50.4666C120.303 51.1026 120.393 51.6701 120.574 52.1692C120.76 52.6639 121.031 53.0548 121.389 53.3419C121.751 53.6246 122.195 53.7659 122.721 53.7659ZM134.532 55.7534C133.512 55.7534 132.63 55.5414 131.888 55.1174C131.151 54.689 130.583 54.0839 130.186 53.3021C129.788 52.516 129.59 51.5906 129.59 50.5262C129.59 49.4794 129.788 48.5607 130.186 47.7701C130.588 46.9751 131.149 46.3568 131.869 45.9151C132.589 45.469 133.434 45.246 134.406 45.246C135.033 45.246 135.625 45.3475 136.182 45.5507C136.742 45.7495 137.237 46.0586 137.666 46.4782C138.098 46.8978 138.439 47.4323 138.686 48.0815C138.933 48.7264 139.057 49.4949 139.057 50.3871V51.1225H130.716V49.5059H136.758C136.754 49.0466 136.654 48.638 136.46 48.2803C136.265 47.9181 135.994 47.6332 135.645 47.4256C135.3 47.218 134.898 47.1143 134.439 47.1143C133.949 47.1143 133.518 47.2335 133.147 47.472C132.776 47.7061 132.487 48.0153 132.279 48.3995C132.076 48.7794 131.972 49.1968 131.968 49.6517V51.0628C131.968 51.6547 132.076 52.1626 132.293 52.5866C132.509 53.0062 132.812 53.3286 133.2 53.5539C133.589 53.7747 134.044 53.8852 134.565 53.8852C134.914 53.8852 135.23 53.8366 135.512 53.7394C135.795 53.6378 136.04 53.4899 136.248 53.2955C136.455 53.1012 136.612 52.8605 136.718 52.5734L138.957 52.8251C138.816 53.417 138.547 53.9337 138.149 54.3754C137.756 54.8127 137.253 55.1528 136.639 55.3957C136.025 55.6342 135.322 55.7534 134.532 55.7534ZM141.086 55.5547V45.3785H143.411V47.0745H143.517C143.703 46.4871 144.021 46.0344 144.471 45.7163C144.926 45.3939 145.445 45.2327 146.028 45.2327C146.161 45.2327 146.309 45.2393 146.472 45.2526C146.64 45.2614 146.779 45.2769 146.889 45.299V47.5051C146.788 47.4698 146.627 47.4389 146.406 47.4124C146.189 47.3815 145.98 47.366 145.776 47.366C145.339 47.366 144.946 47.461 144.597 47.6509C144.253 47.8364 143.981 48.0948 143.782 48.426C143.583 48.7573 143.484 49.1393 143.484 49.5722V55.5547H141.086ZM164.367 41.9864V55.5547H162.18L155.787 46.3126H155.674V55.5547H153.216V41.9864H155.416L161.803 51.2351H161.922V41.9864H164.367ZM171.378 55.7534C170.384 55.7534 169.523 55.5348 168.794 55.0976C168.065 54.6603 167.5 54.0486 167.098 53.2624C166.7 52.4762 166.502 51.5575 166.502 50.5063C166.502 49.4551 166.7 48.5342 167.098 47.7436C167.5 46.953 168.065 46.3391 168.794 45.9019C169.523 45.4646 170.384 45.246 171.378 45.246C172.371 45.246 173.233 45.4646 173.961 45.9019C174.69 46.3391 175.253 46.953 175.651 47.7436C176.053 48.5342 176.254 49.4551 176.254 50.5063C176.254 51.5575 176.053 52.4762 175.651 53.2624C175.253 54.0486 174.69 54.6603 173.961 55.0976C173.233 55.5348 172.371 55.7534 171.378 55.7534ZM171.391 53.8321C171.93 53.8321 172.38 53.6842 172.742 53.3883C173.105 53.0879 173.374 52.686 173.551 52.1825C173.732 51.679 173.822 51.118 173.822 50.4997C173.822 49.8769 173.732 49.3138 173.551 48.8103C173.374 48.3024 173.105 47.8982 172.742 47.5979C172.38 47.2975 171.93 47.1474 171.391 47.1474C170.839 47.1474 170.379 47.2975 170.013 47.5979C169.651 47.8982 169.379 48.3024 169.198 48.8103C169.021 49.3138 168.933 49.8769 168.933 50.4997C168.933 51.118 169.021 51.679 169.198 52.1825C169.379 52.686 169.651 53.0879 170.013 53.3883C170.379 53.6842 170.839 53.8321 171.391 53.8321ZM180.098 55.5547L177.223 45.3785H179.667L181.456 52.5336H181.549L183.377 45.3785H185.796L187.624 52.4939H187.724L189.486 45.3785H191.937L189.055 55.5547H186.557L184.649 48.6778H184.51L182.602 55.5547H180.098Z" fill="white"/>
</g>
</g>
<rect x="33.7069" y="22.7645" width="220.585" height="51.5795" rx="10.4256" stroke="url(#paint2_linear_981_1384)" stroke-width="1.09744" style="mix-blend-mode:overlay"/>
</g>
<defs>
<filter id="filter0_dii_981_1384" x="0.235126" y="0.267102" width="287.528" height="118.523" filterUnits="userSpaceOnUse" color-interpolation-filters="sRGB">
<feFlood flood-opacity="0" result="BackgroundImageFix"/>
<feColorMatrix in="SourceAlpha" type="matrix" values="0 0 0 0 0 0 0 0 0 0 0 0 0 0 0 0 0 0 127 0" result="hardAlpha"/>
<feOffset dy="10.9744"/>
<feGaussianBlur stdDeviation="16.4615"/>
<feComposite in2="hardAlpha" operator="out"/>
<feColorMatrix type="matrix" values="0 0 0 0 0.917647 0 0 0 0 0.443137 0 0 0 0 0.772549 0 0 0 0.5 0"/>
<feBlend mode="normal" in2="BackgroundImageFix" result="effect1_dropShadow_981_1384"/>
<feBlend mode="normal" in="SourceGraphic" in2="effect1_dropShadow_981_1384" result="shape"/>
<feColorMatrix in="SourceAlpha" type="matrix" values="0 0 0 0 0 0 0 0 0 0 0 0 0 0 0 0 0 0 127 0" result="hardAlpha"/>
<feOffset/>
<feGaussianBlur stdDeviation="2.74359"/>
<feComposite in2="hardAlpha" operator="arithmetic" k2="-1" k3="1"/>
<feColorMatrix type="matrix" values="0 0 0 0 1 0 0 0 0 0.675 0 0 0 0 0.892944 0 0 0 1 0"/>
<feBlend mode="overlay" in2="shape" result="effect2_innerShadow_981_1384"/>
<feColorMatrix in="SourceAlpha" type="matrix" values="0 0 0 0 0 0 0 0 0 0 0 0 0 0 0 0 0 0 127 0" result="hardAlpha"/>
<feOffset dy="-1.09744"/>
<feGaussianBlur stdDeviation="4.38974"/>
<feComposite in2="hardAlpha" operator="arithmetic" k2="-1" k3="1"/>
<feColorMatrix type="matrix" values="0 0 0 0 0.576623 0 0 0 0 0.460156 0 0 0 0 0.7125 0 0 0 1 0"/>
<feBlend mode="overlay" in2="effect2_innerShadow_981_1384" result="effect3_innerShadow_981_1384"/>
</filter>
<filter id="filter1_d_981_1384" x="74.6626" y="30.8264" width="139.224" height="57.8506" filterUnits="userSpaceOnUse" color-interpolation-filters="sRGB">
<feFlood flood-opacity="0" result="BackgroundImageFix"/>
<feColorMatrix in="SourceAlpha" type="matrix" values="0 0 0 0 0 0 0 0 0 0 0 0 0 0 0 0 0 0 127 0" result="hardAlpha"/>
<feOffset dy="10.9744"/>
<feGaussianBlur stdDeviation="10.9744"/>
<feComposite in2="hardAlpha" operator="out"/>
<feColorMatrix type="matrix" values="0 0 0 0 0 0 0 0 0 0 0 0 0 0 0 0 0 0 0.25 0"/>
<feBlend mode="normal" in2="BackgroundImageFix" result="effect1_dropShadow_981_1384"/>
<feBlend mode="normal" in="SourceGraphic" in2="effect1_dropShadow_981_1384" result="shape"/>
</filter>
<radialGradient id="paint0_radial_981_1384" cx="0" cy="0" r="1" gradientUnits="userSpaceOnUse" gradientTransform="translate(247.949 59.5286) rotate(-165.587) scale(189.583 153.649)">
<stop stop-color="#F69EA3"/>
<stop offset="1" stop-color="#E970C4"/>
</radialGradient>
<linearGradient id="paint1_linear_981_1384" x1="143.999" y1="10.144" x2="143.999" y2="74.8927" gradientUnits="userSpaceOnUse">
<stop stop-color="#FEC8F1"/>
<stop offset="0.403918" stop-color="#ED92D7" stop-opacity="0"/>
</linearGradient>
<linearGradient id="paint2_linear_981_1384" x1="116.982" y1="58.7534" x2="120.175" y2="8.21136" gradientUnits="userSpaceOnUse">
<stop stop-opacity="0.5"/>
<stop offset="1" stop-color="white" stop-opacity="0.5"/>
</linearGradient>
<clipPath id="clip0_981_1384">
<rect x="33.1582" y="22.2158" width="221.682" height="52.6769" rx="10.9744" fill="white"/>
</clipPath>
</defs>
</svg>
