<svg width="428" height="157" viewBox="0 0 428 157" fill="none" xmlns="http://www.w3.org/2000/svg">
<g filter="url(#filter0_d_981_1327)">
<path d="M355.958 69.0833V68.6718C355.958 67.7287 356.032 66.9771 356.181 66.4169C356.33 65.8568 356.55 65.4081 356.841 65.0708C357.133 64.7279 357.49 64.4192 357.913 64.1449C358.279 63.9048 358.604 63.6733 358.89 63.4504C359.182 63.2275 359.41 62.9903 359.576 62.7388C359.748 62.4873 359.833 62.2015 359.833 61.8814C359.833 61.5956 359.765 61.3441 359.628 61.1269C359.49 60.9097 359.305 60.7411 359.07 60.6211C358.836 60.5011 358.576 60.441 358.29 60.441C357.981 60.441 357.696 60.5125 357.433 60.6554C357.175 60.7983 356.967 60.9955 356.807 61.247C356.652 61.4985 356.575 61.79 356.575 62.1215H352.186C352.197 60.864 352.483 59.8437 353.043 59.0607C353.603 58.2719 354.346 57.6946 355.272 57.3288C356.198 56.9572 357.215 56.7715 358.324 56.7715C359.548 56.7715 360.639 56.9515 361.599 57.3116C362.56 57.666 363.317 58.2033 363.872 58.9235C364.426 59.638 364.703 60.5325 364.703 61.6071C364.703 62.2987 364.583 62.9074 364.343 63.4333C364.109 63.9534 363.78 64.4135 363.357 64.8136C362.94 65.208 362.451 65.5681 361.891 65.8939C361.479 66.134 361.134 66.3826 360.854 66.6398C360.574 66.8913 360.362 67.18 360.219 67.5058C360.076 67.8259 360.005 68.2145 360.005 68.6718V69.0833H355.958ZM358.05 74.8449C357.387 74.8449 356.818 74.6134 356.344 74.1504C355.875 73.6817 355.644 73.113 355.649 72.4442C355.644 71.7926 355.875 71.2353 356.344 70.7724C356.818 70.3094 357.387 70.0779 358.05 70.0779C358.679 70.0779 359.233 70.3094 359.713 70.7724C360.199 71.2353 360.445 71.7926 360.451 72.4442C360.445 72.8901 360.328 73.2959 360.099 73.6617C359.876 74.0218 359.585 74.3105 359.225 74.5277C358.864 74.7391 358.473 74.8449 358.05 74.8449Z" fill="white"/>
</g>
<g filter="url(#filter1_d_981_1327)">
<path d="M340.374 79.5091C339.831 79.5091 339.313 79.4662 338.822 79.3805C338.33 79.3004 337.899 79.189 337.527 79.0461L338.556 75.6852C338.945 75.8224 339.299 75.911 339.619 75.951C339.945 75.991 340.222 75.9681 340.451 75.8824C340.685 75.7966 340.854 75.6337 340.957 75.3937L341.06 75.1536L336.43 61.4014H341.368L343.494 70.5238H343.632L345.792 61.4014H350.765L345.964 75.668C345.724 76.3939 345.375 77.0455 344.918 77.6228C344.466 78.2059 343.872 78.666 343.134 79.0032C342.397 79.3404 341.477 79.5091 340.374 79.5091Z" fill="white"/>
</g>
<g filter="url(#filter2_d_981_1327)">
<path d="M326.984 74.776C326.144 74.776 325.401 74.6388 324.755 74.3644C324.115 74.0844 323.612 73.6614 323.246 73.0955C322.88 72.5297 322.697 71.8095 322.697 70.9349C322.697 70.2147 322.82 69.6003 323.066 69.0916C323.312 68.5772 323.655 68.1571 324.095 67.8313C324.535 67.5055 325.046 67.2568 325.629 67.0853C326.218 66.9139 326.853 66.8024 327.533 66.751C328.27 66.6938 328.862 66.6252 329.308 66.5452C329.759 66.4595 330.085 66.3423 330.285 66.1937C330.485 66.0393 330.585 65.8364 330.585 65.5849V65.5506C330.585 65.2077 330.454 64.9448 330.191 64.7619C329.928 64.579 329.591 64.4875 329.179 64.4875C328.727 64.4875 328.359 64.5875 328.073 64.7876C327.793 64.9819 327.624 65.282 327.567 65.6878H323.212C323.269 64.8876 323.523 64.1503 323.975 63.4758C324.432 62.7956 325.098 62.2526 325.972 61.8468C326.847 61.4353 327.939 61.2295 329.248 61.2295C330.191 61.2295 331.037 61.341 331.785 61.5639C332.534 61.7811 333.172 62.0869 333.697 62.4813C334.223 62.8699 334.623 63.3272 334.898 63.853C335.178 64.3732 335.318 64.9391 335.318 65.5506V74.5702H330.894V72.7183H330.791C330.528 73.2098 330.208 73.6071 329.831 73.91C329.459 74.213 329.033 74.433 328.553 74.5702C328.079 74.7074 327.556 74.776 326.984 74.776ZM328.527 71.7923C328.888 71.7923 329.225 71.718 329.539 71.5694C329.859 71.4208 330.119 71.2064 330.319 70.9264C330.519 70.6463 330.619 70.3062 330.619 69.9061V68.8087C330.494 68.8601 330.359 68.9087 330.216 68.9544C330.079 69.0001 329.931 69.043 329.771 69.083C329.616 69.123 329.451 69.1602 329.273 69.1945C329.102 69.2288 328.922 69.2602 328.733 69.2888C328.367 69.3459 328.067 69.4403 327.833 69.5717C327.604 69.6975 327.433 69.8547 327.319 70.0433C327.21 70.2262 327.156 70.432 327.156 70.6606C327.156 71.0264 327.284 71.3065 327.541 71.5008C327.799 71.6951 328.127 71.7923 328.527 71.7923Z" fill="white"/>
</g>
<g filter="url(#filter3_d_981_1327)">
<path d="M312.137 74.7412C311.2 74.7412 310.337 74.4954 309.548 74.0039C308.765 73.5123 308.136 72.7664 307.662 71.7661C307.193 70.7658 306.959 69.5055 306.959 67.9851C306.959 66.3961 307.205 65.1043 307.696 64.1098C308.194 63.1152 308.834 62.3865 309.617 61.9235C310.406 61.4605 311.234 61.229 312.103 61.229C312.755 61.229 313.326 61.3433 313.818 61.572C314.31 61.7949 314.721 62.095 315.053 62.4722C315.384 62.8437 315.636 63.2524 315.807 63.6982H315.876V57.0107H320.608V74.5697H315.91V72.4091H315.807C315.624 72.855 315.361 73.2551 315.018 73.6095C314.681 73.9581 314.27 74.2353 313.784 74.4411C313.304 74.6412 312.755 74.7412 312.137 74.7412ZM313.887 71.1059C314.321 71.1059 314.692 70.9802 315.001 70.7287C315.315 70.4715 315.556 70.1114 315.721 69.6484C315.893 69.1797 315.979 68.6253 315.979 67.9851C315.979 67.3335 315.893 66.7762 315.721 66.3132C315.556 65.8445 315.315 65.4873 315.001 65.2415C314.692 64.99 314.321 64.8643 313.887 64.8643C313.452 64.8643 313.081 64.99 312.772 65.2415C312.469 65.4873 312.235 65.8445 312.069 66.3132C311.909 66.7762 311.829 67.3335 311.829 67.9851C311.829 68.6367 311.909 69.1969 312.069 69.6655C312.235 70.1285 312.469 70.4858 312.772 70.7373C313.081 70.983 313.452 71.1059 313.887 71.1059Z" fill="white"/>
</g>
<g filter="url(#filter4_d_981_1327)">
<path d="M298.241 74.8103C296.812 74.8103 295.589 74.5273 294.571 73.9615C293.554 73.3899 292.774 72.5954 292.231 71.578C291.688 70.5548 291.416 69.3688 291.416 68.0199C291.416 66.6709 291.688 65.4878 292.231 64.4704C292.774 63.4472 293.554 62.6527 294.571 62.0869C295.589 61.5153 296.812 61.2295 298.241 61.2295C299.67 61.2295 300.893 61.5153 301.91 62.0869C302.928 62.6527 303.708 63.4472 304.251 64.4704C304.794 65.4878 305.065 66.6709 305.065 68.0199C305.065 69.3688 304.794 70.5548 304.251 71.578C303.708 72.5954 302.928 73.3899 301.91 73.9615C300.893 74.5273 299.67 74.8103 298.241 74.8103ZM298.275 71.3122C298.675 71.3122 299.021 71.1779 299.312 70.9092C299.604 70.6406 299.83 70.2576 299.99 69.7603C300.15 69.2631 300.23 68.6715 300.23 67.9856C300.23 67.294 300.15 66.7024 299.99 66.2108C299.83 65.7135 299.604 65.3306 299.312 65.0619C299.021 64.7933 298.675 64.659 298.275 64.659C297.852 64.659 297.489 64.7933 297.186 65.0619C296.883 65.3306 296.652 65.7135 296.492 66.2108C296.332 66.7024 296.252 67.294 296.252 67.9856C296.252 68.6715 296.332 69.2631 296.492 69.7603C296.652 70.2576 296.883 70.6406 297.186 70.9092C297.489 71.1779 297.852 71.3122 298.275 71.3122Z" fill="white"/>
</g>
<g filter="url(#filter5_d_981_1327)">
<path d="M276.299 60.8518V57.0107H291.56V60.8518H286.279V74.5697H281.58V60.8518H276.299Z" fill="white"/>
</g>
<g filter="url(#filter6_d_981_1327)">
<path d="M260.393 67.162V74.5697H255.66V57.0107H260.221V63.904H260.359C260.656 63.0638 261.15 62.4093 261.842 61.9406C262.533 61.4662 263.365 61.229 264.337 61.229C265.268 61.229 266.077 61.4405 266.763 61.8635C267.455 62.2864 267.989 62.8694 268.366 63.6125C268.749 64.3556 268.938 65.2072 268.932 66.1675V74.5697H264.2V67.162C264.205 66.5104 264.042 65.9989 263.711 65.6273C263.385 65.2558 262.919 65.07 262.313 65.07C261.93 65.07 261.593 65.1558 261.302 65.3272C261.016 65.493 260.793 65.7331 260.633 66.0474C260.479 66.3561 260.399 66.7276 260.393 67.162Z" fill="white"/>
</g>
<g filter="url(#filter7_d_981_1327)">
<path d="M253.121 65.6878H248.765C248.742 65.4192 248.648 65.1877 248.482 64.9934C248.316 64.799 248.102 64.6504 247.839 64.5475C247.582 64.4389 247.296 64.3846 246.982 64.3846C246.576 64.3846 246.227 64.4589 245.936 64.6075C245.644 64.7561 245.501 64.9676 245.507 65.242C245.501 65.4363 245.584 65.6164 245.756 65.7821C245.933 65.9479 246.273 66.0765 246.776 66.168L249.451 66.6481C250.8 66.8939 251.803 67.3083 252.46 67.8913C253.123 68.4686 253.458 69.2431 253.463 70.2147C253.458 71.1521 253.178 71.9666 252.623 72.6583C252.075 73.3442 251.323 73.8757 250.368 74.253C249.42 74.6245 248.336 74.8103 247.119 74.8103C245.107 74.8103 243.532 74.3987 242.395 73.5756C241.263 72.7526 240.631 71.6666 240.5 70.3176H245.198C245.261 70.7349 245.467 71.0578 245.816 71.2865C246.17 71.5094 246.616 71.6208 247.153 71.6208C247.588 71.6208 247.945 71.5465 248.225 71.3979C248.511 71.2493 248.656 71.0378 248.662 70.7635C248.656 70.512 248.531 70.3119 248.285 70.1633C248.045 70.0147 247.668 69.8947 247.153 69.8032L244.821 69.3917C243.478 69.1573 242.472 68.7115 241.803 68.0542C241.134 67.3969 240.803 66.5509 240.809 65.5164C240.803 64.6018 241.043 63.8273 241.529 63.1929C242.02 62.5527 242.721 62.0669 243.629 61.7353C244.544 61.3981 245.627 61.2295 246.879 61.2295C248.782 61.2295 250.283 61.6239 251.38 62.4127C252.483 63.2014 253.063 64.2932 253.121 65.6878Z" fill="white"/>
</g>
<g filter="url(#filter8_d_981_1327)">
<path d="M233.555 74.5702V61.401H238.287V74.5702H233.555ZM235.921 60.0292C235.281 60.0292 234.732 59.8177 234.275 59.3947C233.818 58.9717 233.589 58.463 233.589 57.8686C233.589 57.2741 233.818 56.7654 234.275 56.3425C234.732 55.9195 235.281 55.708 235.921 55.708C236.567 55.708 237.116 55.9195 237.567 56.3425C238.024 56.7654 238.253 57.2741 238.253 57.8686C238.253 58.463 238.024 58.9717 237.567 59.3947C237.116 59.8177 236.567 60.0292 235.921 60.0292Z" fill="white"/>
</g>
<g filter="url(#filter9_d_981_1327)">
<path d="M222.78 71.4489L222.814 65.8245H223.432L226.621 61.4005H231.937L226.587 68.2938H225.249L222.78 71.4489ZM218.527 74.5697V57.0107H223.26V74.5697H218.527ZM226.655 74.5697L223.637 69.3569L226.724 65.996L232.074 74.5697H226.655Z" fill="white"/>
</g>
<g filter="url(#filter10_d_981_1327)">
<path d="M209.846 74.8103C208.417 74.8103 207.194 74.5273 206.177 73.9615C205.159 73.3899 204.379 72.5954 203.836 71.578C203.293 70.5548 203.021 69.3688 203.021 68.0199C203.021 66.6709 203.293 65.4878 203.836 64.4704C204.379 63.4472 205.159 62.6527 206.177 62.0869C207.194 61.5153 208.417 61.2295 209.846 61.2295C211.138 61.2295 212.255 61.4638 213.198 61.9325C214.147 62.3955 214.882 63.0528 215.402 63.9045C215.922 64.7504 216.185 65.745 216.191 66.8881H211.801C211.738 66.1965 211.538 65.6707 211.201 65.3106C210.869 64.9448 210.441 64.7619 209.915 64.7619C209.503 64.7619 209.143 64.8819 208.834 65.122C208.526 65.3563 208.286 65.7135 208.114 66.1937C207.943 66.6681 207.857 67.2654 207.857 67.9856C207.857 68.7058 207.943 69.3059 208.114 69.7861C208.286 70.2605 208.526 70.6177 208.834 70.8578C209.143 71.0921 209.503 71.2093 209.915 71.2093C210.263 71.2093 210.572 71.1293 210.841 70.9692C211.109 70.8035 211.327 70.5634 211.492 70.249C211.664 69.929 211.767 69.5403 211.801 69.083H216.191C216.174 70.2433 215.908 71.255 215.393 72.1181C214.879 72.9755 214.15 73.6385 213.207 74.1072C212.27 74.5759 211.149 74.8103 209.846 74.8103Z" fill="white"/>
</g>
<g filter="url(#filter11_d_981_1327)">
<path d="M192.523 74.776C191.683 74.776 190.94 74.6388 190.294 74.3644C189.654 74.0844 189.151 73.6614 188.785 73.0955C188.419 72.5297 188.236 71.8095 188.236 70.9349C188.236 70.2147 188.359 69.6003 188.605 69.0916C188.851 68.5772 189.194 68.1571 189.634 67.8313C190.074 67.5055 190.586 67.2568 191.169 67.0853C191.757 66.9139 192.392 66.8024 193.072 66.751C193.809 66.6938 194.401 66.6252 194.847 66.5452C195.298 66.4595 195.624 66.3423 195.824 66.1937C196.024 66.0393 196.124 65.8364 196.124 65.5849V65.5506C196.124 65.2077 195.993 64.9448 195.73 64.7619C195.467 64.579 195.13 64.4875 194.718 64.4875C194.267 64.4875 193.898 64.5875 193.612 64.7876C193.332 64.9819 193.163 65.282 193.106 65.6878H188.751C188.808 64.8876 189.062 64.1503 189.514 63.4758C189.971 62.7956 190.637 62.2526 191.511 61.8468C192.386 61.4353 193.478 61.2295 194.787 61.2295C195.73 61.2295 196.576 61.341 197.324 61.5639C198.073 61.7811 198.711 62.0869 199.236 62.4813C199.762 62.8699 200.162 63.3272 200.437 63.853C200.717 64.3732 200.857 64.9391 200.857 65.5506V74.5702H196.433V72.7183H196.33C196.067 73.2098 195.747 73.6071 195.37 73.91C194.998 74.213 194.572 74.433 194.092 74.5702C193.618 74.7074 193.095 74.776 192.523 74.776ZM194.066 71.7923C194.427 71.7923 194.764 71.718 195.078 71.5694C195.398 71.4208 195.658 71.2064 195.858 70.9264C196.058 70.6463 196.158 70.3062 196.158 69.9061V68.8087C196.033 68.8601 195.898 68.9087 195.755 68.9544C195.618 69.0001 195.47 69.043 195.31 69.083C195.155 69.123 194.99 69.1602 194.812 69.1945C194.641 69.2288 194.461 69.2602 194.272 69.2888C193.906 69.3459 193.606 69.4403 193.372 69.5717C193.143 69.6975 192.972 69.8547 192.858 70.0433C192.749 70.2262 192.695 70.432 192.695 70.6606C192.695 71.0264 192.823 71.3065 193.08 71.5008C193.338 71.6951 193.666 71.7923 194.066 71.7923Z" fill="white"/>
</g>
<g filter="url(#filter12_d_981_1327)">
<path d="M177.594 67.1625V74.5702H172.861V61.401H177.354V63.9045H177.491C177.777 63.07 178.28 62.4155 179 61.9411C179.726 61.4667 180.572 61.2295 181.538 61.2295C182.47 61.2295 183.278 61.4438 183.964 61.8725C184.656 62.2955 185.19 62.8785 185.568 63.6216C185.951 64.3646 186.139 65.2134 186.133 66.168V74.5702H181.401V67.1625C181.406 66.5109 181.241 65.9993 180.903 65.6278C180.572 65.2563 180.109 65.0705 179.515 65.0705C179.126 65.0705 178.786 65.1563 178.494 65.3277C178.208 65.4935 177.988 65.7336 177.834 66.0479C177.68 66.3566 177.6 66.7281 177.594 67.1625Z" fill="white"/>
</g>
<g filter="url(#filter13_d_981_1327)">
<path d="M165.794 62.4987C165.748 61.9271 165.534 61.4813 165.151 61.1612C164.774 60.8411 164.199 60.6811 163.428 60.6811C162.936 60.6811 162.533 60.7411 162.219 60.8611C161.91 60.9755 161.682 61.1326 161.533 61.3327C161.384 61.5328 161.307 61.7614 161.301 62.0186C161.29 62.2301 161.327 62.4216 161.413 62.593C161.504 62.7588 161.647 62.9103 161.842 63.0474C162.036 63.1789 162.285 63.2989 162.587 63.4075C162.89 63.5161 163.25 63.6133 163.668 63.699L165.108 64.0077C166.08 64.2135 166.911 64.485 167.603 64.8222C168.295 65.1594 168.861 65.5567 169.301 66.014C169.741 66.4655 170.064 66.9742 170.27 67.5401C170.481 68.1059 170.59 68.7232 170.595 69.392C170.59 70.5466 170.301 71.524 169.729 72.3242C169.158 73.1244 168.34 73.7332 167.277 74.1504C166.22 74.5677 164.948 74.7763 163.462 74.7763C161.936 74.7763 160.604 74.5505 159.467 74.099C158.335 73.6474 157.455 72.9529 156.826 72.0156C156.203 71.0724 155.889 69.8664 155.883 68.3974H160.41C160.438 68.9347 160.573 69.3863 160.813 69.7521C161.053 70.1179 161.39 70.3951 161.824 70.5837C162.265 70.7724 162.788 70.8667 163.393 70.8667C163.902 70.8667 164.328 70.8038 164.671 70.6781C165.014 70.5523 165.274 70.378 165.451 70.1551C165.628 69.9321 165.72 69.6778 165.725 69.392C165.72 69.1234 165.631 68.889 165.46 68.689C165.294 68.4832 165.02 68.3003 164.637 68.1402C164.254 67.9745 163.736 67.8201 163.085 67.6773L161.336 67.3C159.781 66.9628 158.555 66.3998 157.658 65.611C156.766 64.8165 156.323 63.7333 156.329 62.3615C156.323 61.247 156.62 60.2724 157.22 59.4379C157.826 58.5977 158.664 57.9432 159.732 57.4745C160.807 57.0058 162.039 56.7715 163.428 56.7715C164.845 56.7715 166.071 57.0087 167.106 57.4831C168.14 57.9575 168.938 58.6263 169.498 59.4894C170.064 60.3467 170.35 61.3498 170.355 62.4987H165.794Z" fill="white"/>
</g>
<g filter="url(#filter14_d_981_1327)">
<path d="M141.485 79.783C140.164 79.783 139.033 79.5944 138.089 79.2172C137.152 78.8456 136.423 78.3312 135.903 77.6739C135.389 77.0223 135.1 76.2735 135.037 75.4276H139.598C139.644 75.7076 139.758 75.9334 139.941 76.1049C140.124 76.2764 140.359 76.3993 140.644 76.4736C140.936 76.5536 141.262 76.5936 141.622 76.5936C142.233 76.5936 142.739 76.445 143.139 76.1478C143.545 75.8505 143.748 75.3133 143.748 74.5359V72.3067H143.611C143.439 72.7526 143.176 73.1327 142.822 73.447C142.468 73.7557 142.042 73.9929 141.545 74.1587C141.047 74.3187 140.501 74.3987 139.907 74.3987C138.97 74.3987 138.107 74.1815 137.318 73.7471C136.535 73.3127 135.906 72.624 135.432 71.6809C134.963 70.7377 134.729 69.506 134.729 67.9856C134.729 66.3966 134.974 65.1048 135.466 64.1103C135.963 63.1157 136.603 62.3869 137.386 61.924C138.175 61.461 139.004 61.2295 139.873 61.2295C140.524 61.2295 141.096 61.3438 141.587 61.5724C142.079 61.7954 142.491 62.0954 142.822 62.4727C143.154 62.8442 143.405 63.2529 143.577 63.6987H143.679V61.401H148.412V74.5359C148.412 75.6505 148.124 76.5965 147.546 77.3738C146.975 78.1569 146.169 78.7542 145.128 79.1657C144.088 79.5772 142.874 79.783 141.485 79.783ZM141.656 71.0378C142.09 71.0378 142.462 70.9178 142.771 70.6777C143.085 70.4319 143.325 70.0833 143.491 69.6317C143.662 69.1745 143.748 68.6258 143.748 67.9856C143.748 67.334 143.662 66.7767 143.491 66.3137C143.325 65.845 143.085 65.4878 142.771 65.242C142.462 64.9905 142.09 64.8647 141.656 64.8647C141.222 64.8647 140.85 64.9905 140.541 65.242C140.239 65.4878 140.004 65.845 139.838 66.3137C139.678 66.7767 139.598 67.334 139.598 67.9856C139.598 68.6372 139.678 69.1916 139.838 69.6489C140.004 70.1004 140.239 70.4462 140.541 70.6863C140.85 70.9207 141.222 71.0378 141.656 71.0378Z" fill="white"/>
</g>
<g filter="url(#filter15_d_981_1327)">
<path d="M123.879 67.1625V74.5702H119.146V61.401H123.639V63.9045H123.776C124.062 63.07 124.565 62.4155 125.285 61.9411C126.011 61.4667 126.857 61.2295 127.823 61.2295C128.755 61.2295 129.564 61.4438 130.249 61.8725C130.941 62.2955 131.475 62.8785 131.853 63.6216C132.236 64.3646 132.424 65.2134 132.419 66.168V74.5702H127.686V67.1625C127.692 66.5109 127.526 65.9993 127.189 65.6278C126.857 65.2563 126.394 65.0705 125.8 65.0705C125.411 65.0705 125.071 65.1563 124.779 65.3277C124.494 65.4935 124.274 65.7336 124.119 66.0479C123.965 66.3566 123.885 66.7281 123.879 67.1625Z" fill="white"/>
</g>
<g filter="url(#filter16_d_981_1327)">
<path d="M111.619 74.5702V61.401H116.352V74.5702H111.619ZM113.985 60.0292C113.345 60.0292 112.797 59.8177 112.339 59.3947C111.882 58.9717 111.653 58.463 111.653 57.8686C111.653 57.2741 111.882 56.7654 112.339 56.3425C112.797 55.9195 113.345 55.708 113.985 55.708C114.631 55.708 115.18 55.9195 115.632 56.3425C116.089 56.7654 116.318 57.2741 116.318 57.8686C116.318 58.463 116.089 58.9717 115.632 59.3947C115.18 59.8177 114.631 60.0292 113.985 60.0292Z" fill="white"/>
</g>
<g filter="url(#filter17_d_981_1327)">
<path d="M108.824 57.0107V74.5697H104.092V57.0107H108.824Z" fill="white"/>
</g>
<g filter="url(#filter18_d_981_1327)">
<path d="M95.3275 74.8103C93.9214 74.8103 92.7097 74.5416 91.6922 74.0043C90.6805 73.4613 89.9003 72.684 89.3516 71.6723C88.8086 70.6549 88.5371 69.4374 88.5371 68.0199C88.5371 66.6595 88.8115 65.4706 89.3602 64.4532C89.9089 63.4358 90.6834 62.6442 91.6837 62.0783C92.6839 61.5124 93.8642 61.2295 95.2246 61.2295C96.2192 61.2295 97.1194 61.3838 97.9253 61.6925C98.7313 62.0011 99.42 62.4498 99.9916 63.0385C100.563 63.6216 101.003 64.3303 101.312 65.1648C101.621 65.9993 101.775 66.9396 101.775 67.9856V69.083H90.0118V66.4766H97.4195C97.4138 66.0994 97.3166 65.7678 97.128 65.4821C96.9451 65.1905 96.6964 64.9648 96.3821 64.8047C96.0734 64.639 95.7219 64.5561 95.3275 64.5561C94.9445 64.5561 94.593 64.639 94.2729 64.8047C93.9528 64.9648 93.6956 65.1877 93.5013 65.4735C93.3127 65.7593 93.2126 66.0936 93.2012 66.4766V69.2888C93.2012 69.7118 93.2898 70.089 93.467 70.4205C93.6442 70.752 93.8985 71.0121 94.2301 71.2007C94.5616 71.3893 94.9617 71.4837 95.4304 71.4837C95.7562 71.4837 96.0534 71.4379 96.322 71.3465C96.5964 71.255 96.8308 71.1236 97.0251 70.9521C97.2194 70.7749 97.3623 70.5634 97.4538 70.3176H101.775C101.626 71.2322 101.275 72.0267 100.72 72.7011C100.166 73.3699 99.4314 73.89 98.5169 74.2615C97.6081 74.6274 96.545 74.8103 95.3275 74.8103Z" fill="white"/>
</g>
<g filter="url(#filter19_d_981_1327)">
<path d="M80.2552 74.8103C78.8491 74.8103 77.6374 74.5416 76.62 74.0043C75.6083 73.4613 74.8281 72.684 74.2793 71.6723C73.7363 70.6549 73.4648 69.4374 73.4648 68.0199C73.4648 66.6595 73.7392 65.4706 74.2879 64.4532C74.8366 63.4358 75.6111 62.6442 76.6114 62.0783C77.6117 61.5124 78.792 61.2295 80.1523 61.2295C81.1469 61.2295 82.0471 61.3838 82.8531 61.6925C83.659 62.0011 84.3477 62.4498 84.9193 63.0385C85.4909 63.6216 85.931 64.3303 86.2397 65.1648C86.5483 65.9993 86.7027 66.9396 86.7027 67.9856V69.083H74.9395V66.4766H82.3472C82.3415 66.0994 82.2443 65.7678 82.0557 65.4821C81.8728 65.1905 81.6242 64.9648 81.3098 64.8047C81.0011 64.639 80.6496 64.5561 80.2552 64.5561C79.8723 64.5561 79.5207 64.639 79.2007 64.8047C78.8806 64.9648 78.6234 65.1877 78.429 65.4735C78.2404 65.7593 78.1404 66.0936 78.1289 66.4766V69.2888C78.1289 69.7118 78.2175 70.089 78.3947 70.4205C78.5719 70.752 78.8263 71.0121 79.1578 71.2007C79.4893 71.3893 79.8894 71.4837 80.3581 71.4837C80.6839 71.4837 80.9811 71.4379 81.2498 71.3465C81.5241 71.255 81.7585 71.1236 81.9528 70.9521C82.1472 70.7749 82.2901 70.5634 82.3815 70.3176H86.7027C86.5541 71.2322 86.2025 72.0267 85.6481 72.7011C85.0937 73.3699 84.3592 73.89 83.4447 74.2615C82.5358 74.6274 81.4727 74.8103 80.2552 74.8103Z" fill="white"/>
</g>
<g filter="url(#filter20_d_981_1327)">
<path d="M60.3594 74.5697V57.0107H72.7055V60.8518H65.1264V63.8697H71.951V67.7107H65.1264V74.5697H60.3594Z" fill="white"/>
</g>
<defs>
<filter id="filter0_d_981_1327" x="286.339" y="1.89969" width="144.21" height="149.766" filterUnits="userSpaceOnUse" color-interpolation-filters="sRGB">
<feFlood flood-opacity="0" result="BackgroundImageFix"/>
<feColorMatrix in="SourceAlpha" type="matrix" values="0 0 0 0 0 0 0 0 0 0 0 0 0 0 0 0 0 0 127 0" result="hardAlpha"/>
<feOffset dy="10.9744"/>
<feGaussianBlur stdDeviation="32.9231"/>
<feComposite in2="hardAlpha" operator="out"/>
<feColorMatrix type="matrix" values="0 0 0 0 0 0 0 0 0 0 0 0 0 0 0 0 0 0 0.5 0"/>
<feBlend mode="overlay" in2="BackgroundImageFix" result="effect1_dropShadow_981_1327"/>
<feBlend mode="normal" in="SourceGraphic" in2="effect1_dropShadow_981_1327" result="shape"/>
</filter>
<filter id="filter1_d_981_1327" x="270.584" y="6.52957" width="146.028" height="149.8" filterUnits="userSpaceOnUse" color-interpolation-filters="sRGB">
<feFlood flood-opacity="0" result="BackgroundImageFix"/>
<feColorMatrix in="SourceAlpha" type="matrix" values="0 0 0 0 0 0 0 0 0 0 0 0 0 0 0 0 0 0 127 0" result="hardAlpha"/>
<feOffset dy="10.9744"/>
<feGaussianBlur stdDeviation="32.9231"/>
<feComposite in2="hardAlpha" operator="out"/>
<feColorMatrix type="matrix" values="0 0 0 0 0 0 0 0 0 0 0 0 0 0 0 0 0 0 0.5 0"/>
<feBlend mode="overlay" in2="BackgroundImageFix" result="effect1_dropShadow_981_1327"/>
<feBlend mode="normal" in="SourceGraphic" in2="effect1_dropShadow_981_1327" result="shape"/>
</filter>
<filter id="filter2_d_981_1327" x="256.851" y="6.3577" width="144.313" height="145.239" filterUnits="userSpaceOnUse" color-interpolation-filters="sRGB">
<feFlood flood-opacity="0" result="BackgroundImageFix"/>
<feColorMatrix in="SourceAlpha" type="matrix" values="0 0 0 0 0 0 0 0 0 0 0 0 0 0 0 0 0 0 127 0" result="hardAlpha"/>
<feOffset dy="10.9744"/>
<feGaussianBlur stdDeviation="32.9231"/>
<feComposite in2="hardAlpha" operator="out"/>
<feColorMatrix type="matrix" values="0 0 0 0 0 0 0 0 0 0 0 0 0 0 0 0 0 0 0.5 0"/>
<feBlend mode="overlay" in2="BackgroundImageFix" result="effect1_dropShadow_981_1327"/>
<feBlend mode="normal" in="SourceGraphic" in2="effect1_dropShadow_981_1327" result="shape"/>
</filter>
<filter id="filter3_d_981_1327" x="241.113" y="2.13895" width="145.341" height="149.423" filterUnits="userSpaceOnUse" color-interpolation-filters="sRGB">
<feFlood flood-opacity="0" result="BackgroundImageFix"/>
<feColorMatrix in="SourceAlpha" type="matrix" values="0 0 0 0 0 0 0 0 0 0 0 0 0 0 0 0 0 0 127 0" result="hardAlpha"/>
<feOffset dy="10.9744"/>
<feGaussianBlur stdDeviation="32.9231"/>
<feComposite in2="hardAlpha" operator="out"/>
<feColorMatrix type="matrix" values="0 0 0 0 0 0 0 0 0 0 0 0 0 0 0 0 0 0 0.5 0"/>
<feBlend mode="overlay" in2="BackgroundImageFix" result="effect1_dropShadow_981_1327"/>
<feBlend mode="normal" in="SourceGraphic" in2="effect1_dropShadow_981_1327" result="shape"/>
</filter>
<filter id="filter4_d_981_1327" x="225.57" y="6.3577" width="145.341" height="145.273" filterUnits="userSpaceOnUse" color-interpolation-filters="sRGB">
<feFlood flood-opacity="0" result="BackgroundImageFix"/>
<feColorMatrix in="SourceAlpha" type="matrix" values="0 0 0 0 0 0 0 0 0 0 0 0 0 0 0 0 0 0 127 0" result="hardAlpha"/>
<feOffset dy="10.9744"/>
<feGaussianBlur stdDeviation="32.9231"/>
<feComposite in2="hardAlpha" operator="out"/>
<feColorMatrix type="matrix" values="0 0 0 0 0 0 0 0 0 0 0 0 0 0 0 0 0 0 0.5 0"/>
<feBlend mode="overlay" in2="BackgroundImageFix" result="effect1_dropShadow_981_1327"/>
<feBlend mode="normal" in="SourceGraphic" in2="effect1_dropShadow_981_1327" result="shape"/>
</filter>
<filter id="filter5_d_981_1327" x="210.453" y="2.13895" width="146.954" height="149.251" filterUnits="userSpaceOnUse" color-interpolation-filters="sRGB">
<feFlood flood-opacity="0" result="BackgroundImageFix"/>
<feColorMatrix in="SourceAlpha" type="matrix" values="0 0 0 0 0 0 0 0 0 0 0 0 0 0 0 0 0 0 127 0" result="hardAlpha"/>
<feOffset dy="10.9744"/>
<feGaussianBlur stdDeviation="32.9231"/>
<feComposite in2="hardAlpha" operator="out"/>
<feColorMatrix type="matrix" values="0 0 0 0 0 0 0 0 0 0 0 0 0 0 0 0 0 0 0.5 0"/>
<feBlend mode="overlay" in2="BackgroundImageFix" result="effect1_dropShadow_981_1327"/>
<feBlend mode="normal" in="SourceGraphic" in2="effect1_dropShadow_981_1327" result="shape"/>
</filter>
<filter id="filter6_d_981_1327" x="189.814" y="2.13895" width="144.964" height="149.251" filterUnits="userSpaceOnUse" color-interpolation-filters="sRGB">
<feFlood flood-opacity="0" result="BackgroundImageFix"/>
<feColorMatrix in="SourceAlpha" type="matrix" values="0 0 0 0 0 0 0 0 0 0 0 0 0 0 0 0 0 0 127 0" result="hardAlpha"/>
<feOffset dy="10.9744"/>
<feGaussianBlur stdDeviation="32.9231"/>
<feComposite in2="hardAlpha" operator="out"/>
<feColorMatrix type="matrix" values="0 0 0 0 0 0 0 0 0 0 0 0 0 0 0 0 0 0 0.5 0"/>
<feBlend mode="overlay" in2="BackgroundImageFix" result="effect1_dropShadow_981_1327"/>
<feBlend mode="normal" in="SourceGraphic" in2="effect1_dropShadow_981_1327" result="shape"/>
</filter>
<filter id="filter7_d_981_1327" x="174.654" y="6.3577" width="144.655" height="145.273" filterUnits="userSpaceOnUse" color-interpolation-filters="sRGB">
<feFlood flood-opacity="0" result="BackgroundImageFix"/>
<feColorMatrix in="SourceAlpha" type="matrix" values="0 0 0 0 0 0 0 0 0 0 0 0 0 0 0 0 0 0 127 0" result="hardAlpha"/>
<feOffset dy="10.9744"/>
<feGaussianBlur stdDeviation="32.9231"/>
<feComposite in2="hardAlpha" operator="out"/>
<feColorMatrix type="matrix" values="0 0 0 0 0 0 0 0 0 0 0 0 0 0 0 0 0 0 0.5 0"/>
<feBlend mode="overlay" in2="BackgroundImageFix" result="effect1_dropShadow_981_1327"/>
<feBlend mode="normal" in="SourceGraphic" in2="effect1_dropShadow_981_1327" result="shape"/>
</filter>
<filter id="filter8_d_981_1327" x="167.709" y="0.836213" width="136.425" height="150.555" filterUnits="userSpaceOnUse" color-interpolation-filters="sRGB">
<feFlood flood-opacity="0" result="BackgroundImageFix"/>
<feColorMatrix in="SourceAlpha" type="matrix" values="0 0 0 0 0 0 0 0 0 0 0 0 0 0 0 0 0 0 127 0" result="hardAlpha"/>
<feOffset dy="10.9744"/>
<feGaussianBlur stdDeviation="32.9231"/>
<feComposite in2="hardAlpha" operator="out"/>
<feColorMatrix type="matrix" values="0 0 0 0 0 0 0 0 0 0 0 0 0 0 0 0 0 0 0.5 0"/>
<feBlend mode="overlay" in2="BackgroundImageFix" result="effect1_dropShadow_981_1327"/>
<feBlend mode="normal" in="SourceGraphic" in2="effect1_dropShadow_981_1327" result="shape"/>
</filter>
<filter id="filter9_d_981_1327" x="152.681" y="2.13895" width="145.239" height="149.251" filterUnits="userSpaceOnUse" color-interpolation-filters="sRGB">
<feFlood flood-opacity="0" result="BackgroundImageFix"/>
<feColorMatrix in="SourceAlpha" type="matrix" values="0 0 0 0 0 0 0 0 0 0 0 0 0 0 0 0 0 0 127 0" result="hardAlpha"/>
<feOffset dy="10.9744"/>
<feGaussianBlur stdDeviation="32.9231"/>
<feComposite in2="hardAlpha" operator="out"/>
<feColorMatrix type="matrix" values="0 0 0 0 0 0 0 0 0 0 0 0 0 0 0 0 0 0 0.5 0"/>
<feBlend mode="overlay" in2="BackgroundImageFix" result="effect1_dropShadow_981_1327"/>
<feBlend mode="normal" in="SourceGraphic" in2="effect1_dropShadow_981_1327" result="shape"/>
</filter>
<filter id="filter10_d_981_1327" x="137.175" y="6.3577" width="144.862" height="145.273" filterUnits="userSpaceOnUse" color-interpolation-filters="sRGB">
<feFlood flood-opacity="0" result="BackgroundImageFix"/>
<feColorMatrix in="SourceAlpha" type="matrix" values="0 0 0 0 0 0 0 0 0 0 0 0 0 0 0 0 0 0 127 0" result="hardAlpha"/>
<feOffset dy="10.9744"/>
<feGaussianBlur stdDeviation="32.9231"/>
<feComposite in2="hardAlpha" operator="out"/>
<feColorMatrix type="matrix" values="0 0 0 0 0 0 0 0 0 0 0 0 0 0 0 0 0 0 0.5 0"/>
<feBlend mode="overlay" in2="BackgroundImageFix" result="effect1_dropShadow_981_1327"/>
<feBlend mode="normal" in="SourceGraphic" in2="effect1_dropShadow_981_1327" result="shape"/>
</filter>
<filter id="filter11_d_981_1327" x="122.39" y="6.3577" width="144.313" height="145.239" filterUnits="userSpaceOnUse" color-interpolation-filters="sRGB">
<feFlood flood-opacity="0" result="BackgroundImageFix"/>
<feColorMatrix in="SourceAlpha" type="matrix" values="0 0 0 0 0 0 0 0 0 0 0 0 0 0 0 0 0 0 127 0" result="hardAlpha"/>
<feOffset dy="10.9744"/>
<feGaussianBlur stdDeviation="32.9231"/>
<feComposite in2="hardAlpha" operator="out"/>
<feColorMatrix type="matrix" values="0 0 0 0 0 0 0 0 0 0 0 0 0 0 0 0 0 0 0.5 0"/>
<feBlend mode="overlay" in2="BackgroundImageFix" result="effect1_dropShadow_981_1327"/>
<feBlend mode="normal" in="SourceGraphic" in2="effect1_dropShadow_981_1327" result="shape"/>
</filter>
<filter id="filter12_d_981_1327" x="107.015" y="6.3577" width="144.964" height="145.033" filterUnits="userSpaceOnUse" color-interpolation-filters="sRGB">
<feFlood flood-opacity="0" result="BackgroundImageFix"/>
<feColorMatrix in="SourceAlpha" type="matrix" values="0 0 0 0 0 0 0 0 0 0 0 0 0 0 0 0 0 0 127 0" result="hardAlpha"/>
<feOffset dy="10.9744"/>
<feGaussianBlur stdDeviation="32.9231"/>
<feComposite in2="hardAlpha" operator="out"/>
<feColorMatrix type="matrix" values="0 0 0 0 0 0 0 0 0 0 0 0 0 0 0 0 0 0 0.5 0"/>
<feBlend mode="overlay" in2="BackgroundImageFix" result="effect1_dropShadow_981_1327"/>
<feBlend mode="normal" in="SourceGraphic" in2="effect1_dropShadow_981_1327" result="shape"/>
</filter>
<filter id="filter13_d_981_1327" x="90.0367" y="1.89969" width="146.405" height="149.697" filterUnits="userSpaceOnUse" color-interpolation-filters="sRGB">
<feFlood flood-opacity="0" result="BackgroundImageFix"/>
<feColorMatrix in="SourceAlpha" type="matrix" values="0 0 0 0 0 0 0 0 0 0 0 0 0 0 0 0 0 0 127 0" result="hardAlpha"/>
<feOffset dy="10.9744"/>
<feGaussianBlur stdDeviation="32.9231"/>
<feComposite in2="hardAlpha" operator="out"/>
<feColorMatrix type="matrix" values="0 0 0 0 0 0 0 0 0 0 0 0 0 0 0 0 0 0 0.5 0"/>
<feBlend mode="overlay" in2="BackgroundImageFix" result="effect1_dropShadow_981_1327"/>
<feBlend mode="normal" in="SourceGraphic" in2="effect1_dropShadow_981_1327" result="shape"/>
</filter>
<filter id="filter14_d_981_1327" x="68.8824" y="6.3577" width="145.376" height="150.246" filterUnits="userSpaceOnUse" color-interpolation-filters="sRGB">
<feFlood flood-opacity="0" result="BackgroundImageFix"/>
<feColorMatrix in="SourceAlpha" type="matrix" values="0 0 0 0 0 0 0 0 0 0 0 0 0 0 0 0 0 0 127 0" result="hardAlpha"/>
<feOffset dy="10.9744"/>
<feGaussianBlur stdDeviation="32.9231"/>
<feComposite in2="hardAlpha" operator="out"/>
<feColorMatrix type="matrix" values="0 0 0 0 0 0 0 0 0 0 0 0 0 0 0 0 0 0 0.5 0"/>
<feBlend mode="overlay" in2="BackgroundImageFix" result="effect1_dropShadow_981_1327"/>
<feBlend mode="normal" in="SourceGraphic" in2="effect1_dropShadow_981_1327" result="shape"/>
</filter>
<filter id="filter15_d_981_1327" x="53.3003" y="6.3577" width="144.964" height="145.033" filterUnits="userSpaceOnUse" color-interpolation-filters="sRGB">
<feFlood flood-opacity="0" result="BackgroundImageFix"/>
<feColorMatrix in="SourceAlpha" type="matrix" values="0 0 0 0 0 0 0 0 0 0 0 0 0 0 0 0 0 0 127 0" result="hardAlpha"/>
<feOffset dy="10.9744"/>
<feGaussianBlur stdDeviation="32.9231"/>
<feComposite in2="hardAlpha" operator="out"/>
<feColorMatrix type="matrix" values="0 0 0 0 0 0 0 0 0 0 0 0 0 0 0 0 0 0 0.5 0"/>
<feBlend mode="overlay" in2="BackgroundImageFix" result="effect1_dropShadow_981_1327"/>
<feBlend mode="normal" in="SourceGraphic" in2="effect1_dropShadow_981_1327" result="shape"/>
</filter>
<filter id="filter16_d_981_1327" x="45.773" y="0.836213" width="136.425" height="150.555" filterUnits="userSpaceOnUse" color-interpolation-filters="sRGB">
<feFlood flood-opacity="0" result="BackgroundImageFix"/>
<feColorMatrix in="SourceAlpha" type="matrix" values="0 0 0 0 0 0 0 0 0 0 0 0 0 0 0 0 0 0 127 0" result="hardAlpha"/>
<feOffset dy="10.9744"/>
<feGaussianBlur stdDeviation="32.9231"/>
<feComposite in2="hardAlpha" operator="out"/>
<feColorMatrix type="matrix" values="0 0 0 0 0 0 0 0 0 0 0 0 0 0 0 0 0 0 0.5 0"/>
<feBlend mode="overlay" in2="BackgroundImageFix" result="effect1_dropShadow_981_1327"/>
<feBlend mode="normal" in="SourceGraphic" in2="effect1_dropShadow_981_1327" result="shape"/>
</filter>
<filter id="filter17_d_981_1327" x="38.2456" y="2.13895" width="136.425" height="149.251" filterUnits="userSpaceOnUse" color-interpolation-filters="sRGB">
<feFlood flood-opacity="0" result="BackgroundImageFix"/>
<feColorMatrix in="SourceAlpha" type="matrix" values="0 0 0 0 0 0 0 0 0 0 0 0 0 0 0 0 0 0 127 0" result="hardAlpha"/>
<feOffset dy="10.9744"/>
<feGaussianBlur stdDeviation="32.9231"/>
<feComposite in2="hardAlpha" operator="out"/>
<feColorMatrix type="matrix" values="0 0 0 0 0 0 0 0 0 0 0 0 0 0 0 0 0 0 0.5 0"/>
<feBlend mode="overlay" in2="BackgroundImageFix" result="effect1_dropShadow_981_1327"/>
<feBlend mode="normal" in="SourceGraphic" in2="effect1_dropShadow_981_1327" result="shape"/>
</filter>
<filter id="filter18_d_981_1327" x="22.691" y="6.3577" width="144.931" height="145.273" filterUnits="userSpaceOnUse" color-interpolation-filters="sRGB">
<feFlood flood-opacity="0" result="BackgroundImageFix"/>
<feColorMatrix in="SourceAlpha" type="matrix" values="0 0 0 0 0 0 0 0 0 0 0 0 0 0 0 0 0 0 127 0" result="hardAlpha"/>
<feOffset dy="10.9744"/>
<feGaussianBlur stdDeviation="32.9231"/>
<feComposite in2="hardAlpha" operator="out"/>
<feColorMatrix type="matrix" values="0 0 0 0 0 0 0 0 0 0 0 0 0 0 0 0 0 0 0.5 0"/>
<feBlend mode="overlay" in2="BackgroundImageFix" result="effect1_dropShadow_981_1327"/>
<feBlend mode="normal" in="SourceGraphic" in2="effect1_dropShadow_981_1327" result="shape"/>
</filter>
<filter id="filter19_d_981_1327" x="7.61869" y="6.3577" width="144.931" height="145.273" filterUnits="userSpaceOnUse" color-interpolation-filters="sRGB">
<feFlood flood-opacity="0" result="BackgroundImageFix"/>
<feColorMatrix in="SourceAlpha" type="matrix" values="0 0 0 0 0 0 0 0 0 0 0 0 0 0 0 0 0 0 127 0" result="hardAlpha"/>
<feOffset dy="10.9744"/>
<feGaussianBlur stdDeviation="32.9231"/>
<feComposite in2="hardAlpha" operator="out"/>
<feColorMatrix type="matrix" values="0 0 0 0 0 0 0 0 0 0 0 0 0 0 0 0 0 0 0.5 0"/>
<feBlend mode="overlay" in2="BackgroundImageFix" result="effect1_dropShadow_981_1327"/>
<feBlend mode="normal" in="SourceGraphic" in2="effect1_dropShadow_981_1327" result="shape"/>
</filter>
<filter id="filter20_d_981_1327" x="-5.48678" y="2.13895" width="144.038" height="149.251" filterUnits="userSpaceOnUse" color-interpolation-filters="sRGB">
<feFlood flood-opacity="0" result="BackgroundImageFix"/>
<feColorMatrix in="SourceAlpha" type="matrix" values="0 0 0 0 0 0 0 0 0 0 0 0 0 0 0 0 0 0 127 0" result="hardAlpha"/>
<feOffset dy="10.9744"/>
<feGaussianBlur stdDeviation="32.9231"/>
<feComposite in2="hardAlpha" operator="out"/>
<feColorMatrix type="matrix" values="0 0 0 0 0 0 0 0 0 0 0 0 0 0 0 0 0 0 0.5 0"/>
<feBlend mode="overlay" in2="BackgroundImageFix" result="effect1_dropShadow_981_1327"/>
<feBlend mode="normal" in="SourceGraphic" in2="effect1_dropShadow_981_1327" result="shape"/>
</filter>
</defs>
</svg>
