<svg width="12" height="12" viewBox="0 0 12 12" fill="none" xmlns="http://www.w3.org/2000/svg">
<path d="M5.48047 0.748047C5.66074 0.39887 6.17431 0.398781 6.35449 0.748047L6.3877 0.828125L7.47656 4.17969H11.001C11.4498 4.17982 11.653 4.71841 11.3574 5.01758L11.291 5.07324L8.43945 7.14453L9.5293 10.4971L9.54883 10.5811C9.6082 10.9693 9.19371 11.2707 8.84277 11.0947L8.76855 11.0498L5.91699 8.97754L3.06641 11.0498C2.67904 11.3312 2.1577 10.9524 2.30566 10.4971L3.39453 7.14453L0.542969 5.07324C0.15616 4.79167 0.355344 4.17969 0.833984 4.17969H4.3584L5.44727 0.828125L5.48047 0.748047Z" stroke="white" stroke-width="0.532292"/>
</svg>
