<svg width="73" height="13" viewBox="0 0 73 13" fill="none" xmlns="http://www.w3.org/2000/svg">
<path d="M5.64648 0.748047C5.82675 0.39887 6.34032 0.398781 6.52051 0.748047L6.55371 0.828125L7.64258 4.17969H11.167C11.6457 4.17983 11.8444 4.79184 11.457 5.07324L8.60547 7.14453L9.69531 10.4971L9.71484 10.5811C9.77421 10.9693 9.35973 11.2707 9.00879 11.0947L8.93457 11.0498L6.08301 8.97754L3.23242 11.0498C2.84506 11.3312 2.32372 10.9524 2.47168 10.4971L3.56055 7.14453L0.708984 5.07324C0.322175 4.79167 0.52136 4.17969 1 4.17969H4.52441L5.61328 0.828125L5.64648 0.748047Z" fill="#D9D9D9" stroke="white" stroke-width="0.532292"/>
<path d="M20.8555 0.748047C21.0357 0.39887 21.5493 0.398781 21.7295 0.748047L21.7627 0.828125L22.8516 4.17969H26.376C26.8248 4.17982 27.028 4.71841 26.7324 5.01758L26.666 5.07324L23.8145 7.14453L24.9043 10.4971L24.9238 10.5811C24.9832 10.9693 24.5687 11.2707 24.2178 11.0947L24.1436 11.0498L21.292 8.97754L18.4414 11.0498C18.054 11.3312 17.5327 10.9524 17.6807 10.4971L18.7695 7.14453L15.918 5.07324C15.5312 4.79167 15.7303 4.17969 16.209 4.17969H19.7334L20.8223 0.828125L20.8555 0.748047Z" fill="#D9D9D9" stroke="white" stroke-width="0.532292"/>
<path d="M36.0625 0.748047C36.2428 0.39887 36.7563 0.398781 36.9365 0.748047L36.9697 0.828125L38.0586 4.17969H41.583C42.0318 4.17982 42.235 4.71841 41.9395 5.01758L41.873 5.07324L39.0215 7.14453L40.1113 10.4971L40.1309 10.5811C40.1902 10.9693 39.7757 11.2707 39.4248 11.0947L39.3506 11.0498L36.499 8.97754L33.6484 11.0498C33.2611 11.3312 32.7397 10.9524 32.8877 10.4971L33.9766 7.14453L31.125 5.07324C30.7382 4.79167 30.9374 4.17969 31.416 4.17969H34.9404L36.0293 0.828125L36.0625 0.748047Z" fill="#D9D9D9" stroke="white" stroke-width="0.532292"/>
<path d="M51.2715 0.748047C51.4518 0.39887 51.9653 0.398781 52.1455 0.748047L52.1787 0.828125L53.2676 4.17969H56.792C57.2408 4.17982 57.444 4.71841 57.1484 5.01758L57.082 5.07324L54.2305 7.14453L55.3203 10.4971L55.3398 10.5811C55.3992 10.9693 54.9847 11.2707 54.6338 11.0947L54.5596 11.0498L51.708 8.97754L48.8574 11.0498C48.4701 11.3312 47.9487 10.9524 48.0967 10.4971L49.1855 7.14453L46.334 5.07324C45.9472 4.79167 46.1464 4.17969 46.625 4.17969H50.1494L51.2383 0.828125L51.2715 0.748047Z" fill="#D9D9D9" stroke="white" stroke-width="0.532292"/>
<path d="M66.4805 0.748047C66.6607 0.39887 67.1743 0.398781 67.3545 0.748047L67.3877 0.828125L68.4766 4.17969H72.001C72.4498 4.17982 72.653 4.71841 72.3574 5.01758L72.291 5.07324L69.4395 7.14453L70.5293 10.4971L70.5488 10.5811C70.6082 10.9693 70.1937 11.2707 69.8428 11.0947L69.7686 11.0498L66.917 8.97754L64.0664 11.0498C63.679 11.3312 63.1577 10.9524 63.3057 10.4971L64.3945 7.14453L61.543 5.07324C61.1562 4.79167 61.3553 4.17969 61.834 4.17969H65.3584L66.4473 0.828125L66.4805 0.748047Z" stroke="white" stroke-width="0.532292"/>
</svg>
