<svg width="12" height="12" viewBox="0 0 12 12" fill="none" xmlns="http://www.w3.org/2000/svg">
<path d="M5.64648 0.748047C5.82675 0.39887 6.34032 0.398781 6.52051 0.748047L6.55371 0.828125L7.64258 4.17969H11.167C11.6457 4.17983 11.8444 4.79184 11.457 5.07324L8.60547 7.14453L9.69531 10.4971L9.71484 10.5811C9.77421 10.9693 9.35973 11.2707 9.00879 11.0947L8.93457 11.0498L6.08301 8.97754L3.23242 11.0498C2.84506 11.3312 2.32372 10.9524 2.47168 10.4971L3.56055 7.14453L0.708984 5.07324C0.322175 4.79167 0.52136 4.17969 1 4.17969H4.52441L5.61328 0.828125L5.64648 0.748047Z" fill="#D9D9D9" stroke="white" stroke-width="0.532292"/>
</svg>
