<svg width="428" height="464" viewBox="0 0 428 464" fill="none" xmlns="http://www.w3.org/2000/svg">
<g style="mix-blend-mode:overlay" filter="url(#filter0_d_972_4920)">
<mask id="path-1-outside-1_972_4920" maskUnits="userSpaceOnUse" x="-9.94531" y="89.4775" width="971" height="107" fill="black">
<rect fill="white" x="-9.94531" y="89.4775" width="971" height="107"/>
<path d="M50.2823 120.93C49.839 116.782 47.9704 113.551 44.6766 111.239C41.4145 108.927 37.1706 107.771 31.9449 107.771C28.271 107.771 25.1198 108.325 22.4911 109.434C19.8624 110.542 17.8513 112.047 16.4578 113.947C15.0642 115.847 14.3516 118.017 14.32 120.455C14.32 122.482 14.7792 124.24 15.6977 125.729C16.6478 127.217 17.9305 128.484 19.5457 129.529C21.1609 130.543 22.9503 131.398 24.9139 132.094C26.8775 132.791 28.8569 133.377 30.8522 133.852L39.9734 136.133C43.6473 136.988 47.1786 138.144 50.5674 139.6C53.9878 141.057 57.0441 142.894 59.7361 145.111C62.4598 147.328 64.6135 150.004 66.197 153.14C67.7806 156.275 68.5723 159.949 68.5723 164.161C68.5723 169.862 67.1155 174.882 64.2017 179.221C61.288 183.528 57.0758 186.901 51.565 189.34C46.0859 191.747 39.4509 192.95 31.6598 192.95C24.0905 192.95 17.5187 191.778 11.9446 189.435C6.40223 187.091 2.06331 183.671 -1.07212 179.173C-4.17587 174.676 -5.85444 169.197 -6.1078 162.736H11.232C11.4854 166.125 12.5306 168.944 14.3675 171.192C16.2044 173.441 18.5955 175.119 21.5409 176.228C24.518 177.336 27.8435 177.891 31.5173 177.891C35.3495 177.891 38.7066 177.321 41.5887 176.18C44.5024 175.009 46.7827 173.393 48.4296 171.335C50.0765 169.245 50.9158 166.806 50.9474 164.019C50.9158 161.485 50.1715 159.395 48.7146 157.748C47.2578 156.069 45.215 154.676 42.5863 153.567C39.9893 152.427 36.9489 151.414 33.4651 150.527L22.3961 147.677C14.3833 145.618 8.04912 142.498 3.39349 138.318C-1.23048 134.106 -3.54246 128.516 -3.54246 121.548C-3.54246 115.816 -1.99058 110.796 1.11318 106.489C4.2486 102.181 8.50835 98.84 13.8924 96.4646C19.2765 94.0576 25.3731 92.8542 32.1824 92.8542C39.0867 92.8542 45.1358 94.0576 50.3299 96.4646C55.5556 98.84 59.657 102.15 62.634 106.393C65.6111 110.606 67.1471 115.451 67.2421 120.93H50.2823ZM164.238 94.1843V191.478H148.561L102.718 125.206H101.91V191.478H84.2851V94.1843H100.057L145.853 160.503H146.709V94.1843H164.238ZM195.937 191.478H177.125L211.377 94.1843H233.135L267.434 191.478H248.622L222.636 114.137H221.876L195.937 191.478ZM196.555 153.33H247.862V167.487H196.555V153.33ZM358.955 127.011H341.188C340.681 124.098 339.747 121.516 338.385 119.268C337.023 116.987 335.329 115.055 333.302 113.472C331.275 111.888 328.963 110.701 326.366 109.909C323.801 109.086 321.03 108.674 318.052 108.674C312.763 108.674 308.076 110.004 303.991 112.664C299.905 115.293 296.706 119.157 294.394 124.256C292.082 129.323 290.926 135.515 290.926 142.831C290.926 150.274 292.082 156.544 294.394 161.643C296.738 166.711 299.937 170.543 303.991 173.14C308.076 175.705 312.748 176.988 318.005 176.988C320.919 176.988 323.642 176.608 326.176 175.848C328.741 175.056 331.038 173.9 333.064 172.38C335.123 170.86 336.849 168.991 338.243 166.774C339.668 164.557 340.65 162.024 341.188 159.173L358.955 159.268C358.29 163.892 356.849 168.231 354.632 172.285C352.447 176.339 349.581 179.918 346.034 183.021C342.487 186.093 338.338 188.5 333.587 190.242C328.836 191.953 323.563 192.808 317.767 192.808C309.216 192.808 301.584 190.828 294.869 186.869C288.155 182.911 282.866 177.194 279.002 169.72C275.138 162.245 273.206 153.282 273.206 142.831C273.206 132.348 275.154 123.385 279.05 115.942C282.945 108.468 288.25 102.751 294.964 98.7925C301.679 94.8336 309.28 92.8542 317.767 92.8542C323.183 92.8542 328.219 93.6143 332.874 95.1345C337.53 96.6547 341.679 98.8875 345.321 101.833C348.963 104.747 351.956 108.325 354.3 112.569C356.675 116.782 358.227 121.596 358.955 127.011ZM375.096 191.478V94.1843H392.721V138.888H393.908L431.866 94.1843H453.386L415.761 137.843L453.719 191.478H432.531L403.505 149.767L392.721 162.499V191.478H375.096ZM551.689 120.93C551.246 116.782 549.377 113.551 546.083 111.239C542.821 108.927 538.577 107.771 533.352 107.771C529.678 107.771 526.527 108.325 523.898 109.434C521.269 110.542 519.258 112.047 517.865 113.947C516.471 115.847 515.758 118.017 515.727 120.455C515.727 122.482 516.186 124.24 517.104 125.729C518.055 127.217 519.337 128.484 520.952 129.529C522.568 130.543 524.357 131.398 526.321 132.094C528.284 132.791 530.264 133.377 532.259 133.852L541.38 136.133C545.054 136.988 548.585 138.144 551.974 139.6C555.395 141.057 558.451 142.894 561.143 145.111C563.867 147.328 566.02 150.004 567.604 153.14C569.187 156.275 569.979 159.949 569.979 164.161C569.979 169.862 568.522 174.882 565.609 179.221C562.695 183.528 558.483 186.901 552.972 189.34C547.493 191.747 540.858 192.95 533.067 192.95C525.497 192.95 518.926 191.778 513.351 189.435C507.809 187.091 503.47 183.671 500.335 179.173C497.231 174.676 495.552 169.197 495.299 162.736H512.639C512.892 166.125 513.937 168.944 515.774 171.192C517.611 173.441 520.002 175.119 522.948 176.228C525.925 177.336 529.25 177.891 532.924 177.891C536.756 177.891 540.113 177.321 542.995 176.18C545.909 175.009 548.189 173.393 549.836 171.335C551.483 169.245 552.323 166.806 552.354 164.019C552.323 161.485 551.578 159.395 550.121 157.748C548.665 156.069 546.622 154.676 543.993 153.567C541.396 152.427 538.356 151.414 534.872 150.527L523.803 147.677C515.79 145.618 509.456 142.498 504.8 138.318C500.176 134.106 497.864 128.516 497.864 121.548C497.864 115.816 499.416 110.796 502.52 106.489C505.655 102.181 509.915 98.84 515.299 96.4646C520.683 94.0576 526.78 92.8542 533.589 92.8542C540.493 92.8542 546.543 94.0576 551.737 96.4646C556.962 98.84 561.064 102.15 564.041 106.393C567.018 110.606 568.554 115.451 568.649 120.93H551.689ZM665.645 94.1843V191.478H649.968L604.124 125.206H603.317V191.478H585.692V94.1843H601.464L647.26 160.503H648.115V94.1843H665.645ZM697.344 191.478H678.531L712.784 94.1843H734.541L768.841 191.478H750.029L724.043 114.137H723.282L697.344 191.478ZM697.962 153.33H749.268V167.487H697.962V153.33ZM860.362 127.011H842.595C842.088 124.098 841.154 121.516 839.792 119.268C838.43 116.987 836.736 115.055 834.709 113.472C832.682 111.888 830.37 110.701 827.773 109.909C825.208 109.086 822.436 108.674 819.459 108.674C814.17 108.674 809.483 110.004 805.397 112.664C801.312 115.293 798.113 119.157 795.801 124.256C793.489 129.323 792.333 135.515 792.333 142.831C792.333 150.274 793.489 156.544 795.801 161.643C798.145 166.711 801.343 170.543 805.397 173.14C809.483 175.705 814.154 176.988 819.412 176.988C822.325 176.988 825.049 176.608 827.583 175.848C830.148 175.056 832.444 173.9 834.471 172.38C836.53 170.86 838.256 168.991 839.649 166.774C841.075 164.557 842.056 162.024 842.595 159.173L860.362 159.268C859.697 163.892 858.256 168.231 856.039 172.285C853.854 176.339 850.988 179.918 847.441 183.021C843.893 186.093 839.744 188.5 834.994 190.242C830.243 191.953 824.97 192.808 819.174 192.808C810.623 192.808 802.99 190.828 796.276 186.869C789.562 182.911 784.273 177.194 780.409 169.72C776.545 162.245 774.613 153.282 774.613 142.831C774.613 132.348 776.561 123.385 780.456 115.942C784.352 108.468 789.657 102.751 796.371 98.7925C803.085 94.8336 810.686 92.8542 819.174 92.8542C824.59 92.8542 829.626 93.6143 834.281 95.1345C838.937 96.6547 843.086 98.8875 846.728 101.833C850.37 104.747 853.363 108.325 855.707 112.569C858.082 116.782 859.634 121.596 860.362 127.011ZM876.503 191.478V94.1843H894.127V138.888H895.315L933.273 94.1843H954.793L917.168 137.843L955.126 191.478H933.938L904.911 149.767L894.127 162.499V191.478H876.503Z"/>
</mask>
<path d="M50.2823 120.93L47.5075 121.227L47.7741 123.721H50.2823V120.93ZM44.6766 111.239L43.0629 113.516L43.0733 113.523L44.6766 111.239ZM22.4911 109.434L23.5754 112.005L23.5754 112.005L22.4911 109.434ZM16.4578 113.947L14.2074 112.297L14.2074 112.297L16.4578 113.947ZM14.32 120.455L11.5296 120.419L11.5294 120.437V120.455H14.32ZM15.6977 125.729L13.3227 127.194L13.3339 127.212L13.3454 127.23L15.6977 125.729ZM19.5457 129.529L18.0297 131.872L18.046 131.883L18.0625 131.893L19.5457 129.529ZM24.9139 132.094L23.9807 134.724H23.9807L24.9139 132.094ZM30.8522 133.852L31.529 131.145L31.5138 131.141L31.4986 131.137L30.8522 133.852ZM39.9734 136.133L39.2966 138.84L39.3187 138.845L39.3408 138.85L39.9734 136.133ZM50.5674 139.6L49.4652 142.164L49.4738 142.168L50.5674 139.6ZM59.7361 145.111L57.9621 147.265L57.9683 147.271L57.9745 147.276L59.7361 145.111ZM64.2017 179.221L66.5132 180.784L66.5185 180.777L64.2017 179.221ZM51.565 189.34L52.6874 191.895L52.6943 191.892L51.565 189.34ZM11.9446 189.435L10.8578 192.005L10.863 192.007L11.9446 189.435ZM-1.07212 179.173L-3.3689 180.758L-3.36131 180.769L-1.07212 179.173ZM-6.1078 162.736V159.946H-9.01001L-8.89628 162.845L-6.1078 162.736ZM11.232 162.736L14.0149 162.528L13.8218 159.946H11.232V162.736ZM14.3675 171.192L16.5287 169.427L14.3675 171.192ZM21.5409 176.228L20.558 178.84L20.5672 178.843L21.5409 176.228ZM41.5887 176.18L42.6152 178.775L42.6226 178.772L42.6299 178.77L41.5887 176.18ZM48.4296 171.335L50.6087 173.078L50.6152 173.07L50.6216 173.062L48.4296 171.335ZM50.9474 164.019L53.7379 164.051L53.7383 164.017L53.7378 163.984L50.9474 164.019ZM48.7146 157.748L46.6071 159.577L46.6157 159.587L46.6245 159.597L48.7146 157.748ZM42.5863 153.567L41.4645 156.123L41.4832 156.131L41.502 156.139L42.5863 153.567ZM33.4651 150.527L32.7691 153.229L32.7767 153.231L33.4651 150.527ZM22.3961 147.677L23.092 144.974L23.0905 144.974L22.3961 147.677ZM3.39349 138.318L1.5142 140.381L1.52158 140.388L1.529 140.394L3.39349 138.318ZM1.11317 106.489L-1.14301 104.846L-1.15088 104.857L1.11317 106.489ZM13.8924 96.4646L15.0188 99.0179L15.0313 99.0123L13.8924 96.4646ZM50.3299 96.4646L49.1565 98.9966L49.1658 99.0009L49.1751 99.0051L50.3299 96.4646ZM62.634 106.393L60.3494 107.996L60.3551 108.004L62.634 106.393ZM67.2421 120.93V123.721H70.0816L70.0323 120.882L67.2421 120.93ZM53.0572 120.634C52.5318 115.718 50.2598 111.749 46.2799 108.955L43.0733 113.523C45.681 115.354 47.1461 117.845 47.5075 121.227L53.0572 120.634ZM46.2902 108.962C42.4305 106.227 37.5724 104.981 31.9449 104.981V110.562C36.7688 110.562 40.3984 111.627 43.0629 113.516L46.2902 108.962ZM31.9449 104.981C28.0012 104.981 24.462 105.574 21.4068 106.863L23.5754 112.005C25.7775 111.077 28.5409 110.562 31.9449 110.562V104.981ZM21.4068 106.863C18.4113 108.126 15.9564 109.912 14.2074 112.297L18.7081 115.597C19.7462 114.182 21.3134 112.959 23.5754 112.005L21.4068 106.863ZM14.2074 112.297C12.4576 114.683 11.5685 117.421 11.5296 120.419L17.1104 120.492C17.1348 118.612 17.6709 117.012 18.7081 115.597L14.2074 112.297ZM11.5294 120.455C11.5294 122.916 12.0917 125.199 13.3227 127.194L18.0726 124.263C17.4667 123.281 17.1106 122.048 17.1106 120.455H11.5294ZM13.3454 127.23C14.5294 129.085 16.109 130.629 18.0297 131.872L21.0617 127.186C19.7519 126.339 18.7662 125.349 18.0499 124.227L13.3454 127.23ZM18.0625 131.893C19.8659 133.024 21.8422 133.966 23.9807 134.724L25.8471 129.465C24.0584 128.83 22.4559 128.061 21.0289 127.165L18.0625 131.893ZM23.9807 134.724C26.0368 135.454 28.112 136.068 30.2058 136.567L31.4986 131.137C29.6019 130.686 27.7182 130.128 25.8471 129.465L23.9807 134.724ZM30.1754 136.56L39.2966 138.84L40.6503 133.425L31.529 131.145L30.1754 136.56ZM39.3408 138.85C42.8575 139.669 46.2315 140.774 49.4652 142.164L51.6696 137.037C48.1257 135.513 44.437 134.306 40.6061 133.415L39.3408 138.85ZM49.4738 142.168C52.6651 143.527 55.4892 145.229 57.9621 147.265L61.5101 142.957C58.5991 140.56 55.3106 138.588 51.6609 137.033L49.4738 142.168ZM57.9745 147.276C60.3941 149.245 62.2992 151.612 63.7061 154.398L68.688 151.882C66.9277 148.396 64.5256 145.411 61.4978 142.947L57.9745 147.276ZM63.7061 154.398C65.0571 157.073 65.7817 160.3 65.7817 164.161H71.3629C71.3629 159.598 70.504 155.478 68.688 151.882L63.7061 154.398ZM65.7817 164.161C65.7817 169.361 64.4618 173.828 61.885 177.665L66.5185 180.777C69.7692 175.936 71.3629 170.364 71.3629 164.161H65.7817ZM61.8903 177.657C59.3142 181.465 55.545 184.527 50.4357 186.788L52.6943 191.892C58.6065 189.275 63.2618 185.591 66.5132 180.784L61.8903 177.657ZM50.4426 186.785C45.4069 188.997 39.176 190.16 31.6598 190.16V195.741C39.7258 195.741 46.765 194.496 52.6874 191.895L50.4426 186.785ZM31.6598 190.16C24.3716 190.16 18.1834 189.031 13.0263 186.862L10.863 192.007C16.854 194.526 23.8094 195.741 31.6598 195.741V190.16ZM13.0315 186.864C7.92468 184.705 4.02253 181.601 1.21707 177.577L-3.36131 180.769C0.10408 185.74 4.87977 189.477 10.8578 192.005L13.0315 186.864ZM1.22463 177.588C-1.52731 173.601 -3.08283 168.657 -3.31932 162.627L-8.89628 162.845C-8.62604 169.737 -6.82444 175.751 -3.36887 180.758L1.22463 177.588ZM-6.1078 165.527H11.232V159.946H-6.1078V165.527ZM8.4492 162.944C8.73775 166.804 9.94878 170.194 12.2063 172.958L16.5287 169.427C15.1123 167.693 14.2331 165.446 14.0149 162.528L8.4492 162.944ZM12.2063 172.958C14.3804 175.619 17.192 177.573 20.558 178.84L22.5239 173.616C19.9991 172.666 18.0284 171.263 16.5287 169.427L12.2063 172.958ZM20.5672 178.843C23.9004 180.084 27.5622 180.681 31.5173 180.681V175.1C28.1247 175.1 25.1356 174.589 22.5147 173.613L20.5672 178.843ZM31.5173 180.681C35.6206 180.681 39.3392 180.071 42.6152 178.775L40.5621 173.586C38.0741 174.57 35.0784 175.1 31.5173 175.1V180.681ZM42.6299 178.77C45.9041 177.453 48.609 175.578 50.6087 173.078L46.2505 169.592C44.9564 171.209 43.1007 172.564 40.5474 173.591L42.6299 178.77ZM50.6216 173.062C52.6685 170.464 53.6996 167.422 53.7379 164.051L48.157 163.987C48.132 166.19 47.4845 168.025 46.2376 169.608L50.6216 173.062ZM53.7378 163.984C53.6992 160.889 52.7718 158.123 50.8048 155.899L46.6245 159.597C47.5712 160.667 48.1324 162.081 48.157 164.054L53.7378 163.984ZM50.8222 155.919C49.0177 153.84 46.5848 152.225 43.6706 150.996L41.502 156.139C43.8452 157.127 45.4978 158.299 46.6071 159.577L50.8222 155.919ZM43.7081 151.012C40.9397 149.797 37.7483 148.738 34.1535 147.823L32.7767 153.231C36.1494 154.09 39.0389 155.058 41.4645 156.123L43.7081 151.012ZM34.161 147.825L23.092 144.974L21.7002 150.379L32.7692 153.229L34.161 147.825ZM23.0905 144.974C15.3778 142.992 9.48959 140.041 5.25797 136.241L1.529 140.394C6.60864 144.955 13.3889 148.244 21.7017 150.379L23.0905 144.974ZM5.27277 136.255C1.29896 132.635 -0.751831 127.83 -0.751831 121.548H-6.33308C-6.33308 129.201 -3.75991 135.576 1.5142 140.381L5.27277 136.255ZM-0.751831 121.548C-0.751831 116.352 0.64357 111.914 3.37723 108.12L-1.15088 104.857C-4.62473 109.678 -6.33308 115.279 -6.33308 121.548H-0.751831ZM3.36933 108.131C6.1855 104.262 10.0367 101.216 15.0188 99.0178L12.766 93.9115C6.97996 96.4641 2.3117 100.1 -1.14298 104.846L3.36933 108.131ZM15.0313 99.0123C20.0058 96.7884 25.7053 95.6448 32.1824 95.6448V90.0635C25.0409 90.0635 18.5471 91.3269 12.7535 93.917L15.0313 99.0123ZM32.1824 95.6448C38.7635 95.6448 44.398 96.7914 49.1565 98.9966L51.5032 93.9327C45.8736 91.3239 39.4098 90.0635 32.1824 90.0635V95.6448ZM49.1751 99.0051C53.9972 101.197 57.6885 104.203 60.3495 107.996L64.9186 104.791C61.6254 100.096 57.1139 96.4829 51.4846 93.9242L49.1751 99.0051ZM60.3551 108.004C62.9881 111.73 64.366 116.023 64.452 120.979L70.0323 120.882C69.9283 114.88 68.2341 109.482 64.9129 104.783L60.3551 108.004ZM67.2421 118.14H50.2823V123.721H67.2421V118.14ZM164.238 94.1843H167.029V91.3937H164.238V94.1843ZM164.238 191.478V194.268H167.029V191.478H164.238ZM148.561 191.478L146.266 193.065L147.098 194.268H148.561V191.478ZM102.718 125.206L105.013 123.618L104.18 122.415H102.718V125.206ZM101.91 125.206V122.415H99.1194V125.206H101.91ZM101.91 191.478V194.268H104.701V191.478H101.91ZM84.2851 191.478H81.4945V194.268H84.2851V191.478ZM84.2851 94.1843V91.3937H81.4945V94.1843H84.2851ZM100.057 94.1843L102.354 92.5986L101.521 91.3937H100.057V94.1843ZM145.853 160.503L143.557 162.089L144.389 163.294H145.853V160.503ZM146.709 160.503V163.294H149.499V160.503H146.709ZM146.709 94.1843V91.3937H143.918V94.1843H146.709ZM161.448 94.1843V191.478H167.029V94.1843H161.448ZM164.238 188.687H148.561V194.268H164.238V188.687ZM150.856 189.89L105.013 123.618L100.423 126.794L146.266 193.065L150.856 189.89ZM102.718 122.415H101.91V127.997H102.718V122.415ZM99.1194 125.206V191.478H104.701V125.206H99.1194ZM101.91 188.687H84.2851V194.268H101.91V188.687ZM87.0757 191.478V94.1843H81.4945V191.478H87.0757ZM84.2851 96.975H100.057V91.3937H84.2851V96.975ZM97.7609 95.77L143.557 162.089L148.15 158.918L102.354 92.5986L97.7609 95.77ZM145.853 163.294H146.709V157.713H145.853V163.294ZM149.499 160.503V94.1843H143.918V160.503H149.499ZM146.709 96.975H164.238V91.3937H146.709V96.975ZM195.937 191.478V194.268H197.945L198.583 192.365L195.937 191.478ZM177.125 191.478L174.492 190.551L173.184 194.268H177.125V191.478ZM211.377 94.1843V91.3937H209.401L208.744 93.2576L211.377 94.1843ZM233.135 94.1843L235.767 93.2565L235.11 91.3937H233.135V94.1843ZM267.434 191.478V194.268H271.377L270.066 190.55L267.434 191.478ZM248.622 191.478L245.976 192.366L246.615 194.268H248.622V191.478ZM222.636 114.137L225.281 113.248L224.642 111.346H222.636V114.137ZM221.876 114.137V111.346H219.868L219.23 113.25L221.876 114.137ZM196.555 153.33V150.539H193.764V153.33H196.555ZM247.862 153.33H250.652V150.539H247.862V153.33ZM247.862 167.487V170.277H250.652V167.487H247.862ZM196.555 167.487H193.764V170.277H196.555V167.487ZM195.937 188.687H177.125V194.268H195.937V188.687ZM179.757 192.404L214.009 95.111L208.744 93.2576L174.492 190.551L179.757 192.404ZM211.377 96.975H233.135V91.3937H211.377V96.975ZM230.503 95.1122L264.802 192.405L270.066 190.55L235.767 93.2565L230.503 95.1122ZM267.434 188.687H248.622V194.268H267.434V188.687ZM251.267 190.589L225.281 113.248L219.99 115.026L245.976 192.366L251.267 190.589ZM222.636 111.346H221.876V116.928H222.636V111.346ZM219.23 113.25L193.291 190.59L198.583 192.365L224.521 115.024L219.23 113.25ZM196.555 156.12H247.862V150.539H196.555V156.12ZM245.071 153.33V167.487H250.652V153.33H245.071ZM247.862 164.696H196.555V170.277H247.862V164.696ZM199.345 167.487V153.33H193.764V167.487H199.345ZM358.955 127.011V129.802H362.147L361.721 126.639L358.955 127.011ZM341.188 127.011L338.439 127.489L338.841 129.802H341.188V127.011ZM338.385 119.268L335.989 120.699L335.994 120.706L335.998 120.713L338.385 119.268ZM333.302 113.472L335.02 111.273V111.273L333.302 113.472ZM326.366 109.909L325.513 112.566L325.533 112.572L325.552 112.578L326.366 109.909ZM303.991 112.664L305.5 115.011L305.507 115.007L305.513 115.003L303.991 112.664ZM294.394 124.256L296.933 125.414L296.936 125.408L294.394 124.256ZM294.394 161.643L291.853 162.796L291.857 162.805L291.861 162.815L294.394 161.643ZM303.991 173.14L302.485 175.49L302.496 175.497L302.507 175.503L303.991 173.14ZM326.176 175.848L326.978 178.521L326.988 178.518L326.999 178.514L326.176 175.848ZM333.064 172.38L331.407 170.135L331.398 170.141L331.39 170.147L333.064 172.38ZM338.243 166.774L335.895 165.265L335.888 165.277L335.88 165.289L338.243 166.774ZM341.188 159.173L341.203 156.383L338.878 156.37L338.446 158.655L341.188 159.173ZM358.955 159.268L361.718 159.665L362.174 156.495L358.97 156.478L358.955 159.268ZM354.632 172.285L352.184 170.946L352.18 170.953L352.176 170.961L354.632 172.285ZM346.034 183.021L347.861 185.131L347.866 185.126L347.871 185.122L346.034 183.021ZM333.587 190.242L334.532 192.868L334.54 192.865L334.548 192.862L333.587 190.242ZM294.869 186.869L296.287 184.466L294.869 186.869ZM279.002 169.72L276.523 171.001L279.002 169.72ZM279.05 115.942L281.522 117.236L281.524 117.232L279.05 115.942ZM294.964 98.7925L293.547 96.3886V96.3886L294.964 98.7925ZM332.874 95.1345L333.741 92.4817V92.4817L332.874 95.1345ZM345.321 101.833L343.566 104.003L343.572 104.007L343.578 104.012L345.321 101.833ZM354.3 112.569L351.857 113.918L351.863 113.929L351.869 113.94L354.3 112.569ZM358.955 124.221H341.188V129.802H358.955V124.221ZM343.937 126.533C343.379 123.32 342.335 120.403 340.772 117.822L335.998 120.713C337.159 122.63 337.984 124.875 338.439 127.489L343.937 126.533ZM340.781 117.837C339.248 115.271 337.327 113.075 335.02 111.273L331.584 115.671C333.331 117.036 334.798 118.704 335.989 120.699L340.781 117.837ZM335.02 111.273C332.708 109.467 330.086 108.126 327.18 107.24L325.552 112.578C327.84 113.276 329.842 114.31 331.584 115.671L335.02 111.273ZM327.219 107.252C324.351 106.331 321.289 105.883 318.052 105.883V111.464C320.77 111.464 323.251 111.84 325.513 112.566L327.219 107.252ZM318.052 105.883C312.271 105.883 307.045 107.345 302.468 110.326L305.513 115.003C309.107 112.663 313.256 111.464 318.052 111.464V105.883ZM302.481 110.318C297.878 113.279 294.352 117.592 291.853 123.104L296.936 125.408C299.061 120.722 301.932 117.307 305.5 115.011L302.481 110.318ZM291.855 123.098C289.334 128.624 288.136 135.235 288.136 142.831H293.717C293.717 135.795 294.83 130.023 296.933 125.414L291.855 123.098ZM288.136 142.831C288.136 150.547 289.332 157.236 291.853 162.796L296.936 160.491C294.833 155.852 293.717 150.001 293.717 142.831H288.136ZM291.861 162.815C294.392 168.286 297.916 172.563 302.485 175.49L305.496 170.79C301.958 168.524 299.084 165.135 296.927 160.472L291.861 162.815ZM302.507 175.503C307.076 178.373 312.271 179.779 318.005 179.779V174.197C313.224 174.197 309.076 173.038 305.474 170.777L302.507 175.503ZM318.005 179.779C321.163 179.779 324.159 179.366 326.978 178.521L325.374 173.175C323.126 173.85 320.674 174.197 318.005 174.197V179.779ZM326.999 178.514C329.853 177.634 332.44 176.336 334.739 174.612L331.39 170.147C329.635 171.464 327.63 172.479 325.353 173.181L326.999 178.514ZM334.722 174.625C337.068 172.893 339.031 170.764 340.605 168.259L335.88 165.289C334.668 167.218 333.178 168.827 331.407 170.135L334.722 174.625ZM340.59 168.283C342.228 165.735 343.332 162.859 343.93 159.691L338.446 158.655C337.967 161.188 337.108 163.379 335.895 165.265L340.59 168.283ZM341.173 161.964L358.941 162.059L358.97 156.478L341.203 156.383L341.173 161.964ZM356.193 158.871C355.575 163.168 354.239 167.188 352.184 170.946L357.081 173.624C359.46 169.274 361.006 164.616 361.718 159.665L356.193 158.871ZM352.176 170.961C350.153 174.714 347.498 178.032 344.196 180.921L347.871 185.122C351.664 181.803 354.742 177.963 357.089 173.609L352.176 170.961ZM344.207 180.912C340.934 183.746 337.085 185.988 332.626 187.622L334.548 192.862C339.591 191.013 344.039 188.441 347.861 185.131L344.207 180.912ZM332.642 187.617C328.236 189.203 323.288 190.017 317.767 190.017V195.598C323.838 195.598 329.437 194.702 334.532 192.868L332.642 187.617ZM317.767 190.017C309.665 190.017 302.53 188.147 296.287 184.466L293.452 189.273C300.637 193.51 308.768 195.598 317.767 195.598V190.017ZM296.287 184.466C290.061 180.795 285.124 175.484 281.481 168.438L276.523 171.001C280.608 178.903 286.249 185.026 293.452 189.273L296.287 184.466ZM281.481 168.438C277.866 161.444 275.997 152.942 275.997 142.831H270.416C270.416 153.622 272.411 163.046 276.523 171.001L281.481 168.438ZM275.997 142.831C275.997 132.689 277.881 124.193 281.522 117.236L276.577 114.648C272.427 122.577 270.416 132.007 270.416 142.831H275.997ZM281.524 117.232C285.199 110.182 290.154 104.868 296.382 101.196L293.547 96.3886C286.346 100.634 280.691 106.754 276.575 114.653L281.524 117.232ZM296.382 101.196C302.629 97.5129 309.732 95.6448 317.767 95.6448V90.0635C308.827 90.0635 300.728 92.1542 293.547 96.3886L296.382 101.196ZM317.767 95.6448C322.92 95.6448 327.66 96.3675 332.008 97.7872L333.741 92.4817C328.777 90.861 323.446 90.0635 317.767 90.0635V95.6448ZM332.008 97.7872C336.356 99.2068 340.2 101.281 343.566 104.003L347.076 99.663C343.158 96.4942 338.704 94.1025 333.741 92.4817L332.008 97.7872ZM343.578 104.012C346.923 106.688 349.683 109.981 351.857 113.918L356.743 111.22C354.23 106.669 351.003 102.805 347.064 99.6538L343.578 104.012ZM351.869 113.94C354.049 117.806 355.502 122.273 356.19 127.383L361.721 126.639C360.952 120.918 359.301 115.757 356.731 111.199L351.869 113.94ZM375.096 191.478H372.305V194.268H375.096V191.478ZM375.096 94.1843V91.3937H372.305V94.1843H375.096ZM392.721 94.1843H395.511V91.3937H392.721V94.1843ZM392.721 138.888H389.93V141.679H392.721V138.888ZM393.908 138.888V141.679H395.2L396.036 140.694L393.908 138.888ZM431.866 94.1843V91.3937H430.575L429.739 92.3781L431.866 94.1843ZM453.386 94.1843L455.5 96.0061L459.475 91.3937H453.386V94.1843ZM415.761 137.843L413.647 136.021L412.223 137.674L413.483 139.455L415.761 137.843ZM453.719 191.478V194.268H459.113L455.997 189.865L453.719 191.478ZM432.531 191.478L430.241 193.072L431.073 194.268H432.531V191.478ZM403.505 149.767L405.795 148.173L403.722 145.193L401.375 147.963L403.505 149.767ZM392.721 162.499L390.591 160.695L389.93 161.476V162.499H392.721ZM392.721 191.478V194.268H395.511V191.478H392.721ZM377.886 191.478V94.1843H372.305V191.478H377.886ZM375.096 96.975H392.721V91.3937H375.096V96.975ZM389.93 94.1843V138.888H395.511V94.1843H389.93ZM392.721 141.679H393.908V136.097H392.721V141.679ZM396.036 140.694L433.993 95.9906L429.739 92.3781L391.781 137.082L396.036 140.694ZM431.866 96.975H453.386V91.3937H431.866V96.975ZM451.272 92.3625L413.647 136.021L417.875 139.665L455.5 96.0061L451.272 92.3625ZM413.483 139.455L451.441 193.09L455.997 189.865L418.039 136.231L413.483 139.455ZM453.719 188.687H432.531V194.268H453.719V188.687ZM434.822 189.884L405.795 148.173L401.214 151.361L430.241 193.072L434.822 189.884ZM401.375 147.963L390.591 160.695L394.85 164.302L405.634 151.571L401.375 147.963ZM389.93 162.499V191.478H395.511V162.499H389.93ZM392.721 188.687H375.096V194.268H392.721V188.687ZM551.689 120.93L548.914 121.227L549.181 123.721H551.689V120.93ZM546.083 111.239L544.47 113.516L544.48 113.523L546.083 111.239ZM523.898 109.434L524.982 112.005V112.005L523.898 109.434ZM517.865 113.947L515.614 112.297V112.297L517.865 113.947ZM515.727 120.455L512.936 120.419L512.936 120.437V120.455H515.727ZM517.104 125.729L514.729 127.194L514.741 127.212L514.752 127.23L517.104 125.729ZM520.952 129.529L519.436 131.872L519.453 131.883L519.469 131.893L520.952 129.529ZM526.321 132.094L525.387 134.724L526.321 132.094ZM532.259 133.852L532.936 131.145L532.921 131.141L532.905 131.137L532.259 133.852ZM541.38 136.133L540.703 138.84L540.725 138.845L540.748 138.85L541.38 136.133ZM551.974 139.6L550.872 142.164L550.881 142.168L551.974 139.6ZM561.143 145.111L559.369 147.265L559.375 147.271L559.381 147.276L561.143 145.111ZM565.609 179.221L567.92 180.784L567.925 180.777L565.609 179.221ZM552.972 189.34L554.094 191.895L554.101 191.892L552.972 189.34ZM513.351 189.435L512.265 192.005L512.27 192.007L513.351 189.435ZM500.335 179.173L498.038 180.758L498.045 180.769L500.335 179.173ZM495.299 162.736V159.946H492.397L492.51 162.845L495.299 162.736ZM512.639 162.736L515.422 162.528L515.229 159.946H512.639V162.736ZM515.774 171.192L517.935 169.427L515.774 171.192ZM522.948 176.228L521.965 178.84L521.974 178.843L522.948 176.228ZM542.995 176.18L544.022 178.775L544.029 178.772L544.037 178.77L542.995 176.18ZM549.836 171.335L552.016 173.078L552.022 173.07L552.028 173.062L549.836 171.335ZM552.354 164.019L555.145 164.051L555.145 164.017L555.145 163.984L552.354 164.019ZM550.121 157.748L548.014 159.577L548.023 159.587L548.031 159.597L550.121 157.748ZM543.993 153.567L542.871 156.123L542.89 156.131L542.909 156.139L543.993 153.567ZM534.872 150.527L534.176 153.229L534.183 153.231L534.872 150.527ZM523.803 147.677L524.499 144.974L524.497 144.974L523.803 147.677ZM504.8 138.318L502.921 140.381L502.928 140.388L502.936 140.394L504.8 138.318ZM502.52 106.489L500.264 104.846L500.256 104.857L502.52 106.489ZM515.299 96.4646L516.426 99.0179L516.438 99.0123L515.299 96.4646ZM551.737 96.4646L550.563 98.9966L550.573 99.0009L550.582 99.0051L551.737 96.4646ZM564.041 106.393L561.756 107.996L561.762 108.004L564.041 106.393ZM568.649 120.93V123.721H571.488L571.439 120.882L568.649 120.93ZM554.464 120.634C553.939 115.718 551.667 111.749 547.687 108.955L544.48 113.523C547.088 115.354 548.553 117.845 548.914 121.227L554.464 120.634ZM547.697 108.962C543.837 106.227 538.979 104.981 533.352 104.981V110.562C538.176 110.562 541.805 111.627 544.47 113.516L547.697 108.962ZM533.352 104.981C529.408 104.981 525.869 105.574 522.814 106.863L524.982 112.005C527.184 111.077 529.948 110.562 533.352 110.562V104.981ZM522.814 106.863C519.818 108.126 517.363 109.912 515.614 112.297L520.115 115.597C521.153 114.182 522.72 112.959 524.982 112.005L522.814 106.863ZM515.614 112.297C513.864 114.683 512.975 117.421 512.936 120.419L518.517 120.492C518.542 118.612 519.078 117.012 520.115 115.597L515.614 112.297ZM512.936 120.455C512.936 122.916 513.498 125.199 514.729 127.194L519.479 124.263C518.873 123.281 518.517 122.048 518.517 120.455H512.936ZM514.752 127.23C515.936 129.085 517.516 130.629 519.436 131.872L522.468 127.186C521.159 126.339 520.173 125.349 519.457 124.227L514.752 127.23ZM519.469 131.893C521.273 133.024 523.249 133.966 525.387 134.724L527.254 129.465C525.465 128.83 523.863 128.061 522.436 127.165L519.469 131.893ZM525.387 134.724C527.444 135.454 529.519 136.068 531.613 136.567L532.905 131.137C531.009 130.686 529.125 130.128 527.254 129.465L525.387 134.724ZM531.582 136.56L540.703 138.84L542.057 133.425L532.936 131.145L531.582 136.56ZM540.748 138.85C544.264 139.669 547.638 140.774 550.872 142.164L553.076 137.037C549.533 135.513 545.844 134.306 542.013 133.415L540.748 138.85ZM550.881 142.168C554.072 143.527 556.896 145.229 559.369 147.265L562.917 142.957C560.006 140.56 556.717 138.588 553.068 137.033L550.881 142.168ZM559.381 147.276C561.801 149.245 563.706 151.612 565.113 154.398L570.095 151.882C568.334 148.396 565.932 145.411 562.905 142.947L559.381 147.276ZM565.113 154.398C566.464 157.073 567.188 160.3 567.188 164.161H572.77C572.77 159.598 571.911 155.478 570.095 151.882L565.113 154.398ZM567.188 164.161C567.188 169.361 565.869 173.828 563.292 177.665L567.925 180.777C571.176 175.936 572.77 170.364 572.77 164.161H567.188ZM563.297 177.657C560.721 181.465 556.952 184.527 551.842 186.788L554.101 191.892C560.013 189.275 564.669 185.591 567.92 180.784L563.297 177.657ZM551.849 186.785C546.814 188.997 540.583 190.16 533.067 190.16V195.741C541.133 195.741 548.172 194.496 554.094 191.895L551.849 186.785ZM533.067 190.16C525.778 190.16 519.59 189.031 514.433 186.862L512.27 192.007C518.261 194.526 525.216 195.741 533.067 195.741V190.16ZM514.438 186.864C509.331 184.705 505.429 181.601 502.624 177.577L498.045 180.769C501.511 185.74 506.287 189.477 512.265 192.005L514.438 186.864ZM502.631 177.588C499.879 173.601 498.324 168.657 498.087 162.627L492.51 162.845C492.781 169.737 494.582 175.751 498.038 180.758L502.631 177.588ZM495.299 165.527H512.639V159.946H495.299V165.527ZM509.856 162.944C510.145 166.804 511.356 170.194 513.613 172.958L517.935 169.427C516.519 167.693 515.64 165.446 515.422 162.528L509.856 162.944ZM513.613 172.958C515.787 175.619 518.599 177.573 521.965 178.84L523.931 173.616C521.406 172.666 519.435 171.263 517.935 169.427L513.613 172.958ZM521.974 178.843C525.307 180.084 528.969 180.681 532.924 180.681V175.1C529.531 175.1 526.542 174.589 523.921 173.613L521.974 178.843ZM532.924 180.681C537.027 180.681 540.746 180.071 544.022 178.775L541.969 173.586C539.481 174.57 536.485 175.1 532.924 175.1V180.681ZM544.037 178.77C547.311 177.453 550.016 175.578 552.016 173.078L547.657 169.592C546.363 171.209 544.508 172.564 541.954 173.591L544.037 178.77ZM552.028 173.062C554.075 170.464 555.106 167.422 555.145 164.051L549.564 163.987C549.539 166.19 548.891 168.025 547.644 169.608L552.028 173.062ZM555.145 163.984C555.106 160.889 554.179 158.123 552.212 155.899L548.031 159.597C548.978 160.667 549.539 162.081 549.564 164.054L555.145 163.984ZM552.229 155.919C550.424 153.84 547.992 152.225 545.077 150.996L542.909 156.139C545.252 157.127 546.905 158.299 548.014 159.577L552.229 155.919ZM545.115 151.012C542.346 149.797 539.155 148.738 535.56 147.823L534.183 153.231C537.556 154.09 540.446 155.058 542.871 156.123L545.115 151.012ZM535.568 147.825L524.499 144.974L523.107 150.379L534.176 153.229L535.568 147.825ZM524.497 144.974C516.785 142.992 510.896 140.041 506.665 136.241L502.936 140.394C508.015 144.955 514.796 148.244 523.108 150.379L524.497 144.974ZM506.68 136.255C502.706 132.635 500.655 127.83 500.655 121.548H495.074C495.074 129.201 497.647 135.576 502.921 140.381L506.68 136.255ZM500.655 121.548C500.655 116.352 502.05 111.914 504.784 108.12L500.256 104.857C496.782 109.678 495.074 115.279 495.074 121.548H500.655ZM504.776 108.131C507.592 104.262 511.443 101.216 516.426 99.0178L514.173 93.9115C508.387 96.4641 503.718 100.1 500.264 104.846L504.776 108.131ZM516.438 99.0123C521.413 96.7884 527.112 95.6448 533.589 95.6448V90.0635C526.448 90.0635 519.954 91.3269 514.16 93.917L516.438 99.0123ZM533.589 95.6448C540.17 95.6448 545.805 96.7914 550.563 98.9966L552.91 93.9327C547.28 91.3239 540.817 90.0635 533.589 90.0635V95.6448ZM550.582 99.0051C555.404 101.197 559.095 104.203 561.756 107.996L566.325 104.791C563.032 100.096 558.521 96.4829 552.891 93.9242L550.582 99.0051ZM561.762 108.004C564.395 111.73 565.773 116.023 565.859 120.979L571.439 120.882C571.335 114.88 569.641 109.482 566.32 104.783L561.762 108.004ZM568.649 118.14H551.689V123.721H568.649V118.14ZM665.645 94.1843H668.436V91.3937H665.645V94.1843ZM665.645 191.478V194.268H668.436V191.478H665.645ZM649.968 191.478L647.673 193.065L648.505 194.268H649.968V191.478ZM604.124 125.206L606.419 123.618L605.587 122.415H604.124V125.206ZM603.317 125.206V122.415H600.526V125.206H603.317ZM603.317 191.478V194.268H606.107V191.478H603.317ZM585.692 191.478H582.901V194.268H585.692V191.478ZM585.692 94.1843V91.3937H582.901V94.1843H585.692ZM601.464 94.1843L603.76 92.5986L602.928 91.3937H601.464V94.1843ZM647.26 160.503L644.964 162.089L645.796 163.294H647.26V160.503ZM648.115 160.503V163.294H650.906V160.503H648.115ZM648.115 94.1843V91.3937H645.325V94.1843H648.115ZM662.855 94.1843V191.478H668.436V94.1843H662.855ZM665.645 188.687H649.968V194.268H665.645V188.687ZM652.263 189.89L606.419 123.618L601.829 126.794L647.673 193.065L652.263 189.89ZM604.124 122.415H603.317V127.997H604.124V122.415ZM600.526 125.206V191.478H606.107V125.206H600.526ZM603.317 188.687H585.692V194.268H603.317V188.687ZM588.482 191.478V94.1843H582.901V191.478H588.482ZM585.692 96.975H601.464V91.3937H585.692V96.975ZM599.168 95.77L644.964 162.089L649.557 158.918L603.76 92.5986L599.168 95.77ZM647.26 163.294H648.115V157.713H647.26V163.294ZM650.906 160.503V94.1843H645.325V160.503H650.906ZM648.115 96.975H665.645V91.3937H648.115V96.975ZM697.344 191.478V194.268H699.351L699.99 192.365L697.344 191.478ZM678.531 191.478L675.899 190.551L674.59 194.268H678.531V191.478ZM712.784 94.1843V91.3937H710.807L710.151 93.2576L712.784 94.1843ZM734.541 94.1843L737.173 93.2565L736.517 91.3937H734.541V94.1843ZM768.841 191.478V194.268H772.784L771.473 190.55L768.841 191.478ZM750.029 191.478L747.383 192.366L748.022 194.268H750.029V191.478ZM724.043 114.137L726.688 113.248L726.049 111.346H724.043V114.137ZM723.282 114.137V111.346H721.275L720.637 113.25L723.282 114.137ZM697.961 153.33V150.539H695.171V153.33H697.961ZM749.268 153.33H752.059V150.539H749.268V153.33ZM749.268 167.487V170.277H752.059V167.487H749.268ZM697.961 167.487H695.171V170.277H697.961V167.487ZM697.344 188.687H678.531V194.268H697.344V188.687ZM681.164 192.404L715.416 95.111L710.151 93.2576L675.899 190.551L681.164 192.404ZM712.784 96.975H734.541V91.3937H712.784V96.975ZM731.91 95.1122L766.209 192.405L771.473 190.55L737.173 93.2565L731.91 95.1122ZM768.841 188.687H750.029V194.268H768.841V188.687ZM752.674 190.589L726.688 113.248L721.397 115.026L747.383 192.366L752.674 190.589ZM724.043 111.346H723.282V116.928H724.043V111.346ZM720.637 113.25L694.698 190.59L699.99 192.365L725.928 115.024L720.637 113.25ZM697.961 156.12H749.268V150.539H697.961V156.12ZM746.478 153.33V167.487H752.059V153.33H746.478ZM749.268 164.696H697.961V170.277H749.268V164.696ZM700.752 167.487V153.33H695.171V167.487H700.752ZM860.362 127.011V129.802H863.553L863.128 126.639L860.362 127.011ZM842.595 127.011L839.846 127.489L840.248 129.802H842.595V127.011ZM839.792 119.268L837.396 120.699L837.401 120.706L837.405 120.713L839.792 119.268ZM834.709 113.472L836.427 111.273V111.273L834.709 113.472ZM827.773 109.909L826.92 112.566L826.939 112.572L826.959 112.578L827.773 109.909ZM805.397 112.664L806.907 115.011L806.914 115.007L806.92 115.003L805.397 112.664ZM795.801 124.256L798.34 125.414L798.343 125.408L795.801 124.256ZM795.801 161.643L793.259 162.796L793.264 162.805L793.268 162.815L795.801 161.643ZM805.397 173.14L803.892 175.49L803.903 175.497L803.913 175.503L805.397 173.14ZM827.583 175.848L828.385 178.521L828.395 178.518L828.406 178.514L827.583 175.848ZM834.471 172.38L832.814 170.135L832.805 170.141L832.797 170.147L834.471 172.38ZM839.649 166.774L837.302 165.265L837.294 165.277L837.287 165.289L839.649 166.774ZM842.595 159.173L842.61 156.383L840.284 156.37L839.853 158.655L842.595 159.173ZM860.362 159.268L863.125 159.665L863.581 156.495L860.377 156.478L860.362 159.268ZM856.039 172.285L853.591 170.946L853.587 170.953L853.583 170.961L856.039 172.285ZM847.441 183.021L849.267 185.131L849.273 185.126L849.278 185.122L847.441 183.021ZM834.994 190.242L835.939 192.868L835.947 192.865L835.955 192.862L834.994 190.242ZM796.276 186.869L797.693 184.466L796.276 186.869ZM780.409 169.72L777.93 171.001L780.409 169.72ZM780.456 115.942L782.929 117.236L782.931 117.232L780.456 115.942ZM796.371 98.7925L794.954 96.3886V96.3886L796.371 98.7925ZM834.281 95.1345L835.147 92.4817V92.4817L834.281 95.1345ZM846.728 101.833L844.973 104.003L844.979 104.007L844.985 104.012L846.728 101.833ZM855.707 112.569L853.264 113.918L853.27 113.929L853.276 113.94L855.707 112.569ZM860.362 124.221H842.595V129.802H860.362V124.221ZM845.344 126.533C844.785 123.32 843.742 120.403 842.179 117.822L837.405 120.713C838.566 122.63 839.391 124.875 839.846 127.489L845.344 126.533ZM842.188 117.837C840.655 115.271 838.734 113.075 836.427 111.273L832.991 115.671C834.737 117.036 836.205 118.704 837.396 120.699L842.188 117.837ZM836.427 111.273C834.115 109.467 831.493 108.126 828.587 107.24L826.959 112.578C829.247 113.276 831.249 114.31 832.991 115.671L836.427 111.273ZM828.626 107.252C825.757 106.331 822.696 105.883 819.459 105.883V111.464C822.177 111.464 824.658 111.84 826.92 112.566L828.626 107.252ZM819.459 105.883C813.677 105.883 808.452 107.345 803.875 110.326L806.92 115.003C810.514 112.663 814.663 111.464 819.459 111.464V105.883ZM803.887 110.318C799.284 113.279 795.759 117.592 793.259 123.104L798.343 125.408C800.467 120.722 803.339 117.307 806.907 115.011L803.887 110.318ZM793.262 123.098C790.741 128.624 789.542 135.235 789.542 142.831H795.124C795.124 135.795 796.237 130.023 798.34 125.414L793.262 123.098ZM789.542 142.831C789.542 150.547 790.739 157.236 793.259 162.796L798.343 160.491C796.239 155.852 795.124 150.001 795.124 142.831H789.542ZM793.268 162.815C795.799 168.286 799.323 172.563 803.892 175.49L806.903 170.79C803.364 168.524 800.491 165.135 798.334 160.472L793.268 162.815ZM803.913 175.503C808.483 178.373 813.678 179.779 819.412 179.779V174.197C814.63 174.197 810.483 173.038 806.881 170.777L803.913 175.503ZM819.412 179.779C822.57 179.779 825.566 179.366 828.385 178.521L826.781 173.175C824.532 173.85 822.081 174.197 819.412 174.197V179.779ZM828.406 178.514C831.259 177.634 833.847 176.336 836.146 174.612L832.797 170.147C831.042 171.464 829.037 172.479 826.76 173.181L828.406 178.514ZM836.129 174.625C838.475 172.893 840.438 170.764 842.012 168.259L837.287 165.289C836.074 167.218 834.585 168.827 832.814 170.135L836.129 174.625ZM841.997 168.283C843.635 165.735 844.739 162.859 845.337 159.691L839.853 158.655C839.374 161.188 838.515 163.379 837.302 165.265L841.997 168.283ZM842.58 161.964L860.347 162.059L860.377 156.478L842.61 156.383L842.58 161.964ZM857.6 158.871C856.982 163.168 855.646 167.188 853.591 170.946L858.488 173.624C860.866 169.274 862.412 164.616 863.125 159.665L857.6 158.871ZM853.583 170.961C851.559 174.714 848.905 178.032 845.603 180.921L849.278 185.122C853.07 181.803 856.148 177.963 858.496 173.609L853.583 170.961ZM845.614 180.912C842.341 183.746 838.491 185.988 834.033 187.622L835.955 192.862C840.997 191.013 845.445 188.441 849.267 185.131L845.614 180.912ZM834.049 187.617C829.642 189.203 824.695 190.017 819.174 190.017V195.598C825.245 195.598 830.844 194.702 835.939 192.868L834.049 187.617ZM819.174 190.017C811.072 190.017 803.937 188.147 797.693 184.466L794.859 189.273C802.043 193.51 810.174 195.598 819.174 195.598V190.017ZM797.693 184.466C791.468 180.795 786.531 175.484 782.888 168.438L777.93 171.001C782.015 178.903 787.656 185.026 794.859 189.273L797.693 184.466ZM782.888 168.438C779.273 161.444 777.404 152.942 777.404 142.831H771.823C771.823 153.622 773.818 163.046 777.93 171.001L782.888 168.438ZM777.404 142.831C777.404 132.689 779.288 124.193 782.929 117.236L777.984 114.648C773.834 122.577 771.823 132.007 771.823 142.831H777.404ZM782.931 117.232C786.606 110.182 791.56 104.868 797.788 101.196L794.954 96.3886C787.753 100.634 782.098 106.754 777.982 114.653L782.931 117.232ZM797.788 101.196C804.036 97.5129 811.139 95.6448 819.174 95.6448V90.0635C810.234 90.0635 802.135 92.1542 794.954 96.3886L797.788 101.196ZM819.174 95.6448C824.327 95.6448 829.067 96.3675 833.415 97.7872L835.147 92.4817C830.184 90.861 824.853 90.0635 819.174 90.0635V95.6448ZM833.415 97.7872C837.762 99.2068 841.607 101.281 844.973 104.003L848.483 99.663C844.564 96.4942 840.111 94.1025 835.147 92.4817L833.415 97.7872ZM844.985 104.012C848.33 106.688 851.09 109.981 853.264 113.918L858.15 111.22C855.636 106.669 852.41 102.805 848.471 99.6538L844.985 104.012ZM853.276 113.94C855.456 117.806 856.909 122.273 857.597 127.383L863.128 126.639C862.358 120.918 860.708 115.757 858.137 111.199L853.276 113.94ZM876.503 191.478H873.712V194.268H876.503V191.478ZM876.503 94.1843V91.3937H873.712V94.1843H876.503ZM894.127 94.1843H896.918V91.3937H894.127V94.1843ZM894.127 138.888H891.337V141.679H894.127V138.888ZM895.315 138.888V141.679H896.607L897.442 140.694L895.315 138.888ZM933.273 94.1843V91.3937H931.981L931.146 92.3781L933.273 94.1843ZM954.793 94.1843L956.907 96.0061L960.882 91.3937H954.793V94.1843ZM917.168 137.843L915.054 136.021L913.63 137.674L914.89 139.455L917.168 137.843ZM955.126 191.478V194.268H960.519L957.404 189.865L955.126 191.478ZM933.938 191.478L931.647 193.072L932.48 194.268H933.938V191.478ZM904.911 149.767L907.202 148.173L905.128 145.193L902.782 147.963L904.911 149.767ZM894.127 162.499L891.998 160.695L891.337 161.476V162.499H894.127ZM894.127 191.478V194.268H896.918V191.478H894.127ZM879.293 191.478V94.1843H873.712V191.478H879.293ZM876.503 96.975H894.127V91.3937H876.503V96.975ZM891.337 94.1843V138.888H896.918V94.1843H891.337ZM894.127 141.679H895.315V136.097H894.127V141.679ZM897.442 140.694L935.4 95.9906L931.146 92.3781L893.188 137.082L897.442 140.694ZM933.273 96.975H954.793V91.3937H933.273V96.975ZM952.679 92.3625L915.054 136.021L919.282 139.665L956.907 96.0061L952.679 92.3625ZM914.89 139.455L952.848 193.09L957.404 189.865L919.446 136.231L914.89 139.455ZM955.126 188.687H933.938V194.268H955.126V188.687ZM936.228 189.884L907.202 148.173L902.621 151.361L931.647 193.072L936.228 189.884ZM902.782 147.963L891.998 160.695L896.257 164.302L907.041 151.571L902.782 147.963ZM891.337 162.499V191.478H896.918V162.499H891.337ZM894.127 188.687H876.503V194.268H894.127V188.687Z" fill="white" mask="url(#path-1-outside-1_972_4920)"/>
</g>
<defs>
<filter id="filter0_d_972_4920" x="-187.381" y="0.878052" width="1326.63" height="462.419" filterUnits="userSpaceOnUse" color-interpolation-filters="sRGB">
<feFlood flood-opacity="0" result="BackgroundImageFix"/>
<feColorMatrix in="SourceAlpha" type="matrix" values="0 0 0 0 0 0 0 0 0 0 0 0 0 0 0 0 0 0 127 0" result="hardAlpha"/>
<feOffset dy="89.1854"/>
<feGaussianBlur stdDeviation="89.1854"/>
<feComposite in2="hardAlpha" operator="out"/>
<feColorMatrix type="matrix" values="0 0 0 0 0 0 0 0 0 0 0 0 0 0 0 0 0 0 0.25 0"/>
<feBlend mode="normal" in2="BackgroundImageFix" result="effect1_dropShadow_972_4920"/>
<feBlend mode="normal" in="SourceGraphic" in2="effect1_dropShadow_972_4920" result="shape"/>
</filter>
</defs>
</svg>
