<svg width="428" height="346" viewBox="0 0 428 346" fill="none" xmlns="http://www.w3.org/2000/svg">
<g style="mix-blend-mode:soft-light" filter="url(#filter0_d_979_1393)">
<mask id="path-1-outside-1_979_1393" maskUnits="userSpaceOnUse" x="-216.994" y="65.5234" width="726" height="81" fill="black">
<rect fill="white" x="-216.994" y="65.5234" width="726" height="81"/>
<path d="M-171.61 89.9359C-171.94 86.8432 -173.333 84.4352 -175.788 82.7117C-178.22 80.9883 -181.384 80.1266 -185.279 80.1266C-188.017 80.1266 -190.367 80.5398 -192.326 81.3661C-194.285 82.1924 -195.785 83.3138 -196.823 84.7303C-197.862 86.1468 -198.393 87.7639 -198.417 89.5818C-198.417 91.0927 -198.075 92.403 -197.39 93.5126C-196.682 94.6221 -195.726 95.5665 -194.522 96.3456C-193.318 97.101 -191.984 97.7384 -190.52 98.2578C-189.056 98.7772 -187.581 99.214 -186.093 99.5681L-179.294 101.268C-176.556 101.905 -173.923 102.767 -171.397 103.853C-168.848 104.939 -166.569 106.308 -164.563 107.961C-162.532 109.613 -160.927 111.608 -159.747 113.946C-158.566 116.283 -157.976 119.021 -157.976 122.161C-157.976 126.411 -159.062 130.153 -161.234 133.387C-163.406 136.598 -166.546 139.112 -170.654 140.93C-174.738 142.724 -179.684 143.621 -185.491 143.621C-191.134 143.621 -196.033 142.748 -200.188 141.001C-204.319 139.254 -207.553 136.704 -209.891 133.352C-212.204 129.999 -213.455 125.915 -213.644 121.099H-200.719C-200.53 123.625 -199.751 125.726 -198.382 127.402C-197.012 129.078 -195.23 130.33 -193.034 131.156C-190.815 131.982 -188.336 132.395 -185.598 132.395C-182.741 132.395 -180.239 131.971 -178.09 131.121C-175.918 130.247 -174.218 129.043 -172.991 127.509C-171.763 125.95 -171.138 124.133 -171.114 122.055C-171.138 120.166 -171.692 118.608 -172.778 117.381C-173.864 116.129 -175.387 115.091 -177.347 114.264C-179.282 113.414 -181.549 112.659 -184.146 111.998L-192.397 109.873C-198.37 108.339 -203.091 106.013 -206.562 102.897C-210.009 99.757 -211.732 95.5901 -211.732 90.3963C-211.732 86.1231 -210.575 82.3812 -208.262 79.1705C-205.924 75.9598 -202.749 73.4691 -198.736 71.6985C-194.722 69.9042 -190.178 69.0071 -185.102 69.0071C-179.955 69.0071 -175.446 69.9042 -171.574 71.6985C-167.679 73.4691 -164.622 75.9362 -162.402 79.0997C-160.183 82.2396 -159.038 85.8517 -158.967 89.9359H-171.61ZM-86.664 69.9987V142.523H-98.3501L-132.523 93.123H-133.125V142.523H-146.263V69.9987H-134.506L-100.369 119.434H-99.7312V69.9987H-86.664ZM-63.035 142.523H-77.0584L-51.526 69.9987H-35.307L-9.73923 142.523H-23.7626L-43.1332 84.8719H-43.6998L-63.035 142.523ZM-62.5747 114.087H-24.3292V124.64H-62.5747V114.087ZM58.4829 94.4687H45.2387C44.8609 92.2967 44.1645 90.3726 43.1493 88.6965C42.1342 86.9967 40.8711 85.5566 39.3602 84.3761C37.8492 83.1957 36.1258 82.3104 34.19 81.7202C32.2777 81.1064 30.212 80.7995 27.9928 80.7995C24.0502 80.7995 20.5561 81.791 17.5107 83.7741C14.4652 85.7336 12.0808 88.6138 10.3574 92.4148C8.63394 96.1921 7.77224 100.808 7.77224 106.261C7.77224 111.809 8.63394 116.483 10.3574 120.284C12.1044 124.062 14.4888 126.918 17.5107 128.854C20.5561 130.766 24.0384 131.723 27.9574 131.723C30.1293 131.723 32.1596 131.439 34.0483 130.873C35.9606 130.283 37.6722 129.421 39.1831 128.288C40.7177 127.154 42.0043 125.762 43.0431 124.109C44.1055 122.456 44.8373 120.568 45.2387 118.443L58.4829 118.514C57.9871 121.961 56.913 125.195 55.2604 128.217C53.6314 131.239 51.4949 133.906 48.8507 136.22C46.2066 138.51 43.1139 140.304 39.5727 141.603C36.0314 142.878 32.1006 143.515 27.7803 143.515C21.406 143.515 15.7164 142.039 10.7115 139.088C5.70651 136.137 1.76392 131.876 -1.11629 126.305C-3.99651 120.733 -5.43662 114.052 -5.43662 106.261C-5.43662 98.4467 -3.9847 91.7655 -1.08088 86.2176C1.82294 80.646 5.77734 76.3847 10.7823 73.4337C15.7873 70.4826 21.4533 69.0071 27.7803 69.0071C31.8173 69.0071 35.571 69.5737 39.0415 70.7069C42.5119 71.8401 45.6046 73.5045 48.3195 75.7001C51.0345 77.872 53.2655 80.5398 55.0125 83.7033C56.7831 86.8432 57.9399 90.4317 58.4829 94.4687ZM70.5143 142.523V69.9987H83.6523V103.322H84.5377L112.832 69.9987H128.874L100.827 102.543L129.122 142.523H113.328L91.691 111.431L83.6523 120.922V142.523H70.5143ZM202.151 89.9359C201.821 86.8432 200.428 84.4352 197.973 82.7117C195.541 80.9883 192.378 80.1266 188.482 80.1266C185.744 80.1266 183.395 80.5398 181.435 81.3661C179.476 82.1924 177.976 83.3138 176.938 84.7303C175.899 86.1468 175.368 87.7639 175.344 89.5818C175.344 91.0927 175.686 92.403 176.371 93.5126C177.079 94.6221 178.035 95.5665 179.239 96.3456C180.444 97.101 181.777 97.7384 183.241 98.2578C184.705 98.7772 186.18 99.214 187.668 99.5681L194.467 101.268C197.205 101.905 199.838 102.767 202.364 103.853C204.914 104.939 207.192 106.308 209.198 107.961C211.229 109.613 212.834 111.608 214.015 113.946C215.195 116.283 215.785 119.021 215.785 122.161C215.785 126.411 214.699 130.153 212.527 133.387C210.355 136.598 207.215 139.112 203.108 140.93C199.023 142.724 194.077 143.621 188.27 143.621C182.627 143.621 177.729 142.748 173.573 141.001C169.442 139.254 166.208 136.704 163.87 133.352C161.557 129.999 160.306 125.915 160.117 121.099H173.042C173.231 123.625 174.01 125.726 175.38 127.402C176.749 129.078 178.531 130.33 180.727 131.156C182.946 131.982 185.425 132.395 188.163 132.395C191.02 132.395 193.523 131.971 195.671 131.121C197.843 130.247 199.543 129.043 200.77 127.509C201.998 125.95 202.624 124.133 202.647 122.055C202.624 120.166 202.069 118.608 200.983 117.381C199.897 116.129 198.374 115.091 196.415 114.264C194.479 113.414 192.212 112.659 189.615 111.998L181.364 109.873C175.391 108.339 170.67 106.013 167.199 102.897C163.752 99.757 162.029 95.5901 162.029 90.3963C162.029 86.1231 163.186 82.3812 165.499 79.1705C167.837 75.9598 171.012 73.4691 175.025 71.6985C179.039 69.9042 183.583 69.0071 188.659 69.0071C193.806 69.0071 198.315 69.9042 202.187 71.6985C206.082 73.4691 209.139 75.9362 211.359 79.0997C213.578 82.2396 214.723 85.8517 214.794 89.9359H202.151ZM287.097 69.9987V142.523H275.411L241.238 93.123H240.636V142.523H227.498V69.9987H239.255L273.392 119.434H274.03V69.9987H287.097ZM310.726 142.523H296.703L322.235 69.9987H338.454L364.022 142.523H349.998L330.628 84.8719H330.061L310.726 142.523ZM311.186 114.087H349.432V124.64H311.186V114.087ZM432.244 94.4687H419C418.622 92.2967 417.926 90.3726 416.91 88.6965C415.895 86.9967 414.632 85.5566 413.121 84.3761C411.61 83.1957 409.887 82.3104 407.951 81.7202C406.039 81.1064 403.973 80.7995 401.754 80.7995C397.811 80.7995 394.317 81.791 391.272 83.7741C388.226 85.7336 385.842 88.6138 384.118 92.4148C382.395 96.1921 381.533 100.808 381.533 106.261C381.533 111.809 382.395 116.483 384.118 120.284C385.865 124.062 388.25 126.918 391.272 128.854C394.317 130.766 397.799 131.723 401.718 131.723C403.89 131.723 405.921 131.439 407.809 130.873C409.722 130.283 411.433 129.421 412.944 128.288C414.479 127.154 415.765 125.762 416.804 124.109C417.867 122.456 418.598 120.568 419 118.443L432.244 118.514C431.748 121.961 430.674 125.195 429.021 128.217C427.392 131.239 425.256 133.906 422.612 136.22C419.968 138.51 416.875 140.304 413.334 141.603C409.792 142.878 405.862 143.515 401.541 143.515C395.167 143.515 389.478 142.039 384.473 139.088C379.468 136.137 375.525 131.876 372.645 126.305C369.765 120.733 368.324 114.052 368.324 106.261C368.324 98.4467 369.776 91.7655 372.68 86.2176C375.584 80.646 379.538 76.3847 384.543 73.4337C389.548 70.4826 395.214 69.0071 401.541 69.0071C405.578 69.0071 409.332 69.5737 412.803 70.7069C416.273 71.8401 419.366 73.5045 422.081 75.7001C424.796 77.872 427.027 80.5398 428.774 83.7033C430.544 86.8432 431.701 90.4317 432.244 94.4687ZM444.275 142.523V69.9987H457.413V103.322H458.299L486.593 69.9987H502.635L474.588 102.543L502.883 142.523H487.089L465.452 111.431L457.413 120.922V142.523H444.275Z"/>
</mask>
<path d="M-171.61 89.9359L-174.096 90.2016L-173.857 92.4359H-171.61V89.9359ZM-175.788 82.7118L-177.234 84.7514L-177.225 84.758L-175.788 82.7118ZM-192.326 81.3661L-191.355 83.6696L-191.355 83.6696L-192.326 81.3661ZM-196.823 84.7303L-198.839 83.2518V83.2519L-196.823 84.7303ZM-198.417 89.5818L-200.917 89.5493L-200.917 89.5655V89.5818H-198.417ZM-197.39 93.5126L-199.518 94.8253L-199.508 94.8416L-199.497 94.8576L-197.39 93.5126ZM-194.522 96.3456L-195.88 98.4445L-195.865 98.454L-195.85 98.4632L-194.522 96.3456ZM-190.52 98.2578L-191.356 100.614L-190.52 98.2578ZM-186.093 99.5681L-185.487 97.1427L-185.501 97.1393L-185.514 97.1361L-186.093 99.5681ZM-179.294 101.268L-179.901 103.693L-179.881 103.698L-179.861 103.703L-179.294 101.268ZM-171.397 103.853L-172.385 106.15L-172.377 106.153L-171.397 103.853ZM-164.563 107.961L-166.152 109.891L-166.146 109.895L-166.141 109.9L-164.563 107.961ZM-161.234 133.387L-159.163 134.788L-159.158 134.781L-161.234 133.387ZM-170.654 140.93L-169.648 143.219L-169.642 143.216L-170.654 140.93ZM-200.188 141.001L-201.161 143.303L-201.157 143.305L-200.188 141.001ZM-209.891 133.352L-211.948 134.772L-211.941 134.781L-209.891 133.352ZM-213.644 121.099V118.599H-216.244L-216.142 121.197L-213.644 121.099ZM-200.719 121.099L-198.226 120.912L-198.399 118.599H-200.719V121.099ZM-198.382 127.402L-196.445 125.821H-196.445L-198.382 127.402ZM-193.034 131.156L-193.915 133.496L-193.907 133.499L-193.034 131.156ZM-178.09 131.121L-177.171 133.445L-177.164 133.443L-177.157 133.44L-178.09 131.121ZM-172.991 127.509L-171.039 129.07L-171.033 129.063L-171.027 129.056L-172.991 127.509ZM-171.114 122.055L-168.614 122.083L-168.614 122.054L-168.614 122.024L-171.114 122.055ZM-172.778 117.381L-174.666 119.019L-174.659 119.028L-174.651 119.037L-172.778 117.381ZM-177.347 114.264L-178.352 116.553L-178.335 116.561L-178.318 116.568L-177.347 114.264ZM-184.146 111.998L-184.769 114.419L-184.762 114.421L-184.146 111.998ZM-192.397 109.873L-191.773 107.452L-191.775 107.452L-192.397 109.873ZM-206.562 102.897L-208.245 104.745L-208.239 104.751L-208.232 104.757L-206.562 102.897ZM-208.262 79.1705L-210.283 77.6992L-210.29 77.709L-208.262 79.1705ZM-198.736 71.6985L-197.727 73.9858L-197.715 73.9808L-198.736 71.6985ZM-171.574 71.6985L-172.625 73.9667L-172.617 73.9706L-172.609 73.9744L-171.574 71.6985ZM-162.402 79.0997L-164.449 80.5354L-164.444 80.5426L-162.402 79.0997ZM-158.967 89.9359V92.4359H-156.424L-156.468 89.8926L-158.967 89.9359ZM-169.124 89.6702C-169.528 85.8906 -171.282 82.8204 -174.352 80.6655L-177.225 84.758C-175.384 86.0499 -174.353 87.7958 -174.096 90.2016L-169.124 89.6702ZM-174.343 80.6721C-177.31 78.5693 -181.024 77.6266 -185.279 77.6266V82.6266C-181.744 82.6266 -179.13 83.4074 -177.234 84.7514L-174.343 80.6721ZM-185.279 77.6266C-188.259 77.6266 -190.956 78.0751 -193.297 79.0625L-191.355 83.6696C-189.777 83.0045 -187.776 82.6266 -185.279 82.6266V77.6266ZM-193.297 79.0625C-195.585 80.0273 -197.482 81.4011 -198.839 83.2518L-194.807 86.2087C-194.087 85.2265 -192.986 84.3574 -191.355 83.6696L-193.297 79.0625ZM-198.839 83.2519C-200.197 85.1036 -200.887 87.2303 -200.917 89.5493L-195.917 89.6142C-195.9 88.2976 -195.527 87.1899 -194.807 86.2087L-198.839 83.2519ZM-200.917 89.5818C-200.917 91.4814 -200.482 93.2619 -199.518 94.8253L-195.262 92.1998C-195.667 91.5441 -195.917 90.704 -195.917 89.5818H-200.917ZM-199.497 94.8576C-198.58 96.2955 -197.357 97.4884 -195.88 98.4445L-193.163 94.2466C-194.094 93.6446 -194.784 92.9488 -195.283 92.1675L-199.497 94.8576ZM-195.85 98.4632C-194.478 99.3244 -192.976 100.039 -191.356 100.614L-189.684 95.9018C-190.991 95.438 -192.157 94.8776 -193.193 94.2279L-195.85 98.4632ZM-191.356 100.614C-189.809 101.163 -188.248 101.625 -186.672 102L-185.514 97.1361C-186.913 96.803 -188.303 96.3917 -189.684 95.9018L-191.356 100.614ZM-186.7 101.993L-179.901 103.693L-178.688 98.8425L-185.487 97.1427L-186.7 101.993ZM-179.861 103.703C-177.263 104.307 -174.772 105.123 -172.385 106.15L-170.41 101.556C-173.075 100.411 -175.848 99.5032 -178.727 98.833L-179.861 103.703ZM-172.377 106.153C-170.033 107.152 -167.962 108.4 -166.152 109.891L-162.973 106.031C-165.176 104.217 -167.663 102.726 -170.418 101.553L-172.377 106.153ZM-166.141 109.9C-164.383 111.331 -163 113.049 -161.978 115.073L-157.515 112.819C-158.854 110.168 -160.682 107.896 -162.984 106.022L-166.141 109.9ZM-161.978 115.073C-161.006 116.997 -160.476 119.336 -160.476 122.161H-155.476C-155.476 118.707 -156.126 115.568 -157.515 112.819L-161.978 115.073ZM-160.476 122.161C-160.476 125.961 -161.439 129.208 -163.309 131.993L-159.158 134.781C-156.685 131.097 -155.476 126.86 -155.476 122.161H-160.476ZM-163.305 131.986C-165.174 134.75 -167.917 136.985 -171.665 138.644L-169.642 143.216C-165.174 141.239 -161.638 138.446 -159.163 134.788L-163.305 131.986ZM-171.659 138.641C-175.346 140.261 -179.93 141.121 -185.491 141.121V146.121C-179.437 146.121 -174.129 145.187 -169.648 143.219L-171.659 138.641ZM-185.491 141.121C-190.882 141.121 -195.437 140.286 -199.219 138.696L-201.157 143.305C-196.628 145.209 -191.386 146.121 -185.491 146.121V141.121ZM-199.214 138.698C-202.955 137.116 -205.798 134.85 -207.84 131.922L-211.941 134.781C-209.309 138.558 -205.683 141.391 -201.161 143.303L-199.214 138.698ZM-207.833 131.932C-209.831 129.036 -210.972 125.432 -211.146 121.001L-216.142 121.197C-215.938 126.398 -214.577 130.963 -211.948 134.772L-207.833 131.932ZM-213.644 123.599H-200.719V118.599H-213.644V123.599ZM-203.212 121.285C-202.991 124.233 -202.064 126.846 -200.318 128.984L-196.445 125.821C-197.438 124.606 -198.068 123.017 -198.226 120.912L-203.212 121.285ZM-200.318 128.984C-198.646 131.03 -196.487 132.528 -193.915 133.496L-192.154 128.816C-193.972 128.132 -195.378 127.127 -196.445 125.821L-200.318 128.984ZM-193.907 133.499C-191.368 134.444 -188.588 134.895 -185.598 134.895V129.895C-188.084 129.895 -190.262 129.521 -192.162 128.813L-193.907 133.499ZM-185.598 134.895C-182.498 134.895 -179.672 134.435 -177.171 133.445L-179.01 128.796C-180.805 129.506 -182.984 129.895 -185.598 129.895V134.895ZM-177.157 133.44C-174.663 132.437 -172.582 131 -171.039 129.07L-174.943 125.947C-175.855 127.086 -177.174 128.058 -179.023 128.801L-177.157 133.44ZM-171.027 129.056C-169.441 127.043 -168.644 124.684 -168.614 122.083L-173.614 122.027C-173.631 123.581 -174.085 124.858 -174.955 125.961L-171.027 129.056ZM-168.614 122.024C-168.644 119.633 -169.363 117.468 -170.906 115.724L-174.651 119.037C-174.022 119.748 -173.631 120.7 -173.614 122.086L-168.614 122.024ZM-170.89 115.742C-172.288 114.132 -174.16 112.895 -176.375 111.961L-178.318 116.568C-176.614 117.286 -175.441 118.127 -174.666 119.019L-170.89 115.742ZM-176.342 111.975C-178.431 111.058 -180.833 110.261 -183.529 109.575L-184.762 114.421C-182.265 115.056 -180.134 115.771 -178.352 116.553L-176.342 111.975ZM-183.522 109.577L-191.773 107.452L-193.02 112.294L-184.769 114.419L-183.522 109.577ZM-191.775 107.452C-197.479 105.986 -201.801 103.812 -204.892 101.037L-208.232 104.757C-204.382 108.214 -199.261 110.691 -193.019 112.294L-191.775 107.452ZM-204.878 101.049C-207.743 98.4394 -209.232 94.9757 -209.232 90.3963H-214.232C-214.232 96.2045 -212.275 101.075 -208.245 104.745L-204.878 101.049ZM-209.232 90.3963C-209.232 86.6036 -208.215 83.3827 -206.233 80.632L-210.29 77.709C-212.935 81.3798 -214.232 85.6427 -214.232 90.3963H-209.232ZM-206.24 80.6418C-204.189 77.824 -201.38 75.5975 -197.727 73.9858L-199.745 69.4112C-204.118 71.3407 -207.66 74.0956 -210.283 77.6992L-206.24 80.6418ZM-197.715 73.9808C-194.069 72.3506 -189.88 71.5071 -185.102 71.5071V66.5071C-190.475 66.5071 -195.376 67.4579 -199.756 69.4162L-197.715 73.9808ZM-185.102 71.5071C-180.245 71.5071 -176.107 72.3533 -172.625 73.9667L-170.523 69.4302C-174.785 67.4551 -179.666 66.5071 -185.102 66.5071V71.5071ZM-172.609 73.9744C-169.075 75.5807 -166.385 77.7755 -164.449 80.5354L-160.356 77.664C-162.858 74.0968 -166.283 71.3575 -170.54 69.4225L-172.609 73.9744ZM-164.444 80.5426C-162.533 83.2464 -161.53 86.3639 -161.467 89.9792L-156.468 89.8926C-156.547 85.3394 -157.833 81.2328 -160.361 77.6568L-164.444 80.5426ZM-158.967 87.4359H-171.61V92.4359H-158.967V87.4359ZM-86.664 69.9987H-84.164V67.4987H-86.664V69.9987ZM-86.664 142.523V145.023H-84.164V142.523H-86.664ZM-98.3501 142.523L-100.406 143.946L-99.6606 145.023H-98.3501V142.523ZM-132.523 93.123L-130.467 91.7008L-131.213 90.623H-132.523V93.123ZM-133.125 93.123V90.623H-135.625V93.123H-133.125ZM-133.125 142.523V145.023H-130.625V142.523H-133.125ZM-146.263 142.523H-148.763V145.023H-146.263V142.523ZM-146.263 69.9987V67.4987H-148.763V69.9987H-146.263ZM-134.506 69.9987L-132.449 68.5781L-133.194 67.4987H-134.506V69.9987ZM-100.369 119.434L-102.426 120.855L-101.68 121.934H-100.369V119.434ZM-99.7312 119.434V121.934H-97.2312V119.434H-99.7312ZM-99.7312 69.9987V67.4987H-102.231V69.9987H-99.7312ZM-89.164 69.9987V142.523H-84.164V69.9987H-89.164ZM-86.664 140.023H-98.3501V145.023H-86.664V140.023ZM-96.2941 141.101L-130.467 91.7008L-134.579 94.5453L-100.406 143.946L-96.2941 141.101ZM-132.523 90.623H-133.125V95.623H-132.523V90.623ZM-135.625 93.123V142.523H-130.625V93.123H-135.625ZM-133.125 140.023H-146.263V145.023H-133.125V140.023ZM-143.763 142.523V69.9987H-148.763V142.523H-143.763ZM-146.263 72.4987H-134.506V67.4987H-146.263V72.4987ZM-136.563 71.4192L-102.426 120.855L-98.3115 118.014L-132.449 68.5781L-136.563 71.4192ZM-100.369 121.934H-99.7312V116.934H-100.369V121.934ZM-97.2312 119.434V69.9987H-102.231V119.434H-97.2312ZM-99.7312 72.4987H-86.664V67.4987H-99.7312V72.4987ZM-63.035 142.523V145.023H-61.2366L-60.6648 143.318L-63.035 142.523ZM-77.0584 142.523L-79.4165 141.693L-80.5889 145.023H-77.0584V142.523ZM-51.526 69.9987V67.4987H-53.2962L-53.8841 69.1685L-51.526 69.9987ZM-35.3071 69.9987L-32.9493 69.1675L-33.5376 67.4987H-35.3071V69.9987ZM-9.73923 142.523V145.023H-6.20708L-7.38145 141.692L-9.73923 142.523ZM-23.7626 142.523L-26.1324 143.32L-25.5599 145.023H-23.7626V142.523ZM-43.1332 84.8719L-40.7634 84.0757L-41.3358 82.3719H-43.1332V84.8719ZM-43.6998 84.8719V82.3719H-45.4982L-46.0701 84.077L-43.6998 84.8719ZM-62.5747 114.087V111.587H-65.0747V114.087H-62.5747ZM-24.3292 114.087H-21.8292V111.587H-24.3292V114.087ZM-24.3292 124.64V127.14H-21.8292V124.64H-24.3292ZM-62.5747 124.64H-65.0747V127.14H-62.5747V124.64ZM-63.035 140.023H-77.0584V145.023H-63.035V140.023ZM-74.7002 143.354L-49.1678 70.8288L-53.8841 69.1685L-79.4165 141.693L-74.7002 143.354ZM-51.526 72.4987H-35.3071V67.4987H-51.526V72.4987ZM-37.6648 70.8299L-12.097 143.355L-7.38145 141.692L-32.9493 69.1675L-37.6648 70.8299ZM-9.73923 140.023H-23.7626V145.023H-9.73923V140.023ZM-21.3928 141.727L-40.7634 84.0757L-45.503 85.6682L-26.1324 143.32L-21.3928 141.727ZM-43.1332 82.3719H-43.6998V87.3719H-43.1332V82.3719ZM-46.0701 84.077L-65.4053 141.729L-60.6648 143.318L-41.3296 85.6668L-46.0701 84.077ZM-62.5747 116.587H-24.3292V111.587H-62.5747V116.587ZM-26.8292 114.087V124.64H-21.8292V114.087H-26.8292ZM-24.3292 122.14H-62.5747V127.14H-24.3292V122.14ZM-60.0747 124.64V114.087H-65.0747V124.64H-60.0747ZM58.4829 94.4687V96.9687H61.3417L60.9606 94.1354L58.4829 94.4687ZM45.2386 94.4687L42.7756 94.897L43.1359 96.9687H45.2386V94.4687ZM43.1493 88.6965L41.003 89.9783L41.0069 89.9849L41.0109 89.9915L43.1493 88.6965ZM39.3602 84.3761L40.8993 82.4061V82.4061L39.3602 84.3761ZM34.1899 81.7202L33.4259 84.1006L33.4434 84.1062L33.4609 84.1115L34.1899 81.7202ZM17.5107 83.7741L18.8634 85.8766L18.8748 85.8691L17.5107 83.7741ZM10.3574 92.4148L12.6318 93.4525L12.6342 93.4471L10.3574 92.4148ZM10.3574 120.284L8.08047 121.317L8.08435 121.325L8.08829 121.334L10.3574 120.284ZM17.5107 128.854L16.1621 130.959L16.1717 130.965L16.1812 130.971L17.5107 128.854ZM34.0483 130.873L34.7667 133.267L34.7762 133.264L34.7856 133.262L34.0483 130.873ZM39.1831 128.288L37.698 126.277L37.6906 126.282L37.6831 126.288L39.1831 128.288ZM43.0431 124.109L40.9401 122.757L40.9333 122.768L40.9265 122.779L43.0431 124.109ZM45.2386 118.443L45.252 115.943L43.1688 115.932L42.7821 117.979L45.2386 118.443ZM58.4829 118.514L60.9575 118.87L61.366 116.029L58.4963 116.014L58.4829 118.514ZM55.2604 128.217L53.067 127.017L53.0633 127.024L53.0598 127.031L55.2604 128.217ZM48.8507 136.22L50.4874 138.11L50.497 138.101L48.8507 136.22ZM39.5727 141.603L40.4195 143.955L40.4264 143.952L40.4333 143.95L39.5727 141.603ZM10.7115 139.088L11.9812 136.935L10.7115 139.088ZM-1.1163 126.305L-3.3371 127.453L-1.1163 126.305ZM-1.08087 86.2176L1.13406 87.3769L1.13608 87.373L-1.08087 86.2176ZM10.7823 73.4337L9.51254 71.2801V71.2801L10.7823 73.4337ZM39.0415 70.7069L39.8175 68.3304V68.3304L39.0415 70.7069ZM48.3195 75.7001L46.7475 77.644L46.7578 77.6523L48.3195 75.7001ZM55.0125 83.7033L52.824 84.9119L52.8294 84.9216L52.8349 84.9313L55.0125 83.7033ZM58.4829 91.9687H45.2386V96.9687H58.4829V91.9687ZM47.7017 94.0403C47.2773 91.5999 46.483 89.3749 45.2877 87.4014L41.0109 89.9915C41.846 91.3703 42.4446 92.9936 42.7756 94.897L47.7017 94.0403ZM45.2957 87.4146C44.1276 85.4587 42.6613 83.7827 40.8993 82.4061L37.8211 86.3462C39.0809 87.3304 40.1407 88.5346 41.003 89.9783L45.2957 87.4146ZM40.8993 82.4061C39.1333 81.0264 37.132 80.0036 34.919 79.3289L33.4609 84.1115C35.1197 84.6173 36.5652 85.3651 37.8211 86.3462L40.8993 82.4061ZM34.954 79.3398C32.7704 78.6389 30.4443 78.2995 27.9928 78.2995V83.2995C29.9796 83.2995 31.785 83.5739 33.4259 84.1006L34.954 79.3398ZM27.9928 78.2995C23.6087 78.2995 19.6324 79.4093 16.1465 81.6791L18.8748 85.8691C21.4799 84.1728 24.4917 83.2995 27.9928 83.2995V78.2995ZM16.158 81.6717C12.649 83.9294 9.97153 87.2117 8.08047 91.3824L12.6342 93.4471C14.19 90.016 16.2814 87.5378 18.8634 85.8765L16.158 81.6717ZM8.08289 91.3771C6.172 95.5653 5.27225 100.557 5.27225 106.261H10.2722C10.2722 101.058 11.0959 96.8189 12.6318 93.4525L8.08289 91.3771ZM5.27225 106.261C5.27225 112.054 6.17004 117.103 8.08047 121.317L12.6342 119.252C11.0978 115.864 10.2722 111.564 10.2722 106.261H5.27225ZM8.08829 121.334C10.0027 125.473 12.6784 128.728 16.1621 130.959L18.8593 126.749C16.2993 125.109 14.2061 122.65 12.6264 119.235L8.08829 121.334ZM16.1812 130.971C19.6606 133.156 23.6119 134.223 27.9574 134.223V129.223C24.4649 129.223 21.4517 128.377 18.8401 126.737L16.1812 130.971ZM27.9574 134.223C30.3482 134.223 32.6227 133.911 34.7667 133.267L33.3299 128.478C31.6967 128.968 29.9105 129.223 27.9574 129.223V134.223ZM34.7856 133.262C36.9561 132.592 38.9288 131.603 40.6831 130.288L37.6831 126.288C36.4156 127.238 34.9651 127.973 33.311 128.484L34.7856 133.262ZM40.6682 130.299C42.4598 128.976 43.9587 127.35 45.1597 125.439L40.9265 122.779C40.0499 124.173 38.9755 125.333 37.698 126.277L40.6682 130.299ZM45.146 125.461C46.399 123.512 47.2402 121.316 47.6952 118.907L42.7821 117.979C42.4344 119.82 41.8119 121.401 40.9401 122.757L45.146 125.461ZM45.2253 120.943L58.4695 121.014L58.4963 116.014L45.252 115.943L45.2253 120.943ZM56.0084 118.158C55.5547 121.312 54.5746 124.26 53.067 127.017L57.4538 129.416C59.2514 126.129 60.4196 122.609 60.9575 118.87L56.0084 118.158ZM53.0598 127.031C51.5759 129.783 49.6291 132.217 47.2045 134.339L50.497 138.101C53.3606 135.596 55.6869 132.694 57.461 129.403L53.0598 127.031ZM47.2141 134.33C44.8161 136.407 41.9914 138.053 38.712 139.256L40.4333 143.95C44.2364 142.555 47.5971 140.613 50.4874 138.11L47.2141 134.33ZM38.7259 139.25C35.4932 140.414 31.854 141.015 27.7803 141.015V146.015C32.3473 146.015 36.5696 145.341 40.4195 143.955L38.7259 139.25ZM27.7803 141.015C21.808 141.015 16.5648 139.637 11.9812 136.935L9.44171 141.242C14.8681 144.441 21.0041 146.015 27.7803 146.015V141.015ZM11.9812 136.935C7.41388 134.242 3.78653 130.345 1.10452 125.156L-3.3371 127.453C-0.258698 133.408 3.99915 138.033 9.44171 141.242L11.9812 136.935ZM1.10452 125.156C-1.55313 120.015 -2.93661 113.747 -2.93661 106.261H-7.93661C-7.93661 114.356 -6.4399 121.45 -3.3371 127.453L1.10452 125.156ZM-2.93661 106.261C-2.93661 98.7523 -1.54175 92.4892 1.13406 87.3769L-3.29582 85.0583C-6.42767 91.0419 -7.93661 98.1411 -7.93661 106.261H-2.93661ZM1.13608 87.373C3.84204 82.1811 7.48276 78.2814 12.0521 75.5872L9.51254 71.2801C4.07193 74.4881 -0.196136 79.1109 -3.29785 85.0621L1.13608 87.373ZM12.0521 75.5872C16.6385 72.883 21.8589 71.5071 27.7803 71.5071V66.5071C21.0477 66.5071 14.9361 68.0823 9.51254 71.2801L12.0521 75.5872ZM27.7803 71.5071C31.5814 71.5071 35.0706 72.0402 38.2655 73.0834L39.8175 68.3304C36.0715 67.1072 32.0532 66.5071 27.7803 66.5071V71.5071ZM38.2655 73.0834C41.4598 74.1265 44.28 75.6485 46.7475 77.644L49.8916 73.7562C46.9291 71.3605 43.564 69.5538 39.8175 68.3304L38.2655 73.0834ZM46.7578 77.6523C49.2071 79.6117 51.2289 82.0233 52.824 84.9119L57.201 82.4947C55.3021 79.0562 52.8619 76.1324 49.8813 73.7479L46.7578 77.6523ZM52.8349 84.9313C54.4306 87.7611 55.4991 91.0389 56.0052 94.802L60.9606 94.1354C60.3808 89.8245 59.1356 85.9253 57.1901 82.4753L52.8349 84.9313ZM70.5143 142.523H68.0143V145.023H70.5143V142.523ZM70.5143 69.9987V67.4987H68.0143V69.9987H70.5143ZM83.6523 69.9987H86.1523V67.4987H83.6523V69.9987ZM83.6523 103.322H81.1523V105.822H83.6523V103.322ZM84.5377 103.322V105.822H85.6945L86.4434 104.94L84.5377 103.322ZM112.832 69.9987V67.4987H111.675L110.927 68.3805L112.832 69.9987ZM128.874 69.9987L130.768 71.6307L134.329 67.4987H128.874V69.9987ZM100.827 102.543L98.9336 100.911L97.6576 102.391L98.7867 103.987L100.827 102.543ZM129.122 142.523V145.023H133.954L131.163 141.079L129.122 142.523ZM113.328 142.523L111.276 143.951L112.022 145.023H113.328V142.523ZM91.691 111.431L93.743 110.003L91.8853 107.334L89.7833 109.815L91.691 111.431ZM83.6523 120.922L81.7447 119.306L81.1523 120.005V120.922H83.6523ZM83.6523 142.523V145.023H86.1523V142.523H83.6523ZM73.0143 142.523V69.9987H68.0143V142.523H73.0143ZM70.5143 72.4987H83.6523V67.4987H70.5143V72.4987ZM81.1523 69.9987V103.322H86.1523V69.9987H81.1523ZM83.6523 105.822H84.5377V100.822H83.6523V105.822ZM86.4434 104.94L114.738 71.6168L110.927 68.3805L82.632 101.704L86.4434 104.94ZM112.832 72.4987H128.874V67.4987H112.832V72.4987ZM126.98 68.3666L98.9336 100.911L102.721 104.175L130.768 71.6307L126.98 68.3666ZM98.7867 103.987L127.081 143.968L131.163 141.079L102.868 101.099L98.7867 103.987ZM129.122 140.023H113.328V145.023H129.122V140.023ZM115.38 141.095L93.743 110.003L89.6389 112.859L111.276 143.951L115.38 141.095ZM89.7833 109.815L81.7447 119.306L85.56 122.538L93.5986 113.047L89.7833 109.815ZM81.1523 120.922V142.523H86.1523V120.922H81.1523ZM83.6523 140.023H70.5143V145.023H83.6523V140.023ZM202.151 89.9359L199.666 90.2016L199.904 92.4359H202.151V89.9359ZM197.973 82.7118L196.527 84.7514L196.536 84.758L197.973 82.7118ZM181.435 81.3661L182.406 83.6696V83.6696L181.435 81.3661ZM176.938 84.7303L174.922 83.2518V83.2519L176.938 84.7303ZM175.344 89.5818L172.844 89.5493L172.844 89.5655V89.5818H175.344ZM176.371 93.5126L174.243 94.8253L174.254 94.8416L174.264 94.8576L176.371 93.5126ZM179.24 96.3456L177.881 98.4445L177.896 98.454L177.911 98.4632L179.24 96.3456ZM183.241 98.2578L182.405 100.614L183.241 98.2578ZM187.668 99.5681L188.274 97.1427L188.26 97.1393L188.247 97.1361L187.668 99.5681ZM194.467 101.268L193.861 103.693L193.88 103.698L193.9 103.703L194.467 101.268ZM202.364 103.853L201.376 106.15L201.384 106.153L202.364 103.853ZM209.198 107.961L207.609 109.891L207.615 109.895L207.62 109.9L209.198 107.961ZM212.527 133.387L214.598 134.788L214.603 134.781L212.527 133.387ZM203.108 140.93L204.113 143.219L204.119 143.216L203.108 140.93ZM173.573 141.001L172.6 143.303L172.605 143.305L173.573 141.001ZM163.87 133.352L161.813 134.772L161.82 134.781L163.87 133.352ZM160.117 121.099V118.599H157.517L157.619 121.197L160.117 121.099ZM173.042 121.099L175.535 120.912L175.362 118.599H173.042V121.099ZM175.38 127.402L177.316 125.821L175.38 127.402ZM180.727 131.156L179.846 133.496L179.854 133.499L180.727 131.156ZM195.671 131.121L196.591 133.445L196.597 133.443L196.604 133.44L195.671 131.121ZM200.77 127.509L202.722 129.07L202.728 129.063L202.734 129.056L200.77 127.509ZM202.647 122.055L205.147 122.083L205.147 122.054L205.147 122.024L202.647 122.055ZM200.983 117.381L199.095 119.019L199.102 119.028L199.11 119.037L200.983 117.381ZM196.415 114.264L195.41 116.553L195.426 116.561L195.443 116.568L196.415 114.264ZM189.615 111.998L188.992 114.419L188.999 114.421L189.615 111.998ZM181.364 109.873L181.988 107.452L181.986 107.452L181.364 109.873ZM167.199 102.897L165.516 104.745L165.522 104.751L165.529 104.757L167.199 102.897ZM165.499 79.1705L163.478 77.6992L163.471 77.709L165.499 79.1705ZM175.025 71.6985L176.035 73.9858L176.046 73.9808L175.025 71.6985ZM202.187 71.6985L201.136 73.9667L201.144 73.9706L201.152 73.9744L202.187 71.6985ZM211.359 79.0997L209.312 80.5354L209.317 80.5426L211.359 79.0997ZM214.794 89.9359V92.4359H217.337L217.293 89.8926L214.794 89.9359ZM204.637 89.6702C204.233 85.8906 202.479 82.8204 199.409 80.6655L196.536 84.758C198.377 86.0499 199.408 87.7958 199.666 90.2016L204.637 89.6702ZM199.418 80.6721C196.451 78.5693 192.737 77.6266 188.482 77.6266V82.6266C192.018 82.6266 194.631 83.4074 196.527 84.7514L199.418 80.6721ZM188.482 77.6266C185.502 77.6266 182.805 78.0751 180.464 79.0625L182.406 83.6696C183.984 83.0045 185.985 82.6266 188.482 82.6266V77.6266ZM180.464 79.0625C178.176 80.0273 176.279 81.4011 174.922 83.2518L178.954 86.2087C179.674 85.2265 180.776 84.3574 182.406 83.6696L180.464 79.0625ZM174.922 83.2519C173.564 85.1036 172.874 87.2303 172.844 89.5493L177.844 89.6142C177.861 88.2976 178.234 87.1899 178.954 86.2087L174.922 83.2519ZM172.844 89.5818C172.844 91.4814 173.279 93.2619 174.243 94.8253L178.499 92.1998C178.094 91.5441 177.844 90.704 177.844 89.5818H172.844ZM174.264 94.8576C175.182 96.2955 176.404 97.4884 177.881 98.4445L180.598 94.2466C179.667 93.6446 178.977 92.9488 178.478 92.1675L174.264 94.8576ZM177.911 98.4632C179.283 99.3244 180.785 100.039 182.405 100.614L184.077 95.9018C182.77 95.438 181.604 94.8776 180.568 94.2279L177.911 98.4632ZM182.405 100.614C183.952 101.163 185.513 101.625 187.089 102L188.247 97.1361C186.848 96.803 185.458 96.3917 184.077 95.9018L182.405 100.614ZM187.061 101.993L193.861 103.693L195.073 98.8425L188.274 97.1427L187.061 101.993ZM193.9 103.703C196.498 104.307 198.989 105.123 201.376 106.15L203.351 101.556C200.686 100.411 197.913 99.5032 195.034 98.833L193.9 103.703ZM201.384 106.153C203.729 107.152 205.799 108.4 207.609 109.891L210.788 106.031C208.585 104.217 206.099 102.726 203.344 101.553L201.384 106.153ZM207.62 109.9C209.378 111.331 210.761 113.049 211.783 115.073L216.246 112.819C214.907 110.168 213.079 107.896 210.777 106.022L207.62 109.9ZM211.783 115.073C212.755 116.997 213.285 119.336 213.285 122.161H218.285C218.285 118.707 217.635 115.568 216.246 112.819L211.783 115.073ZM213.285 122.161C213.285 125.961 212.322 129.208 210.452 131.993L214.603 134.781C217.077 131.097 218.285 126.86 218.285 122.161H213.285ZM210.457 131.986C208.587 134.75 205.844 136.985 202.096 138.644L204.119 143.216C208.587 141.239 212.124 138.446 214.598 134.788L210.457 131.986ZM202.102 138.641C198.415 140.261 193.831 141.121 188.27 141.121V146.121C194.324 146.121 199.632 145.187 204.113 143.219L202.102 138.641ZM188.27 141.121C182.879 141.121 178.324 140.286 174.542 138.696L172.605 143.305C177.133 145.209 182.375 146.121 188.27 146.121V141.121ZM174.547 138.698C170.806 137.116 167.963 134.85 165.921 131.922L161.82 134.781C164.453 138.558 168.078 141.391 172.6 143.303L174.547 138.698ZM165.928 131.932C163.93 129.036 162.789 125.432 162.615 121.001L157.619 121.197C157.823 126.398 159.184 130.963 161.813 134.772L165.928 131.932ZM160.117 123.599H173.042V118.599H160.117V123.599ZM170.549 121.285C170.77 124.233 171.697 126.846 173.443 128.984L177.316 125.821C176.323 124.606 175.693 123.017 175.535 120.912L170.549 121.285ZM173.443 128.984C175.115 131.03 177.274 132.528 179.846 133.496L181.607 128.816C179.789 128.132 178.383 127.127 177.316 125.821L173.443 128.984ZM179.854 133.499C182.393 134.444 185.173 134.895 188.163 134.895V129.895C185.677 129.895 183.499 129.521 181.599 128.813L179.854 133.499ZM188.163 134.895C191.263 134.895 194.089 134.435 196.591 133.445L194.751 128.796C192.956 129.506 190.777 129.895 188.163 129.895V134.895ZM196.604 133.44C199.099 132.437 201.179 131 202.722 129.07L198.818 125.947C197.907 127.086 196.587 128.058 194.738 128.801L196.604 133.44ZM202.734 129.056C204.32 127.043 205.117 124.684 205.147 122.083L200.147 122.027C200.13 123.581 199.676 124.858 198.807 125.961L202.734 129.056ZM205.147 122.024C205.117 119.633 204.398 117.468 202.855 115.724L199.11 119.037C199.739 119.748 200.13 120.7 200.147 122.086L205.147 122.024ZM202.871 115.742C201.473 114.132 199.601 112.895 197.386 111.961L195.443 116.568C197.147 117.286 198.32 118.127 199.095 119.019L202.871 115.742ZM197.42 111.975C195.33 111.058 192.928 110.261 190.232 109.575L188.999 114.421C191.496 115.056 193.627 115.771 195.41 116.553L197.42 111.975ZM190.239 109.577L181.988 107.452L180.741 112.294L188.992 114.419L190.239 109.577ZM181.986 107.452C176.282 105.986 171.96 103.812 168.87 101.037L165.529 104.757C169.379 108.214 174.5 110.691 180.742 112.294L181.986 107.452ZM168.883 101.049C166.018 98.4394 164.529 94.9757 164.529 90.3963H159.529C159.529 96.2045 161.486 101.075 165.516 104.745L168.883 101.049ZM164.529 90.3963C164.529 86.6036 165.546 83.3827 167.528 80.632L163.471 77.709C160.826 81.3798 159.529 85.6427 159.529 90.3963H164.529ZM167.521 80.6418C169.572 77.824 172.381 75.5975 176.035 73.9858L174.016 69.4112C169.643 71.3407 166.102 74.0956 163.478 77.6992L167.521 80.6418ZM176.046 73.9808C179.692 72.3506 183.881 71.5071 188.659 71.5071V66.5071C183.286 66.5071 178.385 67.4579 174.005 69.4162L176.046 73.9808ZM188.659 71.5071C193.516 71.5071 197.654 72.3533 201.136 73.9667L203.238 69.4302C198.976 67.4551 194.095 66.5071 188.659 66.5071V71.5071ZM201.152 73.9744C204.686 75.5807 207.376 77.7755 209.312 80.5354L213.405 77.664C210.903 74.0968 207.478 71.3575 203.221 69.4225L201.152 73.9744ZM209.317 80.5426C211.228 83.2464 212.231 86.3639 212.294 89.9792L217.293 89.8926C217.214 85.3394 215.928 81.2328 213.4 77.6568L209.317 80.5426ZM214.794 87.4359H202.151V92.4359H214.794V87.4359ZM287.097 69.9987H289.597V67.4987H287.097V69.9987ZM287.097 142.523V145.023H289.597V142.523H287.097ZM275.411 142.523L273.355 143.946L274.1 145.023H275.411V142.523ZM241.238 93.123L243.294 91.7008L242.548 90.623H241.238V93.123ZM240.636 93.123V90.623H238.136V93.123H240.636ZM240.636 142.523V145.023H243.136V142.523H240.636ZM227.498 142.523H224.998V145.023H227.498V142.523ZM227.498 69.9987V67.4987H224.998V69.9987H227.498ZM239.255 69.9987L241.312 68.5781L240.567 67.4987H239.255V69.9987ZM273.392 119.434L271.335 120.855L272.081 121.934H273.392V119.434ZM274.03 119.434V121.934H276.53V119.434H274.03ZM274.03 69.9987V67.4987H271.53V69.9987H274.03ZM284.597 69.9987V142.523H289.597V69.9987H284.597ZM287.097 140.023H275.411V145.023H287.097V140.023ZM277.467 141.101L243.294 91.7008L239.182 94.5453L273.355 143.946L277.467 141.101ZM241.238 90.623H240.636V95.623H241.238V90.623ZM238.136 93.123V142.523H243.136V93.123H238.136ZM240.636 140.023H227.498V145.023H240.636V140.023ZM229.998 142.523V69.9987H224.998V142.523H229.998ZM227.498 72.4987H239.255V67.4987H227.498V72.4987ZM237.198 71.4192L271.335 120.855L275.45 118.014L241.312 68.5781L237.198 71.4192ZM273.392 121.934H274.03V116.934H273.392V121.934ZM276.53 119.434V69.9987H271.53V119.434H276.53ZM274.03 72.4987H287.097V67.4987H274.03V72.4987ZM310.726 142.523V145.023H312.524L313.096 143.318L310.726 142.523ZM296.703 142.523L294.345 141.693L293.172 145.023H296.703V142.523ZM322.235 69.9987V67.4987H320.465L319.877 69.1685L322.235 69.9987ZM338.454 69.9987L340.812 69.1675L340.223 67.4987H338.454V69.9987ZM364.022 142.523V145.023H367.554L366.38 141.692L364.022 142.523ZM349.998 142.523L347.629 143.32L348.201 145.023H349.998V142.523ZM330.628 84.8719L332.998 84.0757L332.425 82.3719H330.628V84.8719ZM330.061 84.8719V82.3719H328.263L327.691 84.077L330.061 84.8719ZM311.186 114.087V111.587H308.686V114.087H311.186ZM349.432 114.087H351.932V111.587H349.432V114.087ZM349.432 124.64V127.14H351.932V124.64H349.432ZM311.186 124.64H308.686V127.14H311.186V124.64ZM310.726 140.023H296.703V145.023H310.726V140.023ZM299.061 143.354L324.593 70.8288L319.877 69.1685L294.345 141.693L299.061 143.354ZM322.235 72.4987H338.454V67.4987H322.235V72.4987ZM336.096 70.8299L361.664 143.355L366.38 141.692L340.812 69.1675L336.096 70.8299ZM364.022 140.023H349.998V145.023H364.022V140.023ZM352.368 141.727L332.998 84.0757L328.258 85.6682L347.629 143.32L352.368 141.727ZM330.628 82.3719H330.061V87.3719H330.628V82.3719ZM327.691 84.077L308.356 141.729L313.096 143.318L332.432 85.6668L327.691 84.077ZM311.186 116.587H349.432V111.587H311.186V116.587ZM346.932 114.087V124.64H351.932V114.087H346.932ZM349.432 122.14H311.186V127.14H349.432V122.14ZM313.686 124.64V114.087H308.686V124.64H313.686ZM432.244 94.4687V96.9687H435.103L434.722 94.1354L432.244 94.4687ZM419 94.4687L416.537 94.897L416.897 96.9687H419V94.4687ZM416.91 88.6965L414.764 89.9783L414.768 89.9849L414.772 89.9915L416.91 88.6965ZM413.121 84.3761L414.66 82.4061V82.4061L413.121 84.3761ZM407.951 81.7202L407.187 84.1006L407.204 84.1062L407.222 84.1115L407.951 81.7202ZM391.272 83.7741L392.624 85.8766L392.636 85.8691L391.272 83.7741ZM384.118 92.4148L386.393 93.4525L386.395 93.4471L384.118 92.4148ZM384.118 120.284L381.842 121.317L381.845 121.325L381.849 121.334L384.118 120.284ZM391.272 128.854L389.923 130.959L389.933 130.965L389.942 130.971L391.272 128.854ZM407.809 130.873L408.528 133.267L408.537 133.264L408.547 133.262L407.809 130.873ZM412.944 128.288L411.459 126.277L411.452 126.282L411.444 126.288L412.944 128.288ZM416.804 124.109L414.701 122.757L414.694 122.768L414.688 122.779L416.804 124.109ZM419 118.443L419.013 115.943L416.93 115.932L416.543 117.979L419 118.443ZM432.244 118.514L434.719 118.87L435.127 116.029L432.257 116.014L432.244 118.514ZM429.021 128.217L426.828 127.017L426.824 127.024L426.821 127.031L429.021 128.217ZM422.612 136.22L424.248 138.11L424.258 138.101L422.612 136.22ZM413.334 141.603L414.181 143.955L414.187 143.952L414.194 143.95L413.334 141.603ZM384.473 139.088L385.742 136.935L384.473 139.088ZM372.645 126.305L370.424 127.453L372.645 126.305ZM372.68 86.2176L374.895 87.3769L374.897 87.373L372.68 86.2176ZM384.543 73.4337L383.274 71.2801V71.2801L384.543 73.4337ZM412.803 70.7069L413.579 68.3304V68.3304L412.803 70.7069ZM422.081 75.7001L420.509 77.644L420.519 77.6523L422.081 75.7001ZM428.774 83.7033L426.585 84.9119L426.59 84.9216L426.596 84.9313L428.774 83.7033ZM432.244 91.9687H419V96.9687H432.244V91.9687ZM421.463 94.0403C421.038 91.5999 420.244 89.3749 419.049 87.4014L414.772 89.9915C415.607 91.3703 416.206 92.9936 416.537 94.897L421.463 94.0403ZM419.057 87.4146C417.889 85.4587 416.422 83.7827 414.66 82.4061L411.582 86.3462C412.842 87.3304 413.902 88.5346 414.764 89.9783L419.057 87.4146ZM414.66 82.4061C412.894 81.0264 410.893 80.0036 408.68 79.3289L407.222 84.1115C408.881 84.6173 410.326 85.3651 411.582 86.3462L414.66 82.4061ZM408.715 79.3398C406.531 78.6389 404.205 78.2995 401.754 78.2995V83.2995C403.741 83.2995 405.546 83.5739 407.187 84.1006L408.715 79.3398ZM401.754 78.2995C397.37 78.2995 393.393 79.4093 389.908 81.6791L392.636 85.8691C395.241 84.1728 398.253 83.2995 401.754 83.2995V78.2995ZM389.919 81.6717C386.41 83.9294 383.733 87.2117 381.842 91.3824L386.395 93.4471C387.951 90.016 390.042 87.5378 392.624 85.8765L389.919 81.6717ZM381.844 91.3771C379.933 95.5653 379.033 100.557 379.033 106.261H384.033C384.033 101.058 384.857 96.8189 386.393 93.4525L381.844 91.3771ZM379.033 106.261C379.033 112.054 379.931 117.103 381.842 121.317L386.395 119.252C384.859 115.864 384.033 111.564 384.033 106.261H379.033ZM381.849 121.334C383.764 125.473 386.439 128.728 389.923 130.959L392.62 126.749C390.06 125.109 387.967 122.65 386.388 119.235L381.849 121.334ZM389.942 130.971C393.422 133.156 397.373 134.223 401.718 134.223V129.223C398.226 129.223 395.213 128.377 392.601 126.737L389.942 130.971ZM401.718 134.223C404.109 134.223 406.384 133.911 408.528 133.267L407.091 128.478C405.458 128.968 403.672 129.223 401.718 129.223V134.223ZM408.547 133.262C410.717 132.592 412.69 131.603 414.444 130.288L411.444 126.288C410.177 127.238 408.726 127.973 407.072 128.484L408.547 133.262ZM414.429 130.299C416.221 128.976 417.72 127.35 418.921 125.439L414.688 122.779C413.811 124.173 412.737 125.333 411.459 126.277L414.429 130.299ZM418.907 125.461C420.16 123.512 421.001 121.316 421.456 118.907L416.543 117.979C416.195 119.82 415.573 121.401 414.701 122.757L418.907 125.461ZM418.986 120.943L432.231 121.014L432.257 116.014L419.013 115.943L418.986 120.943ZM429.769 118.158C429.316 121.312 428.336 124.26 426.828 127.017L431.215 129.416C433.012 126.129 434.181 122.609 434.719 118.87L429.769 118.158ZM426.821 127.031C425.337 129.783 423.39 132.217 420.966 134.339L424.258 138.101C427.122 135.596 429.448 132.694 431.222 129.403L426.821 127.031ZM420.975 134.33C418.577 136.407 415.752 138.053 412.473 139.256L414.194 143.95C417.997 142.555 421.358 140.613 424.248 138.11L420.975 134.33ZM412.487 139.25C409.254 140.414 405.615 141.015 401.541 141.015V146.015C406.108 146.015 410.331 145.341 414.181 143.955L412.487 139.25ZM401.541 141.015C395.569 141.015 390.326 139.637 385.742 136.935L383.203 141.242C388.629 144.441 394.765 146.015 401.541 146.015V141.015ZM385.742 136.935C381.175 134.242 377.548 130.345 374.866 125.156L370.424 127.453C373.502 133.408 377.76 138.033 383.203 141.242L385.742 136.935ZM374.866 125.156C372.208 120.015 370.824 113.747 370.824 106.261H365.824C365.824 114.356 367.321 121.45 370.424 127.453L374.866 125.156ZM370.824 106.261C370.824 98.7523 372.219 92.4892 374.895 87.3769L370.465 85.0583C367.333 91.0419 365.824 98.1411 365.824 106.261H370.824ZM374.897 87.373C377.603 82.1811 381.244 78.2814 385.813 75.5872L383.274 71.2801C377.833 74.4881 373.565 79.1109 370.463 85.0621L374.897 87.373ZM385.813 75.5872C390.4 72.883 395.62 71.5071 401.541 71.5071V66.5071C394.809 66.5071 388.697 68.0823 383.274 71.2801L385.813 75.5872ZM401.541 71.5071C405.342 71.5071 408.832 72.0402 412.027 73.0834L413.579 68.3304C409.833 67.1072 405.814 66.5071 401.541 66.5071V71.5071ZM412.027 73.0834C415.221 74.1265 418.041 75.6485 420.509 77.644L423.653 73.7562C420.69 71.3605 417.325 69.5538 413.579 68.3304L412.027 73.0834ZM420.519 77.6523C422.968 79.6117 424.99 82.0233 426.585 84.9119L430.962 82.4947C429.063 79.0562 426.623 76.1324 423.642 73.7479L420.519 77.6523ZM426.596 84.9313C428.192 87.7611 429.26 91.0389 429.766 94.802L434.722 94.1354C434.142 89.8245 432.897 85.9253 430.951 82.4753L426.596 84.9313ZM444.275 142.523H441.775V145.023H444.275V142.523ZM444.275 69.9987V67.4987H441.775V69.9987H444.275ZM457.413 69.9987H459.913V67.4987H457.413V69.9987ZM457.413 103.322H454.913V105.822H457.413V103.322ZM458.299 103.322V105.822H459.456L460.204 104.94L458.299 103.322ZM486.593 69.9987V67.4987H485.436L484.688 68.3805L486.593 69.9987ZM502.635 69.9987L504.529 71.6307L508.09 67.4987H502.635V69.9987ZM474.589 102.543L472.695 100.911L471.419 102.391L472.548 103.987L474.589 102.543ZM502.883 142.523V145.023H507.715L504.924 141.079L502.883 142.523ZM487.089 142.523L485.037 143.951L485.783 145.023H487.089V142.523ZM465.452 111.431L467.504 110.003L465.646 107.334L463.544 109.815L465.452 111.431ZM457.413 120.922L455.506 119.306L454.913 120.005V120.922H457.413ZM457.413 142.523V145.023H459.913V142.523H457.413ZM446.775 142.523V69.9987H441.775V142.523H446.775ZM444.275 72.4987H457.413V67.4987H444.275V72.4987ZM454.913 69.9987V103.322H459.913V69.9987H454.913ZM457.413 105.822H458.299V100.822H457.413V105.822ZM460.204 104.94L488.499 71.6168L484.688 68.3805L456.393 101.704L460.204 104.94ZM486.593 72.4987H502.635V67.4987H486.593V72.4987ZM500.741 68.3666L472.695 100.911L476.482 104.175L504.529 71.6307L500.741 68.3666ZM472.548 103.987L500.842 143.968L504.924 141.079L476.629 101.099L472.548 103.987ZM502.883 140.023H487.089V145.023H502.883V140.023ZM489.141 141.095L467.504 110.003L463.4 112.859L485.037 143.951L489.141 141.095ZM463.544 109.815L455.506 119.306L459.321 122.538L467.36 113.047L463.544 109.815ZM454.913 120.922V142.523H459.913V120.922H454.913ZM457.413 140.023H444.275V145.023H457.413V140.023Z" fill="white" mask="url(#path-1-outside-1_979_1393)"/>
</g>
<defs>
<filter id="filter0_d_979_1393" x="-349.206" y="0.0258102" width="990.258" height="345.538" filterUnits="userSpaceOnUse" color-interpolation-filters="sRGB">
<feFlood flood-opacity="0" result="BackgroundImageFix"/>
<feColorMatrix in="SourceAlpha" type="matrix" values="0 0 0 0 0 0 0 0 0 0 0 0 0 0 0 0 0 0 127 0" result="hardAlpha"/>
<feOffset dy="66.481"/>
<feGaussianBlur stdDeviation="66.481"/>
<feComposite in2="hardAlpha" operator="out"/>
<feColorMatrix type="matrix" values="0 0 0 0 0 0 0 0 0 0 0 0 0 0 0 0 0 0 0.25 0"/>
<feBlend mode="normal" in2="BackgroundImageFix" result="effect1_dropShadow_979_1393"/>
<feBlend mode="normal" in="SourceGraphic" in2="effect1_dropShadow_979_1393" result="shape"/>
</filter>
</defs>
</svg>
