<svg width="428" height="346" viewBox="0 0 428 346" fill="none" xmlns="http://www.w3.org/2000/svg">
<g style="mix-blend-mode:soft-light" filter="url(#filter0_d_979_1301)">
<path fill-rule="evenodd" clip-rule="evenodd" d="M442.195 144.603V67.918H459.494V98.7002L485.631 67.918H507.174L477.226 102.668L506.904 144.603H486.003L465.29 114.84L459.494 121.684V144.603H442.195ZM457.414 120.921L465.452 111.431L487.089 142.523H502.883L474.589 102.542L502.635 69.9982H486.593L458.299 103.321H457.414V69.9982H444.276V142.523H457.414V120.921Z" fill="white"/>
</g>
<g style="mix-blend-mode:soft-light" filter="url(#filter1_d_979_1301)">
<path fill-rule="evenodd" clip-rule="evenodd" d="M434.623 96.5487H417.25L416.95 94.825C416.611 92.8764 415.996 91.2027 415.131 89.7739L415.124 89.7629C414.236 88.2762 413.142 87.0324 411.84 86.0152C410.542 85.0006 409.05 84.2297 407.344 83.7098L407.33 83.7054L407.315 83.7007C405.629 83.1594 403.78 82.8795 401.754 82.8795C398.178 82.8795 395.086 83.7727 392.407 85.5172L392.397 85.5234C389.737 87.2347 387.597 89.7804 386.013 93.2736L386.011 93.2781C384.443 96.7135 383.613 101.016 383.613 106.261C383.613 111.6 384.443 115.959 386.008 119.415C387.614 122.885 389.753 125.408 392.386 127.097C395.068 128.78 398.158 129.642 401.718 129.642C403.705 129.642 405.53 129.384 407.203 128.882C408.898 128.359 410.39 127.603 411.696 126.623L411.702 126.619L411.708 126.614C413.029 125.639 414.139 124.44 415.043 123.002L415.048 122.993L415.054 122.984C415.958 121.578 416.599 119.945 416.956 118.057L417.277 116.353L434.643 116.446L434.303 118.81C433.772 122.498 432.621 125.969 430.849 129.21C429.1 132.453 426.806 135.314 423.982 137.785L423.974 137.792C421.125 140.26 417.809 142.177 414.05 143.556L414.038 143.56C410.24 144.927 406.067 145.595 401.541 145.595C394.833 145.595 388.771 144.038 383.416 140.88C378.047 137.714 373.842 133.15 370.797 127.26C367.731 121.33 366.244 114.305 366.244 106.261C366.244 98.1922 367.743 91.1632 370.837 85.2528C373.905 79.3669 378.12 74.8058 383.487 71.6416C388.84 68.4852 394.877 66.9268 401.541 66.9268C405.775 66.9268 409.748 67.5212 413.448 68.7293C417.148 69.9375 420.468 71.7203 423.389 74.0824C426.319 76.4284 428.72 79.3046 430.591 82.6906C432.504 86.0863 433.732 89.9301 434.305 94.1912L434.623 96.5487ZM428.773 83.7031C427.026 80.5396 424.795 77.8719 422.081 75.6999C419.366 73.5043 416.273 71.84 412.802 70.7068C409.332 69.5736 405.578 69.007 401.541 69.007C395.214 69.007 389.548 70.4825 384.543 73.4335C379.538 76.3846 375.584 80.6459 372.68 86.2174C369.776 91.7654 368.324 98.4465 368.324 106.261C368.324 114.052 369.764 120.733 372.645 126.304C375.525 131.876 379.467 136.137 384.472 139.088C389.477 142.039 395.167 143.515 401.541 143.515C405.862 143.515 409.792 142.877 413.334 141.603C416.875 140.304 419.968 138.51 422.612 136.22C425.256 133.906 427.392 131.238 429.021 128.217C430.338 125.81 431.287 123.268 431.869 120.592C432.018 119.908 432.143 119.215 432.244 118.514L419 118.443C418.598 120.568 417.866 122.456 416.804 124.109C415.765 125.761 414.479 127.154 412.944 128.287C411.433 129.421 409.721 130.282 407.809 130.873C405.921 131.439 403.89 131.722 401.718 131.722C397.799 131.722 394.317 130.766 391.272 128.854C388.25 126.918 385.865 124.062 384.118 120.284C382.395 116.483 381.533 111.809 381.533 106.261C381.533 100.807 382.395 96.1919 384.118 92.4146C385.842 88.6137 388.226 85.7335 391.272 83.774C394.317 81.7909 397.811 80.7993 401.754 80.7993C403.973 80.7993 406.039 81.1062 407.951 81.72C409.887 82.3102 411.61 83.1956 413.121 84.376C414.632 85.5564 415.895 86.9965 416.91 88.6963C417.925 90.3725 418.622 92.2966 419 94.4685H432.244C432.149 93.7614 432.035 93.068 431.902 92.3883C431.277 89.1881 430.234 86.293 428.773 83.7031Z" fill="white"/>
</g>
<g style="mix-blend-mode:soft-light" filter="url(#filter2_d_979_1301)">
<path fill-rule="evenodd" clip-rule="evenodd" d="M312.221 144.603H293.764L320.761 67.918H339.925L366.96 144.603H348.502L342.493 126.72H318.219L312.221 144.603ZM310.725 142.523H296.701L322.234 69.9982H338.453L364.02 142.523H349.997L343.988 124.64H316.722L310.725 142.523ZM320.262 114.087H340.443L330.627 84.8714H330.06L320.262 114.087ZM323.153 112.007H337.549L330.345 90.5641L323.153 112.007Z" fill="white"/>
</g>
<g style="mix-blend-mode:soft-light" filter="url(#filter3_d_979_1301)">
<path fill-rule="evenodd" clip-rule="evenodd" d="M289.176 67.918V144.603H274.319L242.714 98.9159V144.603H225.416V67.918H240.345L271.948 113.684V67.918H289.176ZM274.028 119.434H273.391L239.253 69.9982H227.496V142.523H240.634V93.1225H241.236L275.409 142.523H287.095V69.9982H274.028V119.434Z" fill="white"/>
</g>
<g style="mix-blend-mode:soft-light" filter="url(#filter4_d_979_1301)">
<path fill-rule="evenodd" clip-rule="evenodd" d="M200.281 92.0159L200.083 90.1568C199.813 87.6357 198.721 85.7786 196.777 84.4142L196.77 84.4088C194.783 83.0011 192.078 82.2067 188.482 82.2067C185.944 82.2067 183.885 82.5905 182.243 83.2827C180.557 83.9937 179.389 84.9051 178.615 85.9603C177.844 87.0111 177.445 88.1999 177.424 89.5947C177.426 90.7687 177.688 91.6799 178.133 92.4069C178.664 93.2344 179.392 93.9648 180.358 94.5914C181.418 95.2554 182.609 95.826 183.936 96.2972C185.331 96.7921 186.735 97.2077 188.149 97.5443L188.161 97.547L194.938 99.2417C194.944 99.243 194.949 99.2443 194.955 99.2455C197.803 99.9096 200.547 100.808 203.182 101.941C203.183 101.941 203.184 101.941 203.185 101.942L202.364 103.853M209.198 107.961C211.229 109.613 212.834 111.608 214.014 113.945C215.195 116.283 215.785 119.021 215.785 122.161C215.785 126.411 214.699 130.153 212.527 133.387C210.355 136.598 207.215 139.112 203.107 140.93C199.023 142.724 194.077 143.621 188.269 143.621C182.627 143.621 177.728 142.748 173.573 141.001C169.442 139.254 166.207 136.704 163.87 133.351C161.897 130.493 160.697 127.102 160.269 123.179C160.195 122.501 160.144 121.808 160.117 121.099H173.042C173.231 123.625 174.01 125.726 175.379 127.402C176.749 129.078 178.531 130.33 180.727 131.156C182.946 131.982 185.425 132.395 188.163 132.395C191.02 132.395 193.522 131.97 195.671 131.12C197.843 130.247 199.542 129.043 200.77 127.508C201.998 125.95 202.623 124.132 202.647 122.055C202.623 120.166 202.069 118.608 200.983 117.38C199.897 116.129 198.374 115.09 196.414 114.264C194.478 113.414 192.212 112.659 189.615 111.998L181.364 109.873C175.391 108.338 170.669 106.013 167.199 102.897C163.752 99.7568 162.029 95.5899 162.029 90.3961C162.029 86.123 163.186 82.3811 165.499 79.1703C167.836 75.9596 171.012 73.4689 175.025 71.6983C179.039 69.9041 183.583 69.007 188.659 69.007C193.806 69.007 198.315 69.9041 202.187 71.6983C206.082 73.4689 209.139 75.936 211.358 79.0995C213.193 81.6955 214.294 84.6141 214.66 87.8555C214.737 88.5348 214.781 89.2282 214.793 89.9357H202.151C201.821 86.8431 200.428 84.435 197.972 82.7116C195.541 80.9882 192.377 80.1265 188.482 80.1265C185.743 80.1265 183.394 80.5396 181.435 81.3659C179.475 82.1922 177.976 83.3136 176.937 84.7301C175.899 86.1466 175.367 87.7638 175.344 89.5816C175.344 91.0925 175.686 92.4028 176.371 93.5124C177.079 94.622 178.035 95.5663 179.239 96.3454C180.443 97.1009 181.777 97.7383 183.241 98.2577C184.705 98.7771 186.18 99.2138 187.667 99.5679L194.467 101.268M203.055 69.8079C207.245 71.7141 210.605 74.4048 213.058 77.8996C215.533 81.4022 216.796 85.4255 216.873 89.8997L216.91 92.0159H200.281M203.055 69.8079C198.86 67.8652 194.044 66.9268 188.659 66.9268C183.338 66.9268 178.498 67.8678 174.181 69.7971C169.87 71.6998 166.392 74.4097 163.817 77.9461L163.812 77.9542C161.222 81.5478 159.949 85.7232 159.949 90.3961C159.949 96.1012 161.867 100.853 165.798 104.434L165.804 104.44L165.809 104.444C169.595 107.844 174.649 110.295 180.845 111.887C180.846 111.888 180.846 111.888 180.846 111.888L189.096 114.012L189.102 114.014C191.616 114.654 193.77 115.375 195.578 116.169L195.592 116.175L195.606 116.181C197.353 116.917 198.585 117.791 199.411 118.744L199.418 118.751L199.424 118.759C200.126 119.552 200.544 120.599 200.567 122.056C200.543 123.685 200.062 125.044 199.139 126.217C198.176 127.418 196.796 128.425 194.9 129.188C193.046 129.921 190.815 130.315 188.163 130.315C185.636 130.315 183.41 129.934 181.457 129.208C179.576 128.5 178.108 127.454 176.99 126.086C175.935 124.794 175.279 123.119 175.116 120.944L174.973 119.019H157.953L158.038 121.18C158.239 126.317 159.582 130.801 162.158 134.533L162.164 134.541C164.747 138.246 168.307 141.032 172.763 142.916L172.767 142.918C177.233 144.796 182.418 145.701 188.269 145.701C194.282 145.701 199.529 144.774 203.944 142.834L203.949 142.832C208.356 140.882 211.826 138.135 214.25 134.552L214.254 134.547C216.677 130.938 217.865 126.784 217.865 122.161C217.865 118.76 217.225 115.688 215.871 113.008C214.56 110.411 212.77 108.187 210.515 106.35" fill="white"/>
</g>
<g style="mix-blend-mode:soft-light" filter="url(#filter5_d_979_1301)">
<path fill-rule="evenodd" clip-rule="evenodd" d="M68.4336 144.603V67.918H85.732V98.7002L111.869 67.918H133.412L103.464 102.668L133.142 144.603H112.241L91.5287 114.84L85.732 121.684V144.603H68.4336ZM83.6518 120.921L91.6905 111.431L113.327 142.523H129.121L100.827 102.542L128.874 69.9982H112.832L84.5371 103.321H83.6518V69.9982H70.5138V142.523H83.6518V120.921Z" fill="white"/>
</g>
<g style="mix-blend-mode:soft-light" filter="url(#filter6_d_979_1301)">
<path fill-rule="evenodd" clip-rule="evenodd" d="M60.8609 96.5487H43.4883L43.1884 94.825C42.8496 92.8764 42.2345 91.2027 41.3692 89.7739L41.3626 89.7629C40.4747 88.2762 39.3808 87.0324 38.0788 86.0152C36.7801 85.0006 35.2879 84.2297 33.5826 83.7098L33.568 83.7054L33.5534 83.7007C31.867 83.1594 30.0179 82.8795 27.992 82.8795C24.4168 82.8795 21.3241 83.7727 18.645 85.5172L18.6355 85.5234C15.9756 87.2347 13.8351 89.7804 12.2511 93.2736L12.2491 93.2781C10.6817 96.7135 9.85168 101.016 9.85168 106.261C9.85168 111.602 10.6822 115.961 12.2477 119.418C13.8535 122.887 15.9918 125.409 18.624 127.097C21.3066 128.78 24.396 129.642 27.9566 129.642C29.9433 129.642 31.7678 129.384 33.4418 128.882C35.1361 128.359 36.6278 127.603 37.9342 126.623L37.9404 126.619L37.9466 126.614C39.2673 125.639 40.3773 124.44 41.2811 123.002L41.2868 122.993L41.2925 122.984C42.1963 121.578 42.8371 119.945 43.1938 118.057L43.5156 116.353L60.8811 116.446L60.5412 118.81C60.0109 122.497 58.86 125.966 57.0894 129.206C55.3398 132.451 53.0458 135.313 50.2198 137.785L50.2118 137.792C47.3628 140.26 44.0471 142.177 40.288 143.556L40.2765 143.56C36.4785 144.927 32.3051 145.595 27.7795 145.595C21.0708 145.595 15.0098 144.038 9.65417 140.88C4.2851 137.714 0.0802002 133.15 -2.96494 127.26C-6.03036 121.33 -7.51758 114.305 -7.51758 106.261C-7.51758 98.1931 -6.01851 91.1647 -2.9256 85.2546C0.142822 79.3678 4.35797 74.8061 9.72498 71.6416C15.0782 68.4852 21.115 66.9268 27.7795 66.9268C32.0128 66.9268 35.9867 67.5212 39.6864 68.7293C43.3855 69.9372 46.7039 71.7193 49.6242 74.0803C52.5547 76.426 54.956 79.302 56.8273 82.6878C58.7414 86.0841 59.9705 89.929 60.5438 94.1912L60.8609 96.5487ZM55.0117 83.7031C53.2647 80.5396 51.0337 77.8719 48.3188 75.6999C45.6038 73.5043 42.5111 71.84 39.0407 70.7068C35.5703 69.5736 31.8166 69.007 27.7795 69.007C21.4525 69.007 15.7865 70.4825 10.7815 73.4335C5.77658 76.3846 1.82217 80.6459 -1.08163 86.2174C-3.98547 91.7654 -5.43738 98.4465 -5.43738 106.261C-5.43738 114.052 -3.99727 120.733 -1.11707 126.304C1.76315 131.876 5.70575 136.137 10.7107 139.088C15.7157 142.039 21.4053 143.515 27.7795 143.515C32.0999 143.515 36.0306 142.877 39.5719 141.603C43.1131 140.304 46.2058 138.51 48.8499 136.22C51.4941 133.906 53.6306 131.238 55.2596 128.217C56.5758 125.81 57.5251 123.268 58.1075 120.592C58.2564 119.908 58.3813 119.215 58.4821 118.514L45.2379 118.443C44.8365 120.568 44.1047 122.456 43.0423 124.109C42.0035 125.761 40.7169 127.154 39.1823 128.287C37.6714 129.421 35.9598 130.282 34.0475 130.873C32.1589 131.439 30.1286 131.722 27.9566 131.722C24.0376 131.722 20.5554 130.766 17.5099 128.854C14.488 126.918 12.1036 124.062 10.3566 120.284C8.63318 116.483 7.77148 111.809 7.77148 106.261C7.77148 100.807 8.63318 96.1919 10.3566 92.4146C12.08 88.6137 14.4644 85.7335 17.5099 83.774C20.5554 81.7909 24.0494 80.7993 27.992 80.7993C30.2112 80.7993 32.2769 81.1062 34.1892 81.72C36.1251 82.3102 37.8485 83.1956 39.3594 84.376C40.8704 85.5564 42.1334 86.9965 43.1486 88.6963C44.1637 90.3725 44.8602 92.2966 45.2379 94.4685H58.4821C58.387 93.7614 58.2731 93.068 58.1403 92.3883C57.5151 89.1881 56.4722 86.293 55.0117 83.7031Z" fill="white"/>
</g>
<g style="mix-blend-mode:soft-light" filter="url(#filter7_d_979_1301)">
<path fill-rule="evenodd" clip-rule="evenodd" d="M-61.5387 144.603H-79.9961L-52.999 67.918H-33.8348L-6.80025 144.603H-25.2582L-31.2669 126.72H-55.5409L-61.5387 144.603ZM-63.0351 142.523H-77.0584L-51.526 69.9982H-35.3071L-9.73927 142.523H-23.7626L-29.7713 124.64H-57.0374L-63.0351 142.523ZM-53.4981 114.087H-33.317L-43.1333 84.8714H-43.6999L-53.4981 114.087ZM-50.6064 112.007H-36.2105L-43.415 90.5641L-50.6064 112.007Z" fill="white"/>
</g>
<g style="mix-blend-mode:soft-light" filter="url(#filter8_d_979_1301)">
<path fill-rule="evenodd" clip-rule="evenodd" d="M-84.5841 67.918V144.603H-99.4409L-131.045 98.9159V144.603H-148.344V67.918H-133.415L-101.812 113.684V67.918H-84.5841ZM-99.7315 119.434H-100.369L-134.507 69.9982H-146.264V142.523H-133.126V93.1225H-132.524L-98.3505 142.523H-86.6643V69.9982H-99.7315V119.434Z" fill="white"/>
</g>
<defs>
<filter id="filter0_d_979_1301" x="309.233" y="1.43694" width="330.903" height="342.61" filterUnits="userSpaceOnUse" color-interpolation-filters="sRGB">
<feFlood flood-opacity="0" result="BackgroundImageFix"/>
<feColorMatrix in="SourceAlpha" type="matrix" values="0 0 0 0 0 0 0 0 0 0 0 0 0 0 0 0 0 0 127 0" result="hardAlpha"/>
<feOffset dy="66.481"/>
<feGaussianBlur stdDeviation="66.481"/>
<feComposite in2="hardAlpha" operator="out"/>
<feColorMatrix type="matrix" values="0 0 0 0 0 0 0 0 0 0 0 0 0 0 0 0 0 0 0.25 0"/>
<feBlend mode="normal" in2="BackgroundImageFix" result="effect1_dropShadow_979_1301"/>
<feBlend mode="normal" in="SourceGraphic" in2="effect1_dropShadow_979_1301" result="shape"/>
</filter>
<filter id="filter1_d_979_1301" x="233.282" y="0.445732" width="334.323" height="344.592" filterUnits="userSpaceOnUse" color-interpolation-filters="sRGB">
<feFlood flood-opacity="0" result="BackgroundImageFix"/>
<feColorMatrix in="SourceAlpha" type="matrix" values="0 0 0 0 0 0 0 0 0 0 0 0 0 0 0 0 0 0 127 0" result="hardAlpha"/>
<feOffset dy="66.481"/>
<feGaussianBlur stdDeviation="66.481"/>
<feComposite in2="hardAlpha" operator="out"/>
<feColorMatrix type="matrix" values="0 0 0 0 0 0 0 0 0 0 0 0 0 0 0 0 0 0 0.25 0"/>
<feBlend mode="normal" in2="BackgroundImageFix" result="effect1_dropShadow_979_1301"/>
<feBlend mode="normal" in="SourceGraphic" in2="effect1_dropShadow_979_1301" result="shape"/>
</filter>
<filter id="filter2_d_979_1301" x="160.802" y="1.43694" width="339.119" height="342.61" filterUnits="userSpaceOnUse" color-interpolation-filters="sRGB">
<feFlood flood-opacity="0" result="BackgroundImageFix"/>
<feColorMatrix in="SourceAlpha" type="matrix" values="0 0 0 0 0 0 0 0 0 0 0 0 0 0 0 0 0 0 127 0" result="hardAlpha"/>
<feOffset dy="66.481"/>
<feGaussianBlur stdDeviation="66.481"/>
<feComposite in2="hardAlpha" operator="out"/>
<feColorMatrix type="matrix" values="0 0 0 0 0 0 0 0 0 0 0 0 0 0 0 0 0 0 0.25 0"/>
<feBlend mode="normal" in2="BackgroundImageFix" result="effect1_dropShadow_979_1301"/>
<feBlend mode="normal" in="SourceGraphic" in2="effect1_dropShadow_979_1301" result="shape"/>
</filter>
<filter id="filter3_d_979_1301" x="92.454" y="1.43694" width="329.684" height="342.61" filterUnits="userSpaceOnUse" color-interpolation-filters="sRGB">
<feFlood flood-opacity="0" result="BackgroundImageFix"/>
<feColorMatrix in="SourceAlpha" type="matrix" values="0 0 0 0 0 0 0 0 0 0 0 0 0 0 0 0 0 0 127 0" result="hardAlpha"/>
<feOffset dy="66.481"/>
<feGaussianBlur stdDeviation="66.481"/>
<feComposite in2="hardAlpha" operator="out"/>
<feColorMatrix type="matrix" values="0 0 0 0 0 0 0 0 0 0 0 0 0 0 0 0 0 0 0.25 0"/>
<feBlend mode="normal" in2="BackgroundImageFix" result="effect1_dropShadow_979_1301"/>
<feBlend mode="normal" in="SourceGraphic" in2="effect1_dropShadow_979_1301" result="shape"/>
</filter>
<filter id="filter4_d_979_1301" x="24.9911" y="0.445732" width="325.836" height="344.699" filterUnits="userSpaceOnUse" color-interpolation-filters="sRGB">
<feFlood flood-opacity="0" result="BackgroundImageFix"/>
<feColorMatrix in="SourceAlpha" type="matrix" values="0 0 0 0 0 0 0 0 0 0 0 0 0 0 0 0 0 0 127 0" result="hardAlpha"/>
<feOffset dy="66.481"/>
<feGaussianBlur stdDeviation="66.481"/>
<feComposite in2="hardAlpha" operator="out"/>
<feColorMatrix type="matrix" values="0 0 0 0 0 0 0 0 0 0 0 0 0 0 0 0 0 0 0.25 0"/>
<feBlend mode="normal" in2="BackgroundImageFix" result="effect1_dropShadow_979_1301"/>
<feBlend mode="normal" in="SourceGraphic" in2="effect1_dropShadow_979_1301" result="shape"/>
</filter>
<filter id="filter5_d_979_1301" x="-64.5285" y="1.43694" width="330.903" height="342.61" filterUnits="userSpaceOnUse" color-interpolation-filters="sRGB">
<feFlood flood-opacity="0" result="BackgroundImageFix"/>
<feColorMatrix in="SourceAlpha" type="matrix" values="0 0 0 0 0 0 0 0 0 0 0 0 0 0 0 0 0 0 127 0" result="hardAlpha"/>
<feOffset dy="66.481"/>
<feGaussianBlur stdDeviation="66.481"/>
<feComposite in2="hardAlpha" operator="out"/>
<feColorMatrix type="matrix" values="0 0 0 0 0 0 0 0 0 0 0 0 0 0 0 0 0 0 0.25 0"/>
<feBlend mode="normal" in2="BackgroundImageFix" result="effect1_dropShadow_979_1301"/>
<feBlend mode="normal" in="SourceGraphic" in2="effect1_dropShadow_979_1301" result="shape"/>
</filter>
<filter id="filter6_d_979_1301" x="-140.48" y="0.445732" width="334.323" height="344.592" filterUnits="userSpaceOnUse" color-interpolation-filters="sRGB">
<feFlood flood-opacity="0" result="BackgroundImageFix"/>
<feColorMatrix in="SourceAlpha" type="matrix" values="0 0 0 0 0 0 0 0 0 0 0 0 0 0 0 0 0 0 127 0" result="hardAlpha"/>
<feOffset dy="66.481"/>
<feGaussianBlur stdDeviation="66.481"/>
<feComposite in2="hardAlpha" operator="out"/>
<feColorMatrix type="matrix" values="0 0 0 0 0 0 0 0 0 0 0 0 0 0 0 0 0 0 0.25 0"/>
<feBlend mode="normal" in2="BackgroundImageFix" result="effect1_dropShadow_979_1301"/>
<feBlend mode="normal" in="SourceGraphic" in2="effect1_dropShadow_979_1301" result="shape"/>
</filter>
<filter id="filter7_d_979_1301" x="-212.958" y="1.43694" width="339.119" height="342.61" filterUnits="userSpaceOnUse" color-interpolation-filters="sRGB">
<feFlood flood-opacity="0" result="BackgroundImageFix"/>
<feColorMatrix in="SourceAlpha" type="matrix" values="0 0 0 0 0 0 0 0 0 0 0 0 0 0 0 0 0 0 127 0" result="hardAlpha"/>
<feOffset dy="66.481"/>
<feGaussianBlur stdDeviation="66.481"/>
<feComposite in2="hardAlpha" operator="out"/>
<feColorMatrix type="matrix" values="0 0 0 0 0 0 0 0 0 0 0 0 0 0 0 0 0 0 0.25 0"/>
<feBlend mode="normal" in2="BackgroundImageFix" result="effect1_dropShadow_979_1301"/>
<feBlend mode="normal" in="SourceGraphic" in2="effect1_dropShadow_979_1301" result="shape"/>
</filter>
<filter id="filter8_d_979_1301" x="-281.306" y="1.43694" width="329.684" height="342.61" filterUnits="userSpaceOnUse" color-interpolation-filters="sRGB">
<feFlood flood-opacity="0" result="BackgroundImageFix"/>
<feColorMatrix in="SourceAlpha" type="matrix" values="0 0 0 0 0 0 0 0 0 0 0 0 0 0 0 0 0 0 127 0" result="hardAlpha"/>
<feOffset dy="66.481"/>
<feGaussianBlur stdDeviation="66.481"/>
<feComposite in2="hardAlpha" operator="out"/>
<feColorMatrix type="matrix" values="0 0 0 0 0 0 0 0 0 0 0 0 0 0 0 0 0 0 0.25 0"/>
<feBlend mode="normal" in2="BackgroundImageFix" result="effect1_dropShadow_979_1301"/>
<feBlend mode="normal" in="SourceGraphic" in2="effect1_dropShadow_979_1301" result="shape"/>
</filter>
</defs>
</svg>
